<svg viewBox="0 0 458 401" fill="none" xmlns="http://www.w3.org/2000/svg"><path d="M52.473 319.592c-.163-10.737-.384-21.5-.468-32.218-.065-7.708.514-15.35 2.757-22.804 1.658-5.466 4.864-9.434 10.066-11.799 1.587-.743 3.063-2.007 4.721-2.294 7.25-1.231 14.04-.306 19.352 5.46a31.3 31.3 0 0 1 6.809 12.451 62.813 62.813 0 0 1 2.6 16.464c.371 14.178.462 28.362.69 42.539 0 1.049-.436 1.44-1.411 1.427-.397 0-.793.039-1.19.059-2.64.123-2.601.123-2.666-2.606-.143-11.93-.202-23.866-.494-35.796a86.726 86.726 0 0 0-2.4-19.207 25.835 25.835 0 0 0-5.313-10.855c-1.3-1.531-3.134-2.652-4.766-3.909-.605-.469-1.164-.345-1.704.313a10.626 10.626 0 0 1-1.873 1.687 20.737 20.737 0 0 0-6.899 9.213 43.171 43.171 0 0 0-2.796 14.646c-.085 4.014.312 8.034.436 12.047.162 4.991.305 9.988.377 14.986.247 17.548.474 35.091.682 52.631 0 2.73 0 2.756-2.744 2.801-3.901.066-7.855.053-11.783.17-1.3.039-1.723-.45-1.736-1.668-.09-6.515-.28-13.07-.325-19.605-.059-8.04 0-16.086 0-24.107l.078-.026ZM84.482 126.703a13.95 13.95 0 0 1 1.257-.907c1.655-.938 3.311 0 3.26 1.904a5.17 5.17 0 0 1-.574 2.282c-4.097 7.563-5.218 15.862-6.024 24.26-1.759 18.287-1.733 36.633-1.636 54.979.038 8.489.069 16.977.09 25.466a9.61 9.61 0 0 1-.239 2.354 2.435 2.435 0 0 1-.882 1.447c-.457.36-1.027.54-1.604.508a2.418 2.418 0 0 1-1.587-.558 2.475 2.475 0 0 1-.855-1.463 6.245 6.245 0 0 1-.187-1.434c-.522-12.531-1.166-25.081-1.43-37.631-.194-8.919.045-17.851.302-26.776.22-7.55.683-15.1 1.16-22.643a71.861 71.861 0 0 1 3.37-18.594 22.87 22.87 0 0 1 1.108-2.836c1.288-2.621 2.835-2.744 4.471-.358Z" fill="#321639"/><path d="m276.793 257.187-79.442.812-45.962.507c-25.548.273-51.097.543-76.65.812-17.973.182-35.95.355-53.928.52-6.068.052-12.137.071-18.198.162-1.305 0-1.873-.273-1.958-1.721-.104-2.774-.528-5.528-.652-8.296a3.568 3.568 0 0 1 .698-2.26 345.011 345.011 0 0 1 8.848-10.394 3.032 3.032 0 0 1 2.062-.805c16.912-.23 33.827-.425 50.744-.585 31.355-.286 62.706-.554 94.052-.805l62.966-.52 64.036-.539 61.772-.52 64.695-.539 95.781-.78c11.203-.091 22.406-.136 33.616-.233a3.386 3.386 0 0 1 2.571 1.032 894.207 894.207 0 0 0 11.817 10.836 3.25 3.25 0 0 1 1.305 3.092c-.261 1.916-.385 3.858-.483 5.794-.046.948-.385 1.254-1.364 1.299-13.33.143-26.654.345-39.978.5-24.221.286-48.442.559-72.663.819l-70.672.773c-25.017.273-50.029.541-75.037.805-5.977.059-11.954 0-17.931 0l-.045.234ZM524.602 213.49h-8.005c-15.205.199-30.414.415-45.627.648l-57.331.81-54.94.777-56.671.803-55.077.777-56.665.804c-18.45.263-36.896.524-55.338.783-19.465.272-38.933.536-58.403.791-9.266.121-18.533.226-27.8.317-1.757 0-1.75 0-1.744-1.742 0-4.787.085-9.574 0-14.361 0-1.257.32-1.632 1.614-1.639 14.547-.071 29.094-.214 43.64-.317l80.119-.57 76.1-.518 78.361-.538 75.969-.518 79.831-.531c13.566-.085 27.139-.136 40.706-.266 1.412 0 1.706.428 1.653 1.723-.163 3.776-.189 7.553-.274 11.329-.013.382-.059.764-.118 1.438ZM245.503 195.619c-22.549.196-45.098.523-67.647.791l-43.088.524-66.844.811c-6.47.078-12.94.131-19.402.255-1.143 0-1.54-.262-1.521-1.466.074-4.304.074-8.609 0-12.914 0-1.269.32-1.642 1.612-1.649 22.11-.157 44.217-.347 66.322-.569 31.854-.275 63.709-.543 95.563-.805l62.731-.53 63.933-.536 62.065-.523A153292.97 153292.97 0 0 1 522.835 178c2.135 0 2.207.065 2.155 2.264-.079 3.153-.176 6.3-.261 9.447-.066 2.296-.066 2.329-2.435 2.388-6.64.183-13.279.399-19.925.484-19.846.242-39.693.412-59.539.654-22.105.249-44.21.513-66.315.792l-66.59.785c-8.591.085-17.189 0-25.781 0 .033.275-25.754.706-38.641.805ZM525.652 169.756c-3.846 0-7.471-.038-11.083 0-16.515.192-33.016.404-49.501.638-19.597.256-39.194.522-58.791.799l-55.741.759-78.166 1.054-56.275.766-58.674.798-57.038.753-50.427.677C48 176 48 176 48 174.085c0-3.378.046-6.755 0-10.132 0-1.143.326-1.462 1.493-1.475 12.165-.134 24.33-.339 36.508-.505l59.978-.804 58.674-.766 61.047-.792 57.599-.76 61.849-.798 57.2-.74c21.631-.281 43.265-.558 64.9-.83 5.659-.077 11.318-.262 16.951-.479 1.343-.051 1.838.377 1.799 1.66-.15 3.907-.235 7.795-.346 12.092ZM47.032 149.029c0-1.811.059-3.628 0-5.433-.046-1.075.36-1.303 1.373-1.355 6.47-.104 12.946-.306 19.416-.397 17.253-.244 34.505-.461 51.754-.652l61.432-.814 38.179-.502 63.06-.821 59.871-.775 63.327-.814 60.4-.775c18.578-.244 37.158-.474 55.74-.691 2.359 0 2.385 0 2.614 2.293.288 3.121.575 6.241.771 9.368.111 1.714 0 1.661-1.686 1.609-1.51-.045-3.013.072-4.522.098-14.587.222-29.183.439-43.787.652l-56.675.807-54.537.782-57.204.814-55.479.782-57.603.802c-18.804.264-37.606.527-56.406.788-19.999.273-39.997.538-59.995.795-9.49.13-18.952.241-28.468.41-1.196 0-1.666-.28-1.601-1.537.105-1.805 0-3.623 0-5.434h.026ZM47.134 134.976a4.644 4.644 0 0 1 .77-3.865c1.893-2.694 3.668-5.464 5.58-8.144a2.474 2.474 0 0 1 1.658-.954c7.609-.206 15.223-.363 22.84-.47 25.235-.387 50.469-.761 75.703-1.121l49.95-.748 55.269-.825 52.078-.773 53.448-.799 52.743-.773 54.466-.805c14.658-.219 29.315-.419 43.973-.683a2.758 2.758 0 0 1 1.668.35c.504.29.9.732 1.131 1.261 1.906 3.35 3.981 6.61 5.985 9.909.241.312.43.66.561 1.031.13.644 0 1.243-.888 1.243h-4.6c-18.16.202-36.318.417-54.473.645l-65.913.805-62.174.767-66.826.805-63.909.78-65.261.792-65.763.78c-7.087.077-14.174.109-21.261.245-1.958.032-3.864.38-5.795.567-.32.009-.64.003-.96-.02Z" fill="#321639"/><path d="M405.556 80.553c-6.018 1.262-16.046-.716-20.706 3.305-1.839 1.594-4.757 3.208-6.732 4.633-1.976 1.425-4.114 8.458-5.466 10.41-6.181 8.96-7.025 9.76-10.301 17.926-.279.709-.559 1.555-.13 2.192a2.358 2.358 0 0 0 1.8.755 63.693 63.693 0 0 0 15.656-.371c1.82-.267 3.744-.611 5.459.065 3.9 1.555 4.179 6.917 3.9 11.133a202.568 202.568 0 0 0 2.047 45.5c.24 1.49.695 3.253 2.106 3.754 2.164.794 3.821-1.848 5.342-3.579 3.249-3.65 8.741-3.943 13.602-3.682a126.442 126.442 0 0 1 19.53 2.602c2.788.592 5.667 1.302 8.448.703 2.158-.456 4.075-1.64 5.947-2.798 3.834-2.381 7.675-4.769 11.334-7.424 6.298-4.554 12.517-10.163 20.257-11.061l-2.138-18.68a3.528 3.528 0 0 1 .176-2.049 3.447 3.447 0 0 1 1.488-1.263l15.78-8.927c1.358-.767 2.872-1.769 3.035-3.324.182-1.783-2.067-2.655-2.892-4.249-4.056-7.808-6.779-12.746-7.799-19.87-.611-4.302-2.977-7.438-5.433-11.016-2.756-4.015-6.226-7.808-11.049-8.608-9.352-1.51-20.614.195-30.083 0a5.02 5.02 0 0 0-2.6.422c-1.053.593-1.527 1.822-2.119 2.876-2.755 4.926-9.098 6.91-14.674 6.188-5.577-.722-10.639-3.598-15.52-6.415" fill="#E56137"/><path d="M181 271.143 228.036 332s41.96-28.672 47.505-52.835c5.544-24.163-40.926 6.079-40.926 6.079L215.125 249 181 271.143Z" fill="#91B658"/><path d="m275 276 1-1" stroke="#321639" stroke-width="1.49" stroke-linecap="round" stroke-linejoin="round"/><path d="M475.567 134.555c1.301 3.606 2.004 20.715 2.004 20.715L440 176.768 458.213 185s40.211-10.667 40.758-16.569c.546-5.903-6.739-42.431-6.739-42.431l.794 1.316" fill="#7C6B58"/><path d="M129.538 227.532c-4.063 2.971-8.033 6.093-12.226 8.875a83.296 83.296 0 0 1-9.478 5.264 25.619 25.619 0 0 1-10.24 2.41c-8.26.379-14.92-3.115-20.427-8.954a26.248 26.248 0 0 1-7.121-14.779 3.4 3.4 0 0 0-.476-1.489c-2.115-2.972-2.883-6.459-3.528-9.92-2.44-13.094-.65-25.536 5.97-37.226a259.465 259.465 0 0 0 5.162-9.574c2.903-5.662 4.27-11.755 5.207-18.012.723-4.787.359-9.188-1.731-13.629-2.161-4.572-3.027-9.607-3.418-14.668a32.76 32.76 0 0 1 1.022-10.796 44.221 44.221 0 0 1 5.683-12.8 20.04 20.04 0 0 1 5.954-6.155 19.966 19.966 0 0 1 7.97-3.1c5.749-1.005 11.536-1.501 17.388-.802 2.07.248 4.199.039 6.405.039a37.358 37.358 0 0 0 .873-10.704c-6.81-4.61-10.989-10.9-13.443-18.423-2.545-7.837-.976-15.198 2.773-22.342-.748-.255-1.23-.47-1.731-.581-3.346-.738-5.625-2.815-7.213-5.76a19.866 19.866 0 0 1-2.461-11.756c.651-5.734 3.867-9.587 9.27-11.507a17.885 17.885 0 0 1 10.936-.53c5.143 1.425 8.665 4.605 10.253 9.797.208.653.365 1.352.605 2.227a24.984 24.984 0 0 1 3.815-.83c9.511-.652 18.227 1.476 25.661 7.766 3.489 2.951 5.208 6.85 5.585 11.363a4.251 4.251 0 0 1-.149 1.842c-.684 1.802-.215 3.442.442 5.127.938 2.383 1.745 4.82 2.708 7.183.286.84.74 1.612 1.333 2.27a6.51 6.51 0 0 0 2.118 1.557c1.686.751 1.952 1.849 1.165 3.468a8.576 8.576 0 0 1-1.009 1.548 8.221 8.221 0 0 0-1.628 4.95c-.078 2.031-.267 4.056-.468 6.08a10.258 10.258 0 0 1-1.736 4.976 10.204 10.204 0 0 1-3.973 3.45c-2.643 1.377-5.534 2.272-8.326 3.336-.82.314-1.686.484-2.545.725a25.426 25.426 0 0 0-1.465 11.318c4.557 1.45 8.847 2.965 13.234 4.206 6.952 1.96 13.924 3.918 20.942 5.603a70.951 70.951 0 0 1 26.878 12.624c.208.157.449.261.794.464 3.841-2.612 7.753-5.14 10.891-8.693a33.338 33.338 0 0 1 3.554-3.559c2.825-2.35 6.087-2.736 9.459-1.502a12.495 12.495 0 0 1 4.805 2.98 12.546 12.546 0 0 1 3.006 4.798 1318.25 1318.25 0 0 0 6.139 16.393 12.57 12.57 0 0 1 1.009 6.223c-.222 1.659-.801 3.096-2.812 3.573-3.646-1.071-3.724-4.67-5.247-7.452v2.168c0 3.546.065 7.086.045 10.632a6.672 6.672 0 0 1-.358 2.332c-.083.279-.243.53-.462.723a1.553 1.553 0 0 1-1.624.277 1.565 1.565 0 0 1-.674-.53 6.55 6.55 0 0 1-1.23-2.612c-.755-3.533-1.38-7.099-1.953-10.012 0 1.6.078 3.919 0 6.191a65.469 65.469 0 0 1-.605 6.864c-.28 1.803-.71 2.116-2.533 3.063-1.373-.176-1.907-1.234-2.2-2.358a45.149 45.149 0 0 1-1.211-5.694c-.351-2.717-.501-5.467-.722-8.092-.391 3.402-.755 6.916-1.205 10.449a9.965 9.965 0 0 1-.748 2.528 1.898 1.898 0 0 1-1.829 1.306 1.917 1.917 0 0 1-1.79-1.359 22.385 22.385 0 0 1-1.569-7.765c-.104-3.102.039-6.204-.072-9.3-.085-2.468-.384-4.93-.651-7.392a4.407 4.407 0 0 0-.417-1.058c-1.256.698-2.363 1.371-3.528 1.959a22.05 22.05 0 0 1-3.613 1.561 21.635 21.635 0 0 1-5.136 1.032c-8.202.28-16.417.398-24.626.653-3.782.098-7.564.3-11.567.463.056.695.152 1.386.286 2.071 2.025 7.732 1.107 15.288-1.367 22.733-.95 2.854-1.953 5.688-3.118 8.49-1.621 3.919-2.298 7.981-2.819 12.115-.049.844-.049 1.69 0 2.534 2.129.398 4.088.855 6.074 1.116 5.338.706 10.689 1.359 16.085 1.137a45.42 45.42 0 0 0 10.702-1.6c1.692-.49 3.424-.849 5.149-1.202 1.146-.235 1.159-.183 2.754.653.384 2.704-2.448 2.756-3.802 4.402 1.647-.32 3.007-.653 4.388-.849a32.952 32.952 0 0 1 3.684-.333 1.781 1.781 0 0 1 1.953 1.352c-.326 2.318-2.663 2.612-4.394 3.788 1.836.45 3.997-.542 5.208 1.43-.45 1.73-.45 1.73-2.774 3.311l2.031 1.038c.339 1.515-.585 2.038-1.497 2.319a60.197 60.197 0 0 1-6.874 1.828c-2.5.464-4.986.725-7.434 1.607-2.116.764-4.485.895-6.763 1.084-2.279.189-4.414.072-6.621.105-.586 0-1.172.058-2.011.104.273.607.416.999.618 1.358 6.204 11.024 12.525 21.989 18.579 33.092 3.469 6.367 6.509 12.957 9.732 19.461a30.95 30.95 0 0 1 1.373 3.449 12.054 12.054 0 0 0 2.077 3.918 16.817 16.817 0 0 1 2.324 4.154 206.492 206.492 0 0 0 15.734 29.473c.566.882 1.041 1.822 1.699 2.972 1.451-.823 2.877-1.503 4.159-2.384 2.409-1.646 4.739-3.409 7.096-5.127 5.168-3.775 10.65-6.929 16.892-8.594 2.962-.797 5.892-1.13 8.827.058.782.314 1.758.425 1.882 1.725a7.287 7.287 0 0 1-1.771 0c-3.639-.98-7.161-.49-10.643.731a45.318 45.318 0 0 0-8.463 4.003c-.26 2.43.43 4.735 1.1 6.988a67.562 67.562 0 0 0 2.65 6.923c.924 2.175 3.203 3.442 4.478 6.165-1.087-.307-1.699-.327-2.115-.62a13.964 13.964 0 0 1-4.739-5.943 37.119 37.119 0 0 1-2.799-9.751c-.111-.764-.319-1.515-.547-2.58-1.165.784-2.122 1.385-3.04 2.045-2.513 1.809-4.974 3.689-7.519 5.44a21.827 21.827 0 0 1-7.642 3.552c-1.484.327-2.949.418-4.095-1.404.47-.206.972-.33 1.484-.365a3.86 3.86 0 0 0 3.086-.582 130.578 130.578 0 0 1-10.702-17.698c-3.072-6.061-5.82-12.291-8.794-18.626-.586.451-1.075.777-1.511 1.169a114.475 114.475 0 0 1-27.607 18.6c-1.016.477-1.953 1.136-3.138 1.835.266.768.579 1.518.938 2.247 5.52 9.796 11.528 19.291 19.411 27.429a70.114 70.114 0 0 1 9.023 12.108 216.258 216.258 0 0 0 7.16 10.847c2.162 3.057 5.039 5.401 8.027 7.602 6.965-3.552 13.266-7.739 18.65-13.211a131.376 131.376 0 0 0 24.665-34.365c1.76-3.378 3.1-6.96 3.991-10.665.2-.553.46-1.083.774-1.581a10.672 10.672 0 0 1 5.273 4.683c.299.516.124 1.378 0 2.051a33.008 33.008 0 0 1-3.665 10.449c-3.352 5.982-7.616 11.292-12.01 16.503-3.138 3.716-6.276 7.439-9.498 11.102a73.807 73.807 0 0 1-21.872 16.98c-4.082 2.097-4.375 2.051-8.105-.653a38.471 38.471 0 0 1-9.875-10.279c-1.771-2.749-3.58-5.479-5.253-8.294a67.904 67.904 0 0 0-9.185-12.317c-7.903-8.255-13.905-17.836-19.321-27.821-1.185-2.195-1.712-2.808.918-5.153l-5.208-6.348c-.197.422-.36.859-.488 1.306-1.003 6.335-3.301 12.291-5.325 18.326-4.7 14.01-9.38 28.025-14.041 42.045-.411 1.241-.651 2.534-.996 3.918l2.603 1.006c.814 1.476.534 2.971.072 4.389-1.426 4.369-2.767 8.777-4.459 13.061-3.379 8.555-6.998 16.98-10.448 25.542-.4 1.163-.62 2.381-.651 3.611-.221 3.266-.189 6.531-.553 9.797-.241 2.083-1.009 4.107-1.517 6.165-.924 3.703-3.711 5.002-7.083 5.224a45.29 45.29 0 0 1-21.481-3.357 93.837 93.837 0 0 1-7.623-3.683c-2.116-1.136-2.383-1.992-1.823-4.389a27.335 27.335 0 0 1 5.982-11.402c2.604-3.109 5.078-6.342 7.207-9.013.293-2.357.572-4.016.696-5.682.241-3.173.527-6.354.547-9.534.032-4.69-.215-9.385-.234-14.081 0-3.265.143-6.531.26-9.796a8.87 8.87 0 0 1 .449-1.711l4.101-.451c.404-2.442.82-4.95 1.231-7.451 1.666-10.214 3.293-20.435 5.012-30.643a174.385 174.385 0 0 0 2.558-21.336c.319-7.249.384-14.511.449-21.773a13.44 13.44 0 0 0-.742-4.128 41.282 41.282 0 0 1-1.809-10.697l-.117-2.168ZM383.1 58.743c-.86-.351-1.667-.651-2.461-.996-3.627-1.538-4.298-5.127-1.459-7.817a14.702 14.702 0 0 1 1.647-1.303 5.867 5.867 0 0 0 2.559-5.21c-.043-1.764-.091-3.532-.143-5.303-.104-3.257 0-6.514 1.003-9.7.051-.402.051-.809 0-1.211-.749-.189-1.491-.365-2.227-.567-2.995-.834-3.783-3.179-1.869-5.647a9.766 9.766 0 0 1 4.454-3.257 13.839 13.839 0 0 0 5.71-3.7 7.448 7.448 0 0 1 4.154-2.196 11.598 11.598 0 0 0 5.795-3.002c.325-.3.651-.567 1.028-.84 2.742-2.157 5.665-2.606 8.907-1.14 1.993.918 4.063 1.68 6.114 2.449a4.488 4.488 0 0 0 1.804.267c4.499-.333 8.275 1.485 11.804 3.96a25.096 25.096 0 0 1 6.908 7.25c1.446 2.32 2.748 4.736 4.018 7.165 2.122 4.033 2.311 8.312 1.198 12.631a62.429 62.429 0 0 1-2.605 8.038 21.65 21.65 0 0 0-1.849 7.934 9.78 9.78 0 0 1-3.906 7.726c.787 3.42 1.575 6.84 2.337 10.174.637.231 1.241.544 1.797.932 1.706 1.602 3.75 1.778 5.925 1.654 6.075-.345 12.156-.703 18.231-.977a50.227 50.227 0 0 1 7.409 0c4.376.443 7.703 2.834 10.359 6.247 2.657 3.414 4.265 7.504 5.893 11.517a1160.134 1160.134 0 0 0 7.982 19.333c.925 2.189 2.123 4.267 3.204 6.391 1.08 2.123.931 2.774-.788 4.403-.703.651-1.439 1.303-2.162 1.954 1.244 9.185 2.422 18.278 4.909 27.144a39.49 39.49 0 0 1 1.107 5.712c.612 4.814-1.302 8.631-4.916 11.66a32.375 32.375 0 0 1-9.336 5.459c-.983.378-1.954.788-2.911 1.179-.833 1.85-.696 3.707-.482 5.543.32 2.808.821 5.589 1.107 8.397.193 1.754.23 3.522.111 5.283-.091 1.185-.605 2.332-.99 3.739.456.755 1.081 1.719 1.641 2.716 2.461 4.377 4.122 8.996 3.796 14.116a21.654 21.654 0 0 1-.651 4.436c-1.237 4.507-4.148 7.348-8.829 8.051a187.413 187.413 0 0 1-12.605 1.544c-4.395.384-8.816.508-13.224.749-2.116.111-4.219.111-6.439-.827-.573 4.787-1.198 9.399-1.654 14.037-.56 5.622-1.074 11.25-1.433 16.891-.39 6.169-.651 12.376-.84 18.526-.188 6.149-.312 12.539-.423 18.812-.143 7.875.716 15.698 1.302 23.535.17 2.286.202 4.559.293 6.878.105 2.558.204 5.118.3 7.68.033.704.046 1.414.046 2.117a3.144 3.144 0 0 1-2.162 3.257c-.899.339-1.745.808-2.754 1.303.612 3.739 1.087 7.413 1.888 11.015.286 1.303 1.348 2.443 2.051 3.655a48.296 48.296 0 0 1 2.604 4.559 15.121 15.121 0 0 0 6.049 7.166c2.604 1.602 5.124 3.446 7.631 5.25 5.365 3.869 5.808 8.129 1.165 12.832a69.332 69.332 0 0 1-14.037 10.69 15.788 15.788 0 0 1-6.817 1.954 6.785 6.785 0 0 1-5.365-1.785 9.607 9.607 0 0 1-1.303-1.303c-3.32-4.449-6.009-9.119-6.055-14.943 0-1.674-.228-3.348-.26-5.028a12.742 12.742 0 0 0-1.954-6.514c-1.777-2.925-1.875-3.524-1.686-6.983l-7.162-13.028c-1.25.15-2.285.286-3.327.391a3.377 3.377 0 0 1-3.633-2.033 89.412 89.412 0 0 1-9.454-26.863 177.46 177.46 0 0 1-2.377-27.15c-.078-4.234.293-8.468.189-12.716-.13-5.282-.384-10.578-1.738-16.076-.487.384-.944.805-1.368 1.257-2.441 3.14-4.766 6.371-7.298 9.432-2.012 2.437-4.259 4.671-6.349 6.931l-3.053-.241a30.733 30.733 0 0 0-4.285 6.514c-1.217 2.729-2.669 5.335-3.561 8.227a13.393 13.393 0 0 1-4.108 6.097 49.12 49.12 0 0 0-10.867 13.901 21.6 21.6 0 0 1-5.561 6.683 7.998 7.998 0 0 1-7.207 1.551 27.84 27.84 0 0 1-12.371-6.364 41.752 41.752 0 0 1-8.171-10.019c-1.661-2.82-1.264-5.335.651-7.817a21.606 21.606 0 0 1 9.987-7.165c1.739-.651 3.503-1.199 5.274-1.752a14.705 14.705 0 0 0 7.162-4.788c1.4-1.707 2.735-3.465 4.05-5.244a9.077 9.077 0 0 1 3.34-2.931 5.092 5.092 0 0 0 1.856-1.759c1.556-2.345 3.015-4.755 4.558-7.237-1.062-1.609-2.82-2.859-3.256-4.742 3.067-6.84 6.14-13.471 9.031-20.193 4.121-9.556 7.93-19.255 12.202-28.746 4.557-10.058 9.408-19.965 14.207-29.906 1.035-2.136 2.363-4.123 3.6-6.253-4.694-7.478-6.511-15.842-7.344-24.551-.573-5.954.104-11.823.436-17.724.163-2.906.547-5.804.651-8.716a46.659 46.659 0 0 0-1.751-14.422 359.98 359.98 0 0 0-2.038-7.133 3.757 3.757 0 0 1 0-3.042c.449.371.989.593 1.126.958 2.103 5.641 4.043 11.367 4.382 17.398.183 4.499.09 9.004-.28 13.491-.697 10.162-1.179 20.284 1.426 30.283a53.652 53.652 0 0 0 4.623 11.725c.509-.317.994-.672 1.452-1.062 3.841-3.745 8.581-5.426 13.77-6.142 6.401-.886 12.658-.163 18.882 1.492 2.885.768 5.821 1.361 8.556 1.986 2.91-1.576 5.658-2.977 8.321-4.52 3.131-1.811 6.218-3.7 9.278-5.635 3.731-2.364 7.364-4.885 11.127-7.165 2.605-1.609 5.417-2.958 8.139-4.417.651-.371 1.387-.703 2.096-1.068-2.135-7.322-2.741-14.708-3.17-22.108-.248-4.234-.261-8.468-.554-12.703-.325-4.559-.853-9.119-1.302-13.679-.091-1.009-.469-2.065.234-3.055 1.062 0 1.14.782 1.237 1.433.534 3.401 1.14 6.794 1.491 10.214.352 3.42.495 6.696.58 10.051a165.022 165.022 0 0 0 2.722 27.359c.097.508.266 1.003.449 1.667l3.965-.423c-.417.651-.56 1.036-.84 1.237-.446.281-.928.5-1.432.652a71.549 71.549 0 0 0-14.976 7.817c-2.357 1.556-4.766 3.042-7.077 4.67a133.702 133.702 0 0 1-15.268 9.022c-.651.352-1.303.749-2.077 1.172l15.997 6.078c5.209-2.554 11.069-4.202 16.877-6.012 2.357-.73 4.766-1.303 7.162-1.955 4.356-1.25 8.464-2.99 12.097-5.804a22.593 22.593 0 0 0 2.735-2.494 8.795 8.795 0 0 0 2.539-7.009 39.465 39.465 0 0 0-.931-6.26 143.788 143.788 0 0 1-4.558-25.789 5.308 5.308 0 0 0-.26-.918c-4.994 3.055-9.858 6.214-16.278 7.25.606-.834.788-1.342 1.146-1.538a36.59 36.59 0 0 1 3.809-1.83 49.757 49.757 0 0 0 13.458-8.325c.404-.339.873-.612 1.244-.873a8.78 8.78 0 0 0-.417-1.303c-4.557-8.123-7.865-16.773-11.16-25.443-1.438-3.804-2.903-7.582-5.208-10.963-3.106-4.501-7.28-6.827-12.801-6.547-4.232.215-8.464.522-12.69.697-3.796.163-7.592.183-11.388.3-1.855.052-3.359-.755-4.837-2.032-.371.703-.651 1.224-.925 1.765-3.164 6.866-12.566 11.243-20.184 8.468-4.069-1.492-6.569-2.742-11.303-6.514-3.659 2.208-7.813 2.75-12.039 3.172-1.406.144-2.799.398-4.18.652a16.277 16.277 0 0 0-9.89 6.195 38.694 38.694 0 0 0-4.056 6.194c-2.422 4.801-4.61 9.726-6.889 14.605-.775 1.667-1.53 3.348-2.305 5.028l-6.641.73c-.404 1.205-.742 2.378-1.185 3.511-.703 1.804-1.38 3.628-2.24 5.361a4.263 4.263 0 0 1-3.216 2.606c-1.999-.424-2.279-2.176-2.859-3.948-1.145 2.853-1.217 5.745-1.725 8.546-.312 1.733-.619 3.472-1.061 5.179-.345 1.303-.43 1.303-1.908 2.417-1.615-.215-2.057-1.557-2.344-2.814a42.555 42.555 0 0 1-.723-5.212 15.38 15.38 0 0 0-.358-3.257c-.39 1.134-.768 2.267-1.165 3.401-.489 1.413-.951 2.846-1.504 4.24a7.503 7.503 0 0 1-1.153 2.059c-1.035 1.211-2.689.912-3.092-.619a31.66 31.66 0 0 1-.547-4.403l-2.129 1.628a6.633 6.633 0 0 1-1.257-1.303 4.345 4.345 0 0 1-.189-3.609 23.193 23.193 0 0 1 1.953-4.325 63.229 63.229 0 0 1 11.857-13.835 17 17 0 0 1 7.644-4.039c2.78-.619 5.437.13 8.113.573 1.907.306 3.789.782 5.925 1.231.41-.833.787-1.596 1.158-2.364 1.999-4.13 3.959-8.28 6.01-12.377a40.555 40.555 0 0 1 2.468-4.078c4.011-6.13 9.766-9.25 17-9.77 3.959-.294 7.872-.893 11.674-2.606-.345-2.182-.651-4.351-1.042-6.514 0-.143-.214-.254-.416-.475-1.263.43-2.566.898-3.907 1.302-4.375 1.4-10.092-1.185-12.175-4.911a36.098 36.098 0 0 1-2.423-5.863 28.36 28.36 0 0 1-.748-3.94Z" fill="#321639"/><path d="M404.305 83c.547.1 1.077.28 1.572.535 1.167.829 2.281 1.745 3.382 2.674a16.403 16.403 0 0 0 9.051 3.731c1.85.194 3.701.348 5.69.528-.139 1.043-1.054 1.103-1.731 1.224-4.111.729-8.097.214-11.611-2.073-2.235-1.457-4.151-3.41-6.187-5.168a2.736 2.736 0 0 1-.471-.896l.305-.555ZM436 82.098c-.196 1.873-1.409 3.273-4.84 5.17-1.54.844-3.007 2.203-5.16 1.569.072-.318.052-.551.143-.599a75.476 75.476 0 0 0 9.381-6.212c.085-.078.313.042.476.072Z" fill="#321639"/><path d="M121.927 84.111c.904 2.33 1.705 4.378 2.492 6.427a20.49 20.49 0 0 0 7.346 9.501c5.954 4.3 16.32 3.119 19.846-5.834.384-.972.801-1.957 1.302-3.112 1.241.242 2.468.549 3.676.92 10.457 3.824 21.226 6.525 32.021 9.135 7.463 1.801 14.244 5.142 20.692 9.233 1.262.796 2.512 1.618 3.95 2.545-.898 1.527-.957 3.008.748 4.385-4.256.208-8.173.489-12.09.567-6.181.124-12.363.098-18.538.176-1.672 0-3.345.203-5.017.261-1.223.046-2.453 0-3.722 0-1.432-1.957-1.074-4.45-2.069-6.459-1.158-.079-1.302.75-1.23 1.402.112 1.319.319 2.627.618 3.915.527 2.323 1.197 4.62 1.711 6.95 1.588 7.229.495 14.244-1.867 21.128-.976 2.838-2.089 5.631-3.162 8.437a31.76 31.76 0 0 0-2.356 12.691 13.98 13.98 0 0 1-.117 1.416 10.249 10.249 0 0 1-1.353-.157c-8.03-2.055-16.034-4.221-23.582-7.725-3.683-1.703-7.268-3.609-10.892-5.449a3.03 3.03 0 0 1-1.302-.894c-1.151-1.957-3.064-3.151-4.646-4.678a16.434 16.434 0 0 1-2.427-2.786 35.118 35.118 0 0 1-5.889-15.745c-.566-5.449-1.015-10.91-1.568-16.365-.436-4.339-1.366-8.561-3.435-12.443-.56-1.051-1.009-2.239-2.603-2.995a11.3 11.3 0 0 0 .351 1.957c1.302 3.263 2.779 6.525 3.254 10.075.449 3.68.891 7.367 1.269 11.06.455 4.391.416 8.835 1.49 13.161a43.015 43.015 0 0 0 4.236 10.544 19.965 19.965 0 0 0 5.316 6.192c1.021.79 1.952 1.71 3.071 2.702-.612.828-1.034 1.481-1.535 2.055a1826.043 1826.043 0 0 1-9.397 10.806c-3.175 3.615-4.951 3.804-8.725.763a36.984 36.984 0 0 1-4.64-4.339c-8.713-9.99-16.007-20.88-20.822-33.343-2.316-6.01-3.683-12.195-3.253-18.668a35.831 35.831 0 0 1 8.517-21.017c3.006-3.615 7.197-4.972 11.621-5.73a64.854 64.854 0 0 1 13.45-.684c2.974.11 5.974.02 9.26.02Z" fill="#D5385B"/><path d="M214 248.969A116.93 116.93 0 0 1 184.667 269c-.601-.689-1.131-1.255-1.615-1.854-7.196-8.897-13.162-18.594-19.455-28.083-2.251-3.382-4.37-6.855-6.575-10.269a108.98 108.98 0 0 1-11.65-24.578c-.314-.93-.308-2.107-1.714-2.816a5.958 5.958 0 0 0-.157 1.795c.602 2.212 1.308 4.39 1.962 6.582.282.911.589 1.808.87 2.647a5.16 5.16 0 0 1-.726.683c-7.196 3.948-13.528 9.053-20.056 13.924-3.69 2.751-7.392 5.496-11.2 8.072a38.373 38.373 0 0 1-11.729 5.515c-9.38 2.458-17.335-.254-24.093-6.816A26.256 26.256 0 0 1 71 218.798c.49-.091.981-.215 1.478-.26a17.341 17.341 0 0 0 7.72-2.699c4.278-2.7 7.594-6.348 10.466-10.406a126.256 126.256 0 0 1 13.698-16.565c3.356-3.376 7.006-6.504 10.617-9.606a30.556 30.556 0 0 1 4.207-2.758c1.36-.826 2.773-1.567 4.428-2.504l2.473.904c7.68 2.725 15.347 5.476 23.033 8.175 5.456 1.912 11.121 2.849 16.832 3.707 4.461.651 8.955 1.164 13.43 1.756.876.117 1.74.326 2.793.521 1.642 2.933 3.336 5.925 5.011 8.923 4.252 7.635 8.439 15.31 12.769 22.899a277.474 277.474 0 0 1 12.998 25.456c.327.8.654 1.619 1.047 2.628Z" fill="#7C6B58"/><path d="M125 325.708c.084-1.159.084-1.953.199-2.715a2285.804 2285.804 0 0 1 3.994-25.346c.842-5.132 1.878-10.231 2.707-15.369a160.971 160.971 0 0 0 2.09-28.738c0-.971-.038-1.954 0-2.918a45.715 45.715 0 0 0-1.517-13.357 31.129 31.129 0 0 1-1.1-11.07L146.859 215c.353.497.671 1.02.952 1.563a98.21 98.21 0 0 0 7.64 14.431 2507.792 2507.792 0 0 0 18.296 28.394 7.105 7.105 0 0 1 1.112 5.444c-1.054 6.857-3.595 13.252-5.743 19.771a7530.235 7530.235 0 0 0-13.048 39.966c-.56 1.732-.945 3.529-1.447 5.431L125 325.708Z" fill="#7C6B58"/><path d="M122.352 69c-7.511-6.479-12.243-14.162-12.86-23.939-.1-2.642.306-5.28 1.196-7.774a46.785 46.785 0 0 1 8.95-15.432 6.966 6.966 0 0 0 1.544-2.56c-.44.13-1.019.136-1.314.421-1.479 1.504-2.957 3.026-4.298 4.652-1.012 1.218-1.814 2.592-2.826 4.082-2.168.22-4.048-.648-5.802-1.911a5.88 5.88 0 0 1-1.144-1.102 16.705 16.705 0 0 1-3.164-6.03 16.57 16.57 0 0 1-.483-6.772c.611-5.28 3.838-8.52 8.964-9.964a16.192 16.192 0 0 1 8.956-.078c5.435 1.542 8.543 5.08 9.312 10.723-1.518 1.295-3.765 1.6-5.257 3.537a6.342 6.342 0 0 0 1.61 0 26.088 26.088 0 0 0 3.47-1.341A21.775 21.775 0 0 1 141.98 13.4c6.099.758 11.829 2.481 16.751 6.284 2.898 2.242 5.001 5.002 5.796 8.59.243 1.09.282 2.23.473 3.888-2.405-2.047-3.733-4.697-6.571-5.125-.512.068-.996.27-1.401.586a2.82 2.82 0 0 0-.899 1.209c-.368.803-.717 1.607-1.111 2.397a27.096 27.096 0 0 1-11.52 11.746c-2.484 1.373-3.456 1.503-6.571 1.257a96.707 96.707 0 0 1-1.314-1.07 3.896 3.896 0 0 0-2.534-1.023 3.896 3.896 0 0 0-2.585.888 6.351 6.351 0 0 0-2.512 4.05 6.294 6.294 0 0 0 1.033 4.638c.355.492.795.926 1.314 1.503A32.45 32.45 0 0 1 122.352 69Z" fill="#E0A732"/><path d="M172 50.559c-.291.606-.625 1.19-1 1.746a8.947 8.947 0 0 0-1.954 5.362c-.09 1.85-.25 3.7-.346 5.551a9.508 9.508 0 0 1-1.417 4.9 9.296 9.296 0 0 1-3.73 3.42 29.091 29.091 0 0 1-10.895 3.48 5.699 5.699 0 0 1-4.146-1.148c-1.282-.899-2.378-2.065-4.185-2.534.051 2.248 1.801 2.932 3.025 3.955a6.38 6.38 0 0 0 4.569 1.596c.039.404.148.684.071.892-1.282 3.558-1.128 7.239-1.224 10.953 0 2.007-.537 3.977-1.553 5.698A10.976 10.976 0 0 1 145 98.504c-3.723 2.118-7.505 1.955-11.138-.286a16.345 16.345 0 0 1-6.358-7.2c-1.128-2.482-2.288-4.958-3.243-7.512a6.204 6.204 0 0 1-.121-3.088c.534-3.393.556-6.849.064-10.248 4.21-4.463 6.498-10.138 7.966-16.047 1.147-.84 2.781-.652 3.243-2.606l-3.134.462c-2.756-1.7-3.416-4.56-1.577-6.815 1.179-1.446 2.359-1.707 3.807-.547 2.23 1.779 4.64 1.955 7.126.945 6.73-2.658 11.402-7.571 14.58-14.054.417-.847.821-1.707 1.199-2.508 1.538.04 2.294.984 2.935 1.876 1.89 2.607 3.993 5.082 4.691 8.405.381 1.55.863 3.074 1.442 4.56 1.025 2.822 2.326 5.48 5.518 6.718Z" fill="#F8F3DD"/><path d="m116.172 170.563 5.828 2.759c-.117.261-.131.391-.189.417-6.187 2.558-10.997 7.009-15.709 11.533a128.136 128.136 0 0 0-15.01 17.448c-1.553 2.148-3.146 4.27-4.83 6.307a26.551 26.551 0 0 1-7.812 6.332 11.623 11.623 0 0 1-8.007 1.458 41.557 41.557 0 0 1-2.683-9.665c-1.958-12.515-.228-24.38 6.279-35.463 2.5-4.25 4.646-8.715 6.715-13.192 2.069-4.478 2.95-9.223 3.46-14.071.136-1.302.306-2.604.521-4.426.653 1.009 1.07 1.608 1.416 2.252a119.936 119.936 0 0 0 13.764 20.065c1.534 1.822 3.263 3.501 4.941 5.174a26.921 26.921 0 0 0 2.858 2.362c2.617 1.953 5.378 2.649 8.458.71Z" fill="#D5385B"/><path d="M140.314 392c-4.496-6.843-11.029-8.851-18.503-9.009-3.821-.086-7.499.836-11.23 1.415-1.083.165-2.193.191-3.581.31.993-3.135 2.66-5.4 4.431-7.62 1.771-2.219 3.536-4.445 5.19-6.757 1.116-1.561 2.251-3.115 2.011-5.334-.11-.962.649-1.976.896-3.037.947-4.307.966-8.66.824-13.053-.234-7.126-.24-14.265-.344-21.325a17.264 17.264 0 0 1 6.688-.448 4959.16 4959.16 0 0 0 21.41 3.135c3.205.468 6.409.903 9.536 1.317.597.988.325 1.864.059 2.701-.986 3.141-1.875 6.329-3.049 9.398-3.063 7.982-6.261 15.911-9.407 23.854a20.51 20.51 0 0 1-1.298 2.937c-1.946 3.201-2.044 6.724-2.115 10.327-.058 3.016-.493 6.026-.824 9.035-.16.74-.392 1.461-.694 2.154Z" fill="#91B658"/><path d="M117 169.667 128.907 156c.443.188 1.159.44 1.83.789 5.706 2.977 11.451 5.876 17.587 7.895 7.288 2.401 14.584 4.711 22.211 5.87 8.051 1.223 16.115 2.038 24.256 1.249a53.2 53.2 0 0 0 6.462-1.295 52.198 52.198 0 0 1 5.165-1.048c-3.055 2.174-6.552 3.384-10.356 4.905.775.298 1.302.68 1.771.647 2.456-.181 4.912-.388 7.348-.731 1.739-.246 3.445-.757 5.171-1.094.847-.168 1.72-.213 3.133-.381-.697.731-.951 1.203-1.335 1.372a39.64 39.64 0 0 1-4.436 1.701c-3.015.893-6.07 1.664-9.119 2.485.463.926 1.362.932 2.228.855 2.81-.238 5.617-.507 8.422-.809a13.33 13.33 0 0 1 4.755 0c-2.097 2.543-6.963 3.643-12.376 2.976a8.98 8.98 0 0 1-8.826-.239c-2.045-1.184-4.11-1.398-6.911-.705.984.394 1.479.744 1.955.763a8.664 8.664 0 0 1 4.442 1.508 8.984 8.984 0 0 0 5.562 1.333c1.225-.091 2.456 0 3.615 0 .541.964-.032 1.43-.592 1.857-1.707 1.295-3.791 1.327-5.784 1.599-6.514.88-13.028.504-19.541-.427-6.103-.874-12.278-1.495-18.238-2.874-5.732-1.294-11.321-3.326-16.877-5.3-6.474-2.297-12.851-4.879-19.26-7.364-1.244-.543-2.508-1.145-4.169-1.87ZM250.684 130.23c-1.559-.748-2.099-2.094-2.599-3.406-.5-1.312-.942-2.896-1.482-4.321-.331-.888-.5-1.928-1.624-2.518-1.183 1.107-1.43 2.538-1.397 4.069.084 4.042.194 8.085.272 12.127a5.038 5.038 0 0 1-.552 2.651 11.346 11.346 0 0 1-.65-1.537 69.033 69.033 0 0 1-2.066-11.929 17.318 17.318 0 0 0-.546-3.174 22.915 22.915 0 0 0-1.391-2.916c-.448.888-.825 1.325-.877 1.796a26.772 26.772 0 0 0-.28 4.553 79.417 79.417 0 0 1-.247 13.452c-.11 1.054-.097 2.148-1.202 2.923-1.3-1.69-1.624-3.652-1.819-5.567-.429-4.195-.683-8.409-1.047-12.591a15.657 15.657 0 0 0-.539-3.161c-.143-.477-.741-.809-1.501-1.591-.306 1.617-.611 2.724-.702 3.851-.26 3.22-.41 6.454-.65 9.675a71.1 71.1 0 0 1-.572 5.083 15.694 15.694 0 0 1-.851 2.406 7.592 7.592 0 0 1-.955-1.816 71.99 71.99 0 0 1-1.04-7.442c-.176-3.042 0-6.11-.078-9.159a48.117 48.117 0 0 0-.65-5.878c-.234-1.458-.448-1.637-1.95-3.055-.968.523-2.04 1.073-3.086 1.67a7.54 7.54 0 0 1-5.082 1.146 6.683 6.683 0 0 1-1.521-.702 8.99 8.99 0 0 1 1.066-1.617 19.61 19.61 0 0 1 2.684-2.18 49.574 49.574 0 0 0 10.54-9.325c3.9-4.506 6.921-4.924 12.276-1.385a10.423 10.423 0 0 1 3.984 5.236c2.151 5.792 4.334 11.57 6.466 17.369.404 1.089.7 2.217.884 3.367a4.093 4.093 0 0 1-.085 2.118 4.02 4.02 0 0 1-1.131 1.778Z" fill="#F8F3DD"/><path d="M229 333.845c.464-.354.948-.68 1.452-.975 11.439-5.81 20.234-14.582 27.91-24.53 5.312-6.894 10.137-14.124 13.867-22.012 1.569-3.324 3.067-6.674 3.685-10.328 1.732.852 1.732.852 3.086 2.84a28.88 28.88 0 0 1-3.346 10.329 73.528 73.528 0 0 1-8.132 11.619c-4.557 5.371-9.114 10.728-13.776 15.976a71.878 71.878 0 0 1-21.797 16.435c-.801.381-1.569 1.123-2.949.646ZM110 386.388c5.37-.793 10.521-1.93 15.858-1.095 5.338.834 9.847 3.031 13.142 7.039-6.674 2.184-22.391-1.297-29-5.944Z" fill="#91B658"/><path d="M105 388.453c.318-.852.582-1.562.907-2.453 10.206 6.312 21.074 9.559 33.093 8.39 0 1.207-.781 1.336-1.489 1.356-3.31.103-6.619.381-9.928.187-7.83-.452-14.945-3.227-21.756-6.854a7.77 7.77 0 0 1-.827-.626Z" fill="#91B658"/><path d="M204.222 184.916c-.068-.582-.136-1.165-.222-1.916h9c-1.968 1.503-5.502 2.266-8.778 1.916Z" fill="#fff"/><path d="M480.185 199.544c.869 1.614 1.757 3.254 2.613 4.875a26.927 26.927 0 0 1 3.128 10.05 16.148 16.148 0 0 1-1.391 8.259 7.514 7.514 0 0 1-1.985 2.786 7.552 7.552 0 0 1-3.018 1.621c-1.519.48-3.081.811-4.664.989-7.584.651-15.167 1.237-22.764 1.673-4.422.26-4.396.097-5.996-3.905-1.744-4.361-3.756-8.599-7.362-11.807-1.306-1.153-2.756-2.116-4.226-3.255l4.252-4.263c-.992.071-1.613-.052-2.011.182a14.475 14.475 0 0 0-2.953 2.226 101.069 101.069 0 0 0-7.139 7.811c-8.675 11.169-16.983 22.605-24.266 34.757-2.397 4.003-5.193 7.778-7.923 11.573a688.653 688.653 0 0 1-11.34 15.328 60.236 60.236 0 0 1-4.239 4.556c-1.509-.716-2.9-1.263-4.181-1.998-4.141-2.369-8.295-4.732-12.338-7.258a23.289 23.289 0 0 1-6.382-6.326c1.705-3.541 3.423-7.01 5.056-10.512a451.662 451.662 0 0 0 5.676-12.542c.908-2.096 1.581-4.296 2.423-6.431 6.389-16.188 14.109-31.783 21.712-47.423a49.376 49.376 0 0 1 3.613-6.164c3.657-5.377 8.922-8.058 15.304-8.956 6.532-.925 12.861-.118 19.184 1.51 5.474 1.412 11.104 2.297 16.395 4.334a310.386 310.386 0 0 1 10.086 4.068 22.894 22.894 0 0 1 3.174 1.901c1.999 1.302 3.919 2.669 5.983 3.905a232.498 232.498 0 0 0 8.524 4.869c2.254 1.211 4.566 2.304 7.055 3.567Z" fill="#91B658"/><path d="M433.005 213c3.618 1.245 5.699 3.678 7.542 6.292A37.478 37.478 0 0 1 445 228.23a183.709 183.709 0 0 0-2.737 21.756c-.371 6.051-1.14 12.077-1.478 18.129-.437 7.992-.662 15.989-.921 24a211.8 211.8 0 0 0 .709 22.923c.59 7.784.848 15.626 1.239 23.442a17.561 17.561 0 0 1-.132 2.037c-9.941 3.963-19.795 8.166-30.69 9.483-.374-.406-.715-.84-1.02-1.297a86.961 86.961 0 0 1-10.159-31.485 210.507 210.507 0 0 1-1.551-28.158c.033-4.917-.212-9.84-.557-14.744-.185-2.523-.868-5.014-1.325-7.524-.106-.597-.245-1.187-.378-1.816.232-.402.424-.798.663-1.161 4.771-7.246 9.516-14.504 14.327-21.723 2.108-3.166 4.268-6.305 6.534-9.367 3.533-4.774 7.144-9.483 10.789-14.179 1.471-1.881 3.082-3.652 4.692-5.546Z" fill="#91B658"/><path d="M417.544 46.14a9.546 9.546 0 0 0 1.265-1.588c.388-.681.63-1.432.712-2.207a3.648 3.648 0 0 0-.428-2.166 3.758 3.758 0 0 0-1.608-1.545c-1.548-.807-2.991-.349-4.21.645a24.134 24.134 0 0 0-2.273 2.582 6.69 6.69 0 0 1-1.021-1.362c-.369-.89-.58-1.84-.876-2.75-.607-1.884-1.878-2.923-3.954-2.942a11.527 11.527 0 0 0-1.317 0 3.466 3.466 0 0 1-2.325-.44 3.35 3.35 0 0 1-1.47-1.819c-1.509-3.472-4.349-4.93-8.064-5.02a12.71 12.71 0 0 1-5.831-1.685 42.791 42.791 0 0 0-4.942-1.936c-.5-.929 0-1.71.712-2.245a15.728 15.728 0 0 1 3.584-2.227 14.233 14.233 0 0 0 5.785-3.652 6.756 6.756 0 0 1 3.953-2.072 12.348 12.348 0 0 0 6.088-3.11c.329-.297.658-.562 1.021-.852a6.237 6.237 0 0 1 3.553-1.699 6.298 6.298 0 0 1 3.879.757c.718.348 1.429.722 2.167 1.026 1.977.806 3.953 1.658 6.154 1.58 4.032-.141 7.491 1.395 10.693 3.582a21.89 21.89 0 0 1 6.16 6.144 102.318 102.318 0 0 1 4.744 8.202c1.449 2.8 1.541 5.892 1.001 8.983a37.731 37.731 0 0 1-2.774 9.035c-1.087 2.413-2.009 4.86-1.93 7.563 0 .516-.204 1.04-.217 1.562-.159 5.93-6.925 8.105-10.931 7.382a4.654 4.654 0 0 1-1.928-.88 4.54 4.54 0 0 1-1.32-1.636c-1.232-2.22-2.424-4.479-3.439-6.796a9.91 9.91 0 0 1-.567-3.336c-.112-1.6-.046-3.175-.046-5.079Z" fill="#321639"/><path d="M385.917 29c2.576.416 4.927.878 7.305 1.15a5.68 5.68 0 0 1 2.742.992 5.586 5.586 0 0 1 1.87 2.213c.243.468.461.956.724 1.417a4.513 4.513 0 0 0 1.694 1.796 4.588 4.588 0 0 0 2.397.648c3.84.13 3.814.182 4.96 3.693.274.923.689 1.8 1.232 2.6 1.245 1.69 2.925 1.638 4.183-.04.323-.422.54-.916.857-1.338.54-.728 1.179-1.34 2.193-1.261 1.897 1.735 1.858 1.995-.777 5.395.174 1.354.269 2.717.283 4.082-.138 2.977.171 5.779 2.036 8.294.619.826.856 1.95 1.317 2.893 1.904 4.251 5.132 5.89 9.73 4.927 1.113-.234 2.22-.52 3.379-.793L435 76.953a9.37 9.37 0 0 1-2.707 4.218c-4.46 4.18-9.546 6.02-15.685 4.018a30.327 30.327 0 0 1-9.394-4.947 4.304 4.304 0 0 1-1.192-1.24 4.247 4.247 0 0 1-.606-1.6c-.336-2.165-.817-4.31-1.245-6.501.698-1.554 3.004-2.308 2.477-4.882a169.886 169.886 0 0 1-4.256 3.465 10.161 10.161 0 0 1-6.904 2.412 9.439 9.439 0 0 1-4.482-1.13 9.288 9.288 0 0 1-3.383-3.115 14.692 14.692 0 0 1-2.299-5.85c-.072-.436-.105-.872-.165-1.3-.27-2.113-1.225-3.55-3.524-4.09-1.779-.415-1.818-.65-2.635-2.651.099-1.359.995-2.23 2.062-2.9 3.294-2.086 4.413-5.135 4.157-8.853-.224-3.334-.659-6.676.046-10.01l.652-2.997Z" fill="#7C6B58"/><path d="M321.03 306.099c.708.71 1.22 1.147 1.646 1.649a36.39 36.39 0 0 0 11.546 9.242 30.928 30.928 0 0 1 4.592 2.698c1.621 1.212 3.051 2.672 4.559 4.028.617.561.958 1.564 2.303 1.264-.059-.469.059-1.075-.197-1.381-1.115-1.362-2.171-2.862-3.562-3.911a58.16 58.16 0 0 0-7.419-4.66c-4.396-2.327-7.971-5.579-11.244-9.216a8.828 8.828 0 0 1-.656-1.004c1-1.445 2.251-2.703 3.693-3.715a23.138 23.138 0 0 1 6.862-3.461c1.351-.436 2.709-.841 4.067-1.251a17.055 17.055 0 0 0 8.659-5.866c1.267-1.597 2.395-3.292 3.628-4.908.656-.886 1.456-1.701 2.224-2.607 5.779 2.281 10.877 4.901 13.324 10.872.656 1.675 1.83 3.161 2.945 5.025-1.345 1.988-2.926 4.334-5.091 6.165-4.06 3.435-7.091 7.613-9.702 12.188a43.208 43.208 0 0 1-4.645 6.427c-1.869 2.216-4.224 2.796-7.216 1.955a28.166 28.166 0 0 1-10.955-5.774 39.877 39.877 0 0 1-8.036-9.49c-.708-1.186-1.522-2.379-1.325-4.269ZM434.815 398c-3.51-4.913-6.251-10.114-6.065-16.482a22.238 22.238 0 0 0-.256-5.011 29.601 29.601 0 0 0-1.736-4.946c-.327-.816-.859-1.54-1.23-2.33a4.55 4.55 0 0 1 .833-5.37 9.58 9.58 0 0 1 4.823-3.001c3.017-.731 6.085-1.227 9.326-1.86.775 1.214 1.518 2.277 2.145 3.406.506.92.878 1.918 1.281 2.884a14.703 14.703 0 0 0 5.541 6.525c2.773 1.808 5.464 3.745 8.16 5.67a8.975 8.975 0 0 1 3.363 3.922c-.405.38-.868.69-1.371.92-3.747.992-6.629 3.302-9.377 5.951-2.517 2.42-5.182 4.698-7.878 6.91a11.878 11.878 0 0 1-7.559 2.812Z" fill="#F8F3DD"/><path d="M344.729 137.318c-1.153.058-1.333-.481-1.48-1.143a28.048 28.048 0 0 1-.26-9.199c.167-1.357.547-2.741-.093-4.151-1.333 0-1.827.838-2.2 1.715a79.628 79.628 0 0 0-1.94 4.931c-.746 2.078-1.386 4.19-2.119 6.268a23.713 23.713 0 0 1-1.074 2.261 11.843 11.843 0 0 1-.226-6.412c.46-2.156 1.08-4.274 1.54-6.431.206-.981.2-2.007.346-3.598a65.423 65.423 0 0 1 7.159-7.451c3.733-3.177 7.839-4.95 12.939-3.71 2.426.598 4.926.916 7.679 1.41l-1.1 3.131h-4.319c-.16-.208-.42-.546-.667-.916-.353.221-.667.312-.767.507-.853 1.734-1.713 3.469-2.479 5.249-.627 1.455-1.06 2.988-1.727 4.43a18.343 18.343 0 0 1-1.693 2.514c-2.16-1.735-.98-4.391-2.353-6.165-1.333-.175-1.686.806-2.066 1.663a28.451 28.451 0 0 0-2 7.912c-.36 2.417-.78 4.827-1.1 7.185ZM436.992 345c.669 4.127 1.339 8.007 2.008 12.069-1.339.228-2.47.482-3.621.612-5.635.651-8.072 1.667-12.088 5.319-.983-1.999-1.874-3.965-2.911-5.859-1.037-1.894-2.256-3.763-3.38-5.612L436.992 345ZM358.568 274c5.473 3.268 10.893 6.477 16.432 9.771-1.202 1.804-2.575 3.641-3.697 5.621-1.122 1.981-1.98 4.111-3.182 6.608-1.202-2.255-2.159-4.196-3.261-6.052a13.737 13.737 0 0 0-4.872-4.856c-1.915-1.125-3.889-2.157-5.988-3.314a657.009 657.009 0 0 1 4.568-7.778Z" fill="#7C6B58"/><path d="M438 399.883c4.363-1.796 7.582-5.095 10.912-8.229a139.428 139.428 0 0 0 4.239-4.176c2.114-2.215 4.728-3.395 7.849-4.478a6.537 6.537 0 0 1-.52 1.728 15.819 15.819 0 0 1-2.497 3.203 366.144 366.144 0 0 1-11.705 9.456c-2.172 1.694-4.76 2.318-7.413 2.613a3.715 3.715 0 0 1-.865-.117Z" fill="#F8F3DD"/><path d="M334.984 125c-.173 3.018-1.38 5.484-2.917 8-.372-2.479.829-5.577 2.933-7.981l-.016-.019Z" fill="#7C6B58"/><path d="m336 124-1 1 .976-1H336Z" fill="#fff"/><path d="M150.069 48c0-.766-.156-1.356 0-1.742a8.927 8.927 0 0 1 3.557-3.905c2.723-1.689 5.55-1.824 7.374-.251-.476.285-.886.725-1.303.745-3.446.17-6.279 1.478-8.299 4.489-.195.291-.677.366-1.329.664ZM157.551 57c1.424 1.533 2.367 2.943 3.664 3.834 1.298.89 2.918 1.247 4.785 1.994-.671.514-1.044 1.027-1.494 1.111-2.848.533-7.037-2.547-7.499-5.49-.057-.331.259-.728.544-1.449ZM158.727 50a1.696 1.696 0 0 1-1.164-.458 1.808 1.808 0 0 1-.563-1.149c.036-.368.198-.71.456-.966.259-.255.597-.407.954-.427.397-.002.781.151 1.074.429.293.277.475.659.51 1.068a1.395 1.395 0 0 1-.321 1.034 1.33 1.33 0 0 1-.426.336c-.163.08-.34.126-.52.133ZM143 70.834c-1.131.51-1.816-.258-2.372-.956-.866-1.092-2.016-2.146-1.499-3.878 1.583.672 3.276 2.785 3.871 4.834ZM140 373.823a5.34 5.34 0 0 1-1.565.173 24.088 24.088 0 0 1-2.777-.921c-4.411-1.619-9.165-2.483-13.982-2.543-.863 0-1.82.24-2.676-.491.361-.973 1.338-1.073 2.328-1.034 2.348.089 4.683.156 7.031.436 3.341.381 6.573 1.261 9.54 2.598.843.357 1.833.642 2.101 1.782ZM388 62.22c1.766-1.002 3.551-1.962 5.251-2.983 1.699-1.02 2.284-3.223 4.502-4.237.105.555.328.949.217 1.241-.827 2.066-2.35 3.841-4.352 5.073-1.667 1.086-3.373 2.136-5.454 1.486l-.164-.58ZM395 37.397c-.431.221-.663.42-.855.431-2.276.078-4.549.135-6.82.172-.106 0-.219-.21-.325-.321 1.71-2.076 5.66-2.292 8-.282ZM394 45.966a2 2 0 1 1-3.998.068 2 2 0 0 1 3.998-.068ZM335 300.688c.57-.36.852-.655 1.141-.688a4.907 4.907 0 0 1 1.622.269c5.855 1.932 10.776 5.09 14.308 10.016.537.754 1.334 1.54.688 2.712-1.251.059-1.76-.877-2.323-1.624a27.607 27.607 0 0 0-8.447-7.206c-1.656-.957-3.436-1.691-5.188-2.529-.475-.262-1.024-.544-1.801-.95ZM345.015 298c1.288.406 2.487 1.125 3.518 2.111 1.032.986 1.873 2.216 2.467 3.609-1.084.798-1.679-.307-2.35-.856a22.155 22.155 0 0 1-2.156-2.084c-.633-.703-1.629-1.171-1.479-2.78ZM355 300c-2.848-.681-5.636-3.136-7-5.882.527 0 1.078-.232 1.371-.045 2.178 1.422 4.318 2.896 5.629 5.927ZM347.031 296a17.183 17.183 0 0 1 5.969 5.544c-1.306 1.023-1.992.078-2.679-.448-2.671-2.061-3.499-3.284-3.29-5.096ZM450 376.067c-.381 1.332-1.337 1.599-2.099 1.872-4.914 1.719-7.736 5.424-9.708 9.995-.247.58-.522 1.146-.816 1.699-.073.134-.307.174-.668.367-.234-.373-.475-.753-.709-1.146v-.267c.903-5.624 6.612-11.534 12.161-12.554a8.764 8.764 0 0 1 1.839.034ZM435 378.326a61.355 61.355 0 0 1 7.49-3.285 4.428 4.428 0 0 1 1.51.053c0 1.169-.955 1.438-1.697 1.753-1.904.871-3.695 2.035-5.947 2.146-.274.058-.568-.234-1.356-.667ZM435.078 374.95H433c1.039-2.303 3.667-4.147 7-4.95a9.232 9.232 0 0 1-1.091 1.65c-1.262 1.155-2.615 2.238-3.876 3.35l.045-.05Z" fill="#321639"/><path d="M435 374.86c1.574-.503 3.135-1.033 4.729-1.5A20.685 20.685 0 0 1 442 373c-1.666 1.641-4.063 2.714-6.699 3l-.241-1.177-.06.037Z" fill="#321639"/><path d="M231 332c-.82.873-2.762.613-3 2M438 178a9.564 9.564 0 0 0-1.098-.491c-.623-.196-1.266-.343-1.902-.509M433 177c-1.816-.834-3.797-1.074-5.721-1.509A8.59 8.59 0 0 1 426 175M424 175l-1-1M420 174h-2M413 174h-1M408 174a8.647 8.647 0 0 1-.732.982c-.415.392-.844.687-1.268 1.018M403 176l-2 1M380 211l-1 2M375 223l-1 1M356 266l-1 1M437 208c.534-.602 1.104-1.102 2-.982M130 226v2M132 241l1 1M438 76h-1M121 20h-1M118 23l-2 3M122 70l1 2M134 177a77.871 77.871 0 0 0 8.261 3.106c6.027 1.977 11.974 4.127 18.301 5.077 6.327.949 12.543 2.105 18.902 2.567.192.052.373.137.536.25M214 247c.331.665.663 1.335 1 2M235 287l1 1M120 176l3-3M70 219c.341.351.659.667 1 1M146 214h1M441 179c3.027.933 6.074 1.804 9 3M451 182l5 3M117 367c.086-.288 1.148-.214.63-.85-.519-.637.21-1.427.37-2.15M152 330l1 1M157 331h1M139 396l-2 1M368.615 298c1.063.869-.387 1.339-.615 2M320 307c.331-.664.669-1.328 1-2M246 123l2 4M250 130.417l.612.583a3.402 3.402 0 0 0 1.733-1.197 3.084 3.084 0 0 0 .627-1.937 10.324 10.324 0 0 0-1.33-5.866M251 120a56.8 56.8 0 0 1-2.578-7.908A11.266 11.266 0 0 0 248 111M247 109l-2-5M242 101c-1.025-.721-1.967-1.656-3.086-2.13-2.665-1.142-5.368-1.336-7.914.5M219 110l-3 1M214 114v1M214 115l1 2M218 116.752c1.993-.776 4.119-1.339 5.551-2.752 1.754.171 1.537 1.382 1.874 2.257.224.575.386 1.162.575 1.743M229 140c.675-.998 1.337-2.002 2-3M231 135v-3M231 127l1-2M109 99l1 2M136 158l4 2M143 161l1 1M146 162v1M148 163l3 1M155 165l2 2M160 167c.328.341.664.671 1 1M165 168v1M136 45h1M404 80l-3 1M364 116h-2M143 202c1.241.139.939 1.317 1.306 2.012.284.643.516 1.308.694 1.988M171 169v1M177 170l2 1M184 171h2M191 171h2M197 171a2055.49 2055.49 0 0 0 8.202-2.403c.631-.177 1.199-.398 1.798-.597M365 112l-1-1M362 111a10.925 10.925 0 0 0-1.098-.491c-.623-.196-1.266-.343-1.902-.509M332 134c.807-.475.8-2.056 2-1.998M150 15c-.799-.665-1.677-1.12-2.59-1.344-.474-.18-.942-.435-1.41-.656M134 13c-.352.184-.717.348-1.092.49-.622.197-1.272.344-1.908.51M129 15l-5 2M216 117c-.436.798-1.344.613-2 1M239 120v1M238 127v9M238 139c-.302 1.369-.2 3.279-1 4M236 143c-1.253-.884-1.263-2.709-1.602-4.281-.123-.575-.265-1.144-.398-1.719M234 134c-.341-.667-.671-1.333-1-2M233 127l-1-2M153 78l1-1M141 392l-2-1M438 344v1M458 384h-1M438 398l-1 1M275 272h-2M245 136v2M244.956 138.321c.264.977-.729 1.135-1.124 1.679-1.784-1.377-1.687-3.476-2.263-5.321-.18-.564-.375-1.121-.569-1.679M241 127c-.336-.663-.664-1.332-1-2M340 128c-.731 1.308-.942 2.845-1.427 4.264-.585 1.674-1.076 3.381-1.684 5.042a11.55 11.55 0 0 1-.965 1.694l-.924-.353M336 125c.692-.623 1.678-1.224.326-2M420 91h4M186 181c4.453 0 4.453 0 9 2M203 182h5M212.683 182l2.317.682c-.214 1.1-1.159 1.272-2.034 1.573a22.483 22.483 0 0 1-7.587 1.505c-.467.04-.929.121-1.379.24M202 186c-1.37.942-3.036 1.475-4.763 1.526-.763.082-1.514.241-2.237.474M192 188c-1.963.171-3.94.305-5.903.512-1.037.11-2.074.317-3.097.488M210 176l3-2M214 172.195c-1.179-.063-2.392-.28-3.538-.159-1.843.197-3.646.617-5.462.964M199 174h-2M339 301c-.889-.685-1.936-1.033-3-.997M349 123c-.337.332-.669.664-1 1M347 128v1M347 131l-1 1M346 135a973.512 973.512 0 0 0-1 4M135 52c-.663.8-2.16.47-3 1M422 363l1 1M353 127c-.702 2.106-1.333.274-2 0M161 42h-1M428 88l-1 1M212 182c.403-1.291 1.366-1.26 2-2M215 178l-2.636-.494L210 177M201 178h-2M359 273l-1 1M440 370c-.604 1.739-2.087 1.84-3 3M442 373l-4 2M348 297v1" stroke="#321639" stroke-width="1.49" stroke-linecap="round" stroke-linejoin="round"/></svg>