<svg width="88" height="107" viewBox="0 0 88 107" fill="none" xmlns="http://www.w3.org/2000/svg"><path d="m56.662 31.383.562-.312c1.349-.755 2.761-1.378 4.318-1.567 1.947-.234 3.9-.431 5.855-.59a15.486 15.486 0 0 0 4.343-.952c.392-.152.524-.323.423-.755-.545-2.3-.746-4.617-.23-6.957a.541.541 0 0 0-.148-.428c-1.396-1.357-1.501-2.385-.265-3.865a8.004 8.004 0 0 0 1.542-3.017c.168-.64.406-1.261.709-1.85.411-.767 1.04-1.33 2.097-1.195-.039-.822 0-1.616-.127-2.39a19.508 19.508 0 0 0-.679-3.14c-.506-1.526-1.476-2.778-3.039-3.434-3.405-1.427-6.717-1.279-9.741.9-2.118 1.526-3.58 3.59-4.594 5.924-1.336 3.068-1.897 6.31-2.002 9.6-.13 4.046.487 8.053.849 12.07.058.628.082 1.261.127 1.958Z" fill="#1D622C"/><path d="M68.802 33.804c-1.676.076-3.356.094-5.028.215-2.154.175-4.24.849-6.088 1.97a.976.976 0 0 0-.559.802 9.396 9.396 0 0 1-.3 1.499c-.12.477-.268.946-.446 1.404-.588 1.474-1.423 1.964-3 1.707a99.15 99.15 0 0 1-4.028-.771c-2.743-.566-5.506-.79-8.257-.19-4.373.957-8.635 2.248-12.616 4.376-1.028.55-2.056 1.092-3.094 1.645-3.37 1.782-6.752 3.54-10.33 4.875-.992.361-2.012.642-3.05.84-1.233.243-2.421-.129-3.622-.361a7.6 7.6 0 0 0-1.569-.146c-.485.01-.631.271-.526.742.025.107.066.206.094.315.177.63-.039.92-.688.85-.47-.047-.932-.168-1.398-.25-1.039-.183-1.3.093-1.018 1.085.094.334.224.656.335.983.073.167.126.342.16.52a.58.58 0 0 1-.102.44.5.5 0 0 1-.445.03c-.347-.161-.653-.412-1.007-.55a3.637 3.637 0 0 0-1.145-.269c-.411-.018-.562.195-.48.602a4.705 4.705 0 0 0 1.16 2.31c.94.992 1.789 2.068 2.533 3.215a62.423 62.423 0 0 0 5.922 7.788c2.965 3.266 6.557 5.724 10.264 8.03 3.606 2.238 7.607 3.56 11.596 4.934a6.64 6.64 0 0 0 3.608.294 2.524 2.524 0 0 1 2.12.479c.67.521 1.488.815 2.336.839 2.716.06 5.436.148 8.148.043 1.865-.072 3.717-.458 5.578-.685 2.467-.3 4.935-.555 7.39-.88 4.007-.53 7.876-1.53 11.394-3.606 3.34-1.97 6.168-4.47 8.076-7.9.223-.398.412-.822.638-1.21a12.698 12.698 0 0 0 1.489-3.742c.45-2.163.603-4.376.454-6.58-.029-.495-.08-.989-.12-1.484h-.15c-.065.366-.115.736-.205 1.096a1.79 1.79 0 0 1-.253.438 2.146 2.146 0 0 1-.43-.342 6.106 6.106 0 0 1-.41-.754c-.116.23-.213.47-.29.715-.085.372-.112.757-.206 1.129-.033.136-.159.325-.27.347-.11.023-.275-.13-.355-.246a2.876 2.876 0 0 1-.206-.506c-.113-.278-.237-.551-.354-.823h-.164c-.084.226-.145.46-.181.697-.03.49 0 .983-.025 1.475-.032.145-.09.284-.168.41-.105-.12-.303-.244-.303-.365-.01-.74.029-1.478.115-2.212a.844.844 0 0 1 .57-.556c.206-.03.47.235.695.389.08.055.117.17.18.267.16-.37.354-.722.58-1.054.344-.412.7-.132.971.135.19-.329.362-.606.508-.896.099-.17.163-.358.19-.553 0-.22-.031-.439-.091-.65-.206-.97-.412-1.943-.617-2.878-.539-.089-.716.127-.734.528.011.182-.002.365-.041.543a.664.664 0 0 1-.3.392c-.09.038-.294-.098-.393-.205a6.06 6.06 0 0 1-.454-.631l-.157.037c-.03.425-.057.85-.09 1.276-.019.255.125.617-.255.687-.38.07-.397-.306-.526-.528-.103-.17-.167-.366-.272-.535-.105-.168-.24-.325-.364-.487l-.117.043a3.17 3.17 0 0 0-.105.683c.029.563.11 1.122.144 1.684-.01.177-.041.353-.093.524-.135-.142-.355-.265-.39-.43a9.185 9.185 0 0 1-.222-1.618 2.879 2.879 0 0 1 .18-1.067c.186-.508.648-.586 1.045-.22.13.12.24.259.354.38.168-.36.257-.765.5-1.028.361-.38.666.048 1.013.296.06-.672.457-.929 1.117-.976l-1.524-3.942c-.487.037-.689.266-.728.632-.039.365-.025.766-.086 1.14a2.36 2.36 0 0 1-.28.589 2.464 2.464 0 0 1-.518-.401 8.37 8.37 0 0 1-.518-.87l-.121.029c-.04.186-.069.374-.085.563-.01.366.031.732 0 1.094-.012.156-.14.422-.228.426a.66.66 0 0 1-.483-.229c-.206-.269-.356-.592-.547-.88-.191-.288-.374-.505-.563-.756l-.175.03a2.635 2.635 0 0 0-.206.743c.023.578.124 1.153.169 1.731a1.832 1.832 0 0 1-.088.483c-.138-.115-.356-.205-.4-.347-.25-.808-.392-1.645-.145-2.468.1-.34.273-.647.672-.715.399-.068.617.144.839.411.162.206.314.411.501.666.13-.58 0-1.246.617-1.425.261-.076.638.251.985.412.093-.564.196-1.25 1.059-1.417-.674-1.394-1.308-2.726-1.968-4.042a.55.55 0 0 0-.454-.245.522.522 0 0 0-.27.422c.027.6.13 1.194.163 1.795.012.205-.029.526-.162.616-.274.185-.444-.096-.605-.298-.218-.275-.444-.545-.668-.822l-.134.05a5.365 5.365 0 0 0-.109.558c-.018.237.03.48-.01.71-.039.23-.099.516-.243.584-.306.148-.41-.18-.549-.391-.16-.265-.3-.543-.47-.802a4.024 4.024 0 0 0-.364-.411l-.175.051c-.027.318-.023.638.012.954.128.64.325 1.267.47 1.902.028.128-.063.282-.098.424-.113-.074-.281-.12-.335-.224-.505-.981-.754-2.021-.549-3.12.122-.66.691-.807 1.183-.343.174.165.322.36.501.564.323-1.21.529-1.314 1.544-.806.159-.755-.41-1.8.804-2.122l-4.817-10.897c-.376.282-.767.546-1.17.79-.934.49-1.97.759-3.024.785Zm3.772 27.393c-.205 4.556-2.28 8.19-5.746 11.061a18.612 18.612 0 0 1-10.58 4.277c-.764.064-1.529.156-2.293.16-5.254.019-10.507.078-15.76 0-5.212-.074-10.112-1.521-14.76-3.812-2.41-1.188-4.318-3.026-6.089-5.012-1.044-1.17-2.033-2.39-2.687-3.843-.09-.206-.173-.412-.253-.607-.205-.536-.154-1.001.364-1.34.105-.068.206-.132.38-.233a9.236 9.236 0 0 1-.986-.651 6.491 6.491 0 0 1-1.13-1.164c-.41-.617-.205-1.1.451-1.417.224-.109.463-.187.691-.277a9.952 9.952 0 0 1-.962-1.063c-.518-.76-.315-1.234.577-1.376a17.42 17.42 0 0 0 5.067-1.678c3.065-1.498 6.168-2.942 9.5-3.723 2.945-.689 5.92-1.263 8.895-1.8 4.318-.78 8.673-1.155 13.042-1.461 2.673-.19 5.319-.63 7.977-.968.366-.048.724-.159 1.098-.245.074.467-.244.522-.458.578-.839.251-1.694.444-2.56.575-2.917.321-5.84.638-8.767.845a101.43 101.43 0 0 0-11.282 1.44c-2.829.52-5.654 1.104-8.448 1.788-2.794.685-5.4 1.882-7.976 3.138-1.903.93-3.83 1.797-5.962 2.07a3.645 3.645 0 0 0-.477.14c.259.331.456.617.697.878.173.183.411.294.596.473.13.132.304.35.272.48a.861.861 0 0 1-.43.427c-.22.083-.446.151-.675.205-.544.206-.616.436-.246.893.258.285.542.547.847.783.144.111.297.21.456.298.962.599.987.765.163 1.499-.226.206-.313.399-.173.666.35.677.644 1.396 1.073 2.02a25.025 25.025 0 0 0 5.932 6.081c1.672 1.215 3.59 1.925 5.498 2.656a33.583 33.583 0 0 0 12.042 2.186c4.598.012 9.195-.01 13.792-.039 2.085-.012 4.172-.158 6.179-.726 4.7-1.33 8.46-3.943 10.885-8.284 1.31-2.344 1.795-4.895 1.645-7.54-.12-2.26-.436-4.498-.656-6.747-.05-.516-.06-1.028-.087-1.555l.228-.035c.086.187.155.381.206.58.592 3.105 1.038 6.23.89 9.399Zm-56.11 1.048c.27.06.543.11.81.181 2.353.64 4.7 1.293 7.055 1.918 2.498.662 5.05.887 7.626.887.168-.01.336.01.497.057a2.707 2.707 0 0 1-1.344.298 22.969 22.969 0 0 1-7.032-.76 709.423 709.423 0 0 1-6.863-1.989 6.51 6.51 0 0 1-.823-.364c.035-.076.056-.152.074-.228Zm-.228-3.119a11.5 11.5 0 0 0 .082-.247c.434.074.872.144 1.304.224a23.68 23.68 0 0 0 8.323.021c2.514-.411 5.013-.933 7.519-1.4.257-.032.514-.05.773-.056l.03.16c-.407.162-.825.3-1.25.412a310.98 310.98 0 0 1-6.418 1.316c-1.79.362-3.619.5-5.443.411-1.377-.08-2.744-.319-4.112-.516a3.57 3.57 0 0 1-.804-.325h-.004Zm6.818 10.042c.218.029.438.043.652.088 3.83.808 7.667 1.581 11.582 1.85 2.247.157 4.474-.151 6.696-.425.12-.032.235-.079.344-.14.084.368.026.506-.412.597-.746.152-1.503.271-2.261.36-4.001.464-7.922-.124-11.825-.918a187.111 187.111 0 0 1-3.947-.84 5.945 5.945 0 0 1-.88-.352l.051-.22Zm12.404-3.96c.058-.05.107-.13.16-.132 4.26-.205 8.36-1.38 12.53-2.13.074-.014.16.041.317.089-1.197 1.003-11.98 2.775-13.007 2.165v.008Z" fill="#7C6B58"/><path d="M87.501 17.26c-.314-.738-.94-1.102-1.645-1.328-.953-.306-1.92-.58-2.878-.841-2.588-.697-4.908-1.848-6.888-3.674a1.062 1.062 0 0 1-.36-.952 13.84 13.84 0 0 0-.668-5.286c-.553-1.61-1.503-2.906-3.047-3.701C68.92-.128 64.691.302 62.02 2.535a15.01 15.01 0 0 0-4.394 6.24c-1.028 2.697-1.518 5.512-1.67 8.384-.168 3.198.15 6.374.483 9.55.333 3.178.691 6.344.113 9.527-.16.888-.246 1.799-.5 2.662-.546 1.865-1.196 2.227-3.108 1.86-1.254-.24-2.504-.499-3.752-.758-2.706-.565-5.437-.767-8.15-.193-4.524.958-8.93 2.305-13.03 4.509a421.37 421.37 0 0 1-4.258 2.245 90.363 90.363 0 0 1-9.22 4.287c-1.912.738-3.826.979-5.834.411a6.482 6.482 0 0 0-2.057-.187c-.849.05-1.163.58-.982 1.406.033.148.049.3.082.498-.648-.103-1.217-.234-1.795-.275-1.199-.085-1.612.425-1.334 1.593.065.282.164.557.244.837.035.123.062.25.11.45a3.856 3.856 0 0 0-.755-.395 4.63 4.63 0 0 0-1.374-.185c-.641.052-.909.412-.822 1.05.062.47.201.926.411 1.35.37.749.856 1.435 1.44 2.033a14.554 14.554 0 0 1 1.7 2.262c2.11 3.234 4.358 6.353 7.07 9.116 3.006 3.052 6.543 5.412 10.194 7.608 2.943 1.764 6.179 2.866 9.384 4.022 1.143.41 2.32.727 3.496 1.093.02.368.016.771.07 1.166.38 2.817.752 5.636 1.167 8.449.296 1.998.617 3.996.995 5.98.412 2.168 1.483 4.026 2.976 5.636 1.093 1.178 2.432 1.775 4.067 1.569.382-.047.705-.169.78-.627a.425.425 0 0 1 .113-.161.426.426 0 0 1 .172-.096c1.663-.411 3.322-.822 4.998-1.176a7.376 7.376 0 0 1 3.024-.082c.36.063.729.049 1.082-.043.234-.058.567-.251.617-.438a1.031 1.031 0 0 0-.286-.749c-.884-.966-1.805-1.898-2.71-2.847-.206-.227-.502-.401-.426-.823.02-.117-.205-.34-.37-.411a3.19 3.19 0 0 0-.822-.261c-2.433-.483-4.867-.942-7.297-1.44-1.137-.232-2.282-.468-3.314-1.028.07-3.906.04-7.8.224-11.72 3.265.572 6.456.217 9.616.326.553 2.615.964 5.2.851 7.848-.032.976-.005 1.954.078 2.928.064.896.631 1.538 1.27 2.1 1.181 1.029 2.596 1.617 4.092 1.993a7.955 7.955 0 0 0 1.888.206c.584 0 .699-.29.386-.773-.078-.122-.162-.239-.316-.465.832-.286 1.6-.641 2.405-.806 1.421-.292 2.844-.635 4.318-.56.341.017.695 0 .888-.52l-1.752-1.027c-.078-.848.147-1.688.412-2.527a1.056 1.056 0 0 1 .592-.726 1.68 1.68 0 0 0 .617-.434c.123-.148.133-.39.195-.592a2.01 2.01 0 0 0-.596-.064c-.317.066-.617.218-.932.307-.876.246-1.743.544-2.636.703-2.512.444-5.041.411-7.704.138a9381.1 9381.1 0 0 0-1.408-8.079c.54-.062 1.028-.096 1.515-.175.917-.145 1.826-.351 2.745-.474 2.856-.38 5.73-.644 8.57-1.119 4.616-.771 8.816-2.564 12.423-5.593 4.755-3.992 7.47-9.028 7.607-15.317a29.857 29.857 0 0 0-2.971-13.66c-1.919-4.03-3.815-8.074-5.687-12.131-1.626-3.51-2.796-7.162-3.29-11.013a14.596 14.596 0 0 1 .156-4.266c.102.011.202.03.3.053.155.054.307.117.455.185 3.027 1.39 6.248 2.165 9.546 2.624.977.136 1.98.095 2.89-.366.244-.125.54-.432.548-.666.008-.235-.28-.551-.518-.668-.605-.29-1.254-.484-1.883-.722l-4.783-1.818c.823.093 1.657.224 2.488.268 1.665.09 3.317-.019 4.916-.545a2.688 2.688 0 0 0 1.34-.897.753.753 0 0 0 .1-.849Zm-31.034.568c.097-3.187.617-6.313 1.85-9.275.942-2.262 2.3-4.25 4.265-5.724 2.81-2.106 5.886-2.25 9.047-.87 1.453.633 2.354 1.85 2.822 3.318.295.992.51 2.005.644 3.031.079.768.119 1.54.12 2.311-.984-.131-1.561.411-1.948 1.154a9.024 9.024 0 0 0-.66 1.784 7.875 7.875 0 0 1-1.439 2.916c-1.147 1.439-1.049 2.422.247 3.733a.541.541 0 0 1 .14.412c-.482 2.261-.295 4.498.205 6.721.095.411-.029.584-.393.73-1.29.506-2.65.816-4.032.919-1.815.158-3.63.343-5.438.572-1.439.183-2.761.783-4.013 1.513l-.504.31c-.041-.674-.066-1.285-.117-1.893-.343-3.882-.911-7.754-.796-11.662Zm-9.388 84.409a.559.559 0 0 1-.057-.012l-.062-.033.07.027.05.018c2.008.471 4.072.693 6.036 1.361-2.15.159-4.102-.565-6.037-1.361Zm-8.144-5.345c1.355.36 2.694.78 4.06 1.073 1.96.421 3.94.748 5.91 1.12.242.046.483.116.726.175l-.013.17c-.31.025-.621.025-.931 0-1.741-.285-3.48-.595-5.222-.885-.36-.06-.728-.064-1.094-.095l-.056.222c.243.119.494.22.75.302 2.178.529 4.351 1.1 6.627.981a.606.606 0 0 1 .424.177c.757.857 1.495 1.729 2.243 2.603-1.233-.247-2.496-.446-3.727-.755a37.894 37.894 0 0 1-3.701-1.114c-1.183-.426-2.231-1.18-3.436-1.556l-.126.215 1.335.944.04.012.231.105.226.103.22.109.196.121.205.122.064.029-.076-.033-.206-.118-.195-.123-.218-.109-.226-.103-.23-.103-.033-.022-.804-.274-.1.13c.13.14.235.329.396.411.791.411 1.575.843 2.4 1.176 1.367.553 2.763 1.028 4.146 1.546.128.048.25.109.393.175-1.157.259-2.272.496-3.378.763-.568.134-1.128.3-1.678.495a2.727 2.727 0 0 1-1.708 0c-1.836-.493-3.058-1.698-3.952-3.306-.253-.454-.537-.892-.806-1.338l-.191.045c-.018.203-.001.407.05.605 1.027 2.333 2.56 4.112 5.199 4.636.106.022.21.051.312.086.03 0 .046.05.1.113-1.076.243-2.026-.047-2.86-.631a8.087 8.087 0 0 1-1.407-1.363c-1.627-1.871-2.342-4.143-2.712-6.526-.411-2.7-.732-5.418-1.106-8.123-.222-1.606-.473-3.208-.708-4.814-.037-.249-.043-.501-.063-.736 1.492-.411 2.89-.493 4.032.77-.268 4.124-.262 8.32-.245 12.397.382.082.658.126.923.196Zm13.07-4.363c.068.264.17.52.303.758.08.126.176.242.283.346l.103-.054-.039-.596c2.459.312 4.948.295 7.402-.05l.17-.026h.032l.205-.06v.05l-.22.01-.03.01-.18.019c-.616.098-1.233.205-1.862.285-.76.095-1.522.15-2.28.23a1.89 1.89 0 0 0-.348.108c.076.431.331.617.707.734 2.287.742 4.565 1.509 6.845 2.261.082.027.164.06.249.09l-.013.126a6.436 6.436 0 0 1-1.114-.146c-1.912-.588-3.816-1.209-5.724-1.815a8.18 8.18 0 0 0-1.503-.368c1.799 1.26 3.941 1.655 5.962 2.42-.549.09-1.095.185-1.644.273a7.813 7.813 0 0 0-2.751.973.984.984 0 0 1-1.018.028c-1.587-.72-3.105-1.533-4.297-2.85a1.549 1.549 0 0 0-.331-.205l-.144.113c.107.206.168.465.33.607a22.068 22.068 0 0 0 2.11 1.715c.617.41 1.328.678 1.984 1.028.144.078.233.26.354.41l1.211.217c0 .057-.01.113-.016.17a6.89 6.89 0 0 1-1.148-.01 10.69 10.69 0 0 1-3.764-1.419 7.788 7.788 0 0 1-1.491-1.264c-.432-.442-.57-1.008-.576-1.645-.016-2.311.18-4.632-.218-6.93-.205-1.128-.425-2.25-.647-3.428l1.587-.177c.152.861.29 1.68.446 2.496.354 1.852.707 3.711 1.075 5.566Zm10.336.376-.489 2.722-5.412-1.752c2.013-.107 4-.271 5.901-.97Zm15.497-49.77c-1.234.324-.646 1.368-.804 2.123-1.016-.508-1.221-.412-1.544.806-.179-.206-.327-.4-.502-.564-.491-.465-1.06-.316-1.182.344-.206 1.097.043 2.138.549 3.119.053.105.222.15.335.224.035-.142.126-.296.097-.424-.144-.635-.342-1.262-.47-1.902a4.913 4.913 0 0 1-.011-.954l.174-.051c.13.129.252.266.364.411.17.26.31.537.471.802.13.206.243.539.55.39.143-.067.205-.374.242-.583.037-.21 0-.473.01-.71.026-.188.063-.374.109-.559l.134-.05c.224.272.45.541.668.823.16.206.33.483.604.298.134-.09.175-.41.163-.616-.033-.6-.136-1.195-.163-1.795a.521.521 0 0 1 .27-.422.55.55 0 0 1 .45.239c.66 1.316 1.293 2.648 1.968 4.042-.864.166-.967.853-1.06 1.416-.347-.154-.723-.48-.984-.41-.617.178-.496.844-.617 1.424-.187-.25-.34-.462-.502-.666-.205-.267-.464-.475-.839-.411-.374.063-.571.374-.672.715-.247.837-.105 1.666.146 2.467.043.144.261.233.399.348.051-.156.08-.319.088-.483-.045-.578-.146-1.154-.168-1.731.032-.257.1-.507.205-.743l.175-.03c.19.25.39.493.564.756.172.263.335.617.546.88a.657.657 0 0 0 .484.228c.088 0 .216-.269.228-.425.03-.362-.01-.728 0-1.094.016-.19.044-.378.084-.563l.121-.03c.155.3.328.591.519.87.154.157.328.291.518.401.12-.182.214-.38.28-.588.061-.374.045-.762.086-1.14.04-.379.24-.595.727-.632.496 1.283 1 2.582 1.524 3.941-.66.048-1.057.305-1.116.977-.348-.249-.652-.676-1.014-.296-.243.257-.331.662-.5 1.028-.113-.121-.224-.261-.353-.38-.397-.366-.86-.288-1.045.22-.127.34-.189.703-.183 1.067.028.545.103 1.086.224 1.618.035.165.255.288.391.43.052-.17.083-.347.093-.525-.035-.56-.116-1.12-.144-1.684.01-.23.045-.46.104-.682l.118-.043c.123.162.257.314.364.487.106.173.168.364.271.535.13.222.164.6.526.528.362-.072.237-.432.255-.687.033-.425.06-.851.09-1.277l.157-.037c.138.22.29.431.454.632.1.109.303.244.393.205a.664.664 0 0 0 .3-.392c.04-.179.053-.361.041-.543.019-.401.196-.617.734-.529.206.93.412 1.902.617 2.879.06.211.091.43.09.65-.026.194-.09.382-.188.553-.146.29-.32.567-.508.896-.272-.267-.627-.549-.97-.136-.228.333-.422.686-.58 1.055-.064-.096-.101-.206-.181-.267-.225-.154-.486-.411-.695-.389a.845.845 0 0 0-.57.555 16.894 16.894 0 0 0-.115 2.213c0 .121.206.244.302.366.079-.127.136-.266.169-.411.022-.492 0-.985.024-1.475.037-.238.098-.471.181-.697h.165c.117.274.24.547.354.823.052.174.12.344.205.505.08.118.255.268.356.247.1-.02.236-.205.27-.347.088-.372.114-.757.205-1.13a4.96 4.96 0 0 1 .29-.715c.119.261.256.514.41.755.129.132.273.246.43.341.105-.133.19-.28.254-.438.092-.36.141-.73.205-1.095h.15c.04.495.09.989.12 1.484a24.263 24.263 0 0 1-.455 6.58 12.698 12.698 0 0 1-1.489 3.741c-.23.395-.41.813-.637 1.211-1.91 3.43-4.729 5.93-8.076 7.9-3.518 2.076-7.388 3.084-11.395 3.606-2.467.325-4.934.58-7.39.88-1.86.226-3.713.617-5.578.685-2.712.105-5.432.016-8.148-.043a3.982 3.982 0 0 1-2.335-.84 2.523 2.523 0 0 0-2.14-.482 6.642 6.642 0 0 1-3.61-.296c-3.98-1.378-7.989-2.7-11.595-4.935-3.701-2.305-7.308-4.764-10.264-8.035a62.412 62.412 0 0 1-5.922-7.788 22.428 22.428 0 0 0-2.533-3.208 4.705 4.705 0 0 1-1.16-2.321c-.082-.412.062-.617.48-.603.393.027.78.118 1.145.27.354.137.66.388 1.007.549a.499.499 0 0 0 .444-.03.58.58 0 0 0 .103-.44 2.444 2.444 0 0 0-.16-.52c-.111-.326-.24-.649-.335-.982-.282-.993-.02-1.269 1.018-1.086.466.082.929.206 1.398.251.65.07.865-.22.688-.851-.028-.107-.07-.206-.094-.315-.105-.47.041-.732.526-.742a7.586 7.586 0 0 1 1.569.146c1.2.232 2.397.605 3.623.362a19.741 19.741 0 0 0 3.049-.841c3.578-1.334 6.96-3.084 10.33-4.875 1.028-.545 2.066-1.086 3.094-1.645 3.974-2.128 8.243-3.419 12.616-4.375 2.751-.6 5.514-.376 8.257.19 1.339.277 2.673.548 4.028.77 1.577.257 2.412-.232 3-1.706.178-.459.327-.928.446-1.405.14-.49.241-.992.3-1.499a.977.977 0 0 1 .56-.801 13.894 13.894 0 0 1 6.087-1.968c1.672-.121 3.352-.14 5.028-.216a6.873 6.873 0 0 0 3.049-.771c.403-.243.793-.507 1.17-.79l4.817 10.904Zm-5.86-14.595c.034.05.06.104.076.162.22.79.424 1.583.656 2.369a.59.59 0 0 1-.168.678c-.955.932-2.151 1.28-3.424 1.39-.925.08-1.86.035-2.786.111-1.542.126-3.084.26-4.616.475-1.422.206-2.706.839-3.964 1.513l-.38.206c0-1.038-.023-2.056.016-3.072a.869.869 0 0 1 .395-.571 11.514 11.514 0 0 1 5.056-1.78c1.996-.192 3.997-.36 5.979-.65 1.042-.15 2.06-.535 3.16-.831Zm6.676-9.253-.016-.018.014.014.002.004Zm7.813-.999c-.919.506-1.947.63-2.96.712-2.618.205-5.17-.085-7.583-1.185-.395-.18-.75-.442-1.131-.654a4.304 4.304 0 0 0-.45-.187l-.103.124c.094.18.212.346.351.493.319.272.663.513 1.028.718 2.534 1.334 5.126 2.533 7.898 3.306.654.183 1.328.358 1.91.952a7.686 7.686 0 0 1-1.012.395c-1.127.271-2.261.076-3.361-.122-3.023-.538-5.963-1.363-8.735-2.712-.388-.199-.729-.48-.999-.822-.524-.648-.584-1.386-.057-2.017 1.093-1.312 1.694-2.821 2.1-4.45.136-.453.365-.874.673-1.233.485-.604.87-.617 1.409-.06 1.667 1.711 3.717 2.807 5.919 3.621 1.19.442 2.453.689 3.67 1.067.54.153 1.057.383 1.532.683.693.483.627.952-.11 1.367l.011.004Z" fill="#321639"/><path d="M38.259 84.3c-1.142-1.262-2.54-1.174-4.032-.769.02.235.026.488.063.736.235 1.606.486 3.208.708 4.814.374 2.706.686 5.424 1.106 8.123.37 2.383 1.086 4.655 2.712 6.526.412.51.884.968 1.406 1.363.835.584 1.785.874 2.86.632-.053-.064-.07-.103-.099-.113a2.422 2.422 0 0 0-.312-.087c-2.638-.532-4.176-2.303-5.2-4.636a1.822 1.822 0 0 1-.05-.605l.192-.045c.27.446.553.884.806 1.339.894 1.607 2.116 2.812 3.952 3.306a2.727 2.727 0 0 0 1.708 0c.55-.196 1.11-.362 1.678-.496 1.106-.267 2.22-.504 3.378-.763-.144-.065-.265-.127-.392-.174-1.384-.512-2.78-.993-4.148-1.547-.822-.333-1.607-.764-2.399-1.176-.16-.082-.265-.271-.397-.411l.1-.129.805.273-1.334-.944c.04-.072.082-.144.125-.215 1.205.376 2.262 1.13 3.436 1.556 1.214.434 2.449.805 3.7 1.114 1.234.309 2.49.508 3.728.755-.748-.874-1.486-1.746-2.243-2.603a.606.606 0 0 0-.424-.177c-2.276.119-4.449-.452-6.626-.98a5.54 5.54 0 0 1-.75-.303l.055-.222c.366.03.734.035 1.094.095 1.741.29 3.48.6 5.222.886.31.025.621.025.931 0l.013-.17c-.243-.06-.483-.13-.726-.176-1.97-.372-3.95-.699-5.91-1.12-1.366-.292-2.705-.714-4.06-1.073-.267-.07-.54-.114-.927-.194-.017-4.069-.023-8.265.25-12.39Z" fill="#E0A732"/><path d="m42.74 100.475-.042-.012.033.023.008-.011Z" fill="#fff"/><path d="M86.564 16.93c-.475-.3-.991-.53-1.532-.683-1.217-.379-2.48-.617-3.67-1.068-2.202-.822-4.252-1.91-5.92-3.62-.538-.551-.922-.545-1.408.06-.308.359-.537.779-.672 1.233-.411 1.628-1.008 3.137-2.101 4.45-.527.63-.467 1.369.057 2.016.27.343.611.624 1 .823 2.769 1.348 5.711 2.173 8.734 2.712 1.108.205 2.234.392 3.361.12a7.7 7.7 0 0 0 1.012-.394c-.582-.594-1.256-.769-1.91-.952-2.772-.777-5.369-1.982-7.898-3.316a6.387 6.387 0 0 1-1.028-.718 2.196 2.196 0 0 1-.351-.493l.103-.124c.153.054.303.117.45.188.38.205.736.472 1.13.653 2.414 1.1 4.966 1.396 7.583 1.185 1.014-.085 2.036-.206 2.95-.718.74-.415.805-.884.11-1.355Zm-8.93-2.043c-.442 0-.902-.366-.9-.715a.423.423 0 0 1 .487-.459c.411 0 .9.4.911.724.014.278-.191.45-.498.45Z" fill="#E0A732"/><path d="M62.83 30.022a11.513 11.513 0 0 0-5.055 1.78.868.868 0 0 0-.395.572c-.04 1.016-.016 2.034-.016 3.072l.38-.206c1.258-.674 2.541-1.312 3.964-1.513 1.532-.216 3.074-.35 4.616-.475.925-.076 1.86-.03 2.786-.111 1.273-.111 2.467-.459 3.423-1.39a.59.59 0 0 0 .169-.678c-.233-.786-.436-1.58-.656-2.369a.565.565 0 0 0-.076-.162c-1.092.296-2.11.68-3.16.822-1.972.298-3.983.467-5.98.658Z" fill="#F8F3DD"/><path d="m50.486 84.46-1.587.178c.222 1.178.452 2.3.647 3.427.397 2.299.206 4.62.218 6.931 0 .644.144 1.21.576 1.645.44.484.94.911 1.489 1.27a10.69 10.69 0 0 0 3.764 1.413c.382.035.765.039 1.147.01 0-.057.013-.113.017-.17l-1.211-.216c-.121-.142-.206-.325-.354-.411-.656-.358-1.371-.617-1.984-1.028a22.079 22.079 0 0 1-2.11-1.715c-.162-.142-.223-.401-.33-.607l.144-.113c.118.055.23.124.33.206 1.193 1.316 2.71 2.13 4.298 2.85a.985.985 0 0 0 1.017-.03 7.812 7.812 0 0 1 2.772-.97c.55-.088 1.096-.183 1.645-.273-2.02-.765-4.161-1.16-5.963-2.42a8.188 8.188 0 0 1 1.503.368c1.908.606 3.812 1.233 5.724 1.815.367.081.74.13 1.115.146l.012-.125c-.084-.03-.166-.064-.249-.09-2.28-.76-4.558-1.526-6.844-2.262-.377-.124-.631-.302-.708-.734.113-.047.229-.083.348-.107.759-.08 1.521-.136 2.28-.23.617-.077 1.234-.188 1.863-.286a27.962 27.962 0 0 1-7.402.05l.04.595-.104.054a1.932 1.932 0 0 1-.283-.346 3.196 3.196 0 0 1-.303-.758c-.368-1.85-.721-3.713-1.073-5.572-.154-.814-.292-1.633-.444-2.494Z" fill="#E0A732"/><path d="m60.228 92.907-.171.027.179-.019-.008-.008Z" fill="#fff"/><path d="M61.852 95.627c.167-.927.32-1.787.49-2.722-1.902.699-3.889.864-5.902.97l5.412 1.752ZM53.116 103.598c-1.964-.668-4.028-.89-6.037-1.361 1.935.796 3.886 1.52 6.037 1.361Z" fill="#E0A732"/><path d="m47.022 102.225.058.013-.05-.019-.008.006ZM60.478 92.845l-.205.06.22-.01-.015-.05ZM43.605 100.924l.01-.011-.196-.121h-.01l.196.132ZM43.399 100.8h.01l-.22-.109.21.109Z" fill="#fff"/><path d="m43.81 101.036-.206-.121-.01.01.216.111ZM43.883 101.063l-.073-.027.072.027ZM42.96 100.589l.227.102-.226-.102ZM42.96 100.588l-.23-.105v.011l.23.094ZM46.96 102.192l.062.033-.062-.033ZM78.63 19.265l.019.021-.005-.006-.015-.015Z" fill="#fff"/><path d="m71.487 51.218-.228.035c.026.518.037 1.038.086 1.554.22 2.25.537 4.493.656 6.748.142 2.645-.344 5.196-1.645 7.54-2.432 4.334-6.19 6.954-10.893 8.284-2.007.567-4.094.713-6.179.726-4.597.029-9.194.051-13.792.039a33.582 33.582 0 0 1-12.042-2.19c-1.908-.732-3.826-1.44-5.498-2.656a25.027 25.027 0 0 1-5.932-6.082c-.43-.617-.723-1.343-1.073-2.02-.14-.267-.053-.464.173-.665.822-.734.8-.9-.163-1.5a3.55 3.55 0 0 1-.456-.293 6.546 6.546 0 0 1-.841-.775c-.374-.457-.298-.683.247-.893a5.49 5.49 0 0 0 .674-.205.862.862 0 0 0 .43-.428c.033-.13-.142-.347-.272-.479-.177-.179-.423-.29-.596-.473-.24-.255-.438-.547-.697-.878.156-.057.315-.104.477-.14 2.132-.273 4.059-1.14 5.963-2.07 2.576-1.256 5.187-2.453 7.975-3.138 2.788-.684 5.62-1.268 8.448-1.788 3.731-.69 7.498-1.171 11.282-1.44 2.928-.205 5.85-.524 8.767-.845.864-.13 1.717-.32 2.554-.57.205-.055.532-.11.458-.577-.374.086-.732.206-1.098.245-2.658.339-5.308.779-7.977.968-4.37.306-8.73.68-13.042 1.462-2.975.537-5.95 1.11-8.894 1.799-3.337.781-6.436 2.225-9.501 3.724a17.425 17.425 0 0 1-5.067 1.669c-.892.134-1.095.617-.577 1.376.294.377.616.732.962 1.063-.228.09-.467.168-.69.277-.665.317-.86.802-.451 1.417.326.433.705.824 1.129 1.163.314.239.644.456.986.652-.166.1-.275.165-.38.233-.518.339-.576.803-.364 1.34.08.206.163.411.253.607.654 1.439 1.645 2.672 2.687 3.838 1.767 1.987 3.679 3.825 6.088 5.013 4.65 2.29 9.549 3.738 14.76 3.812 5.254.076 10.507.016 15.76 0 .765 0 1.53-.097 2.293-.16a18.612 18.612 0 0 0 10.591-4.285c3.467-2.879 5.53-6.506 5.747-11.062.148-3.168-.298-6.293-.874-9.398a3.457 3.457 0 0 0-.224-.574Z" fill="#321639"/><path d="M27.82 70.576c3.907.794 7.823 1.382 11.824.917a26.139 26.139 0 0 0 2.262-.36c.448-.09.506-.228.411-.596-.108.06-.223.108-.343.14-2.223.273-4.45.581-6.697.425-3.906-.273-7.751-1.046-11.582-1.85-.205-.045-.433-.06-.651-.089l-.062.225c.284.14.578.257.88.351 1.324.292 2.64.57 3.958.837ZM21.16 59.963c1.825.09 3.653-.049 5.443-.411 2.144-.412 4.283-.862 6.419-1.316.424-.113.842-.25 1.25-.411l-.03-.16a7.404 7.404 0 0 0-.774.055c-2.506.466-5.005.982-7.519 1.4a23.682 23.682 0 0 1-8.323-.02c-.432-.08-.87-.15-1.303-.225-.027.082-.054.165-.083.247.256.14.527.247.808.32 1.368.202 2.735.44 4.112.52ZM24.072 64.825c2.29.615 4.662.872 7.031.76.467.02.93-.084 1.345-.297a1.502 1.502 0 0 0-.497-.058c-2.577 0-5.128-.224-7.626-.886-2.355-.617-4.703-1.279-7.055-1.918-.267-.072-.54-.122-.81-.181a9.376 9.376 0 0 0-.064.228c.266.14.54.262.823.364a764.7 764.7 0 0 0 6.853 1.988ZM48.148 62.938c-4.17.75-8.27 1.916-12.53 2.13-.053 0-.102.082-.16.132 1.028.616 11.81-1.162 13.007-2.174-.156-.047-.243-.103-.317-.088ZM66.032 10.882c1.44 0 2.64-1.137 2.652-2.51.013-1.252-1.028-2.247-2.331-2.262-1.454 0-2.688 1.166-2.684 2.55.005 1.266 1.029 2.224 2.363 2.222Zm.292-4.363c1.114.013 1.926.823 1.916 1.886a2.196 2.196 0 0 1-2.132 2.08 1.85 1.85 0 0 1-1.886-1.86c.009-1.119 1.006-2.118 2.102-2.106ZM77.221 13.713a.423.423 0 0 0-.487.459c0 .35.458.711.9.715.313 0 .506-.173.498-.45-.01-.325-.498-.718-.91-.724Z" fill="#321639"/><path d="M66.108 10.485a2.196 2.196 0 0 0 2.132-2.08c.01-1.074-.802-1.873-1.916-1.886-1.114-.012-2.093.987-2.101 2.106a1.848 1.848 0 0 0 1.885 1.86Zm.173-3.7A1.49 1.49 0 0 1 67.78 8.27c0 1.042-.782 1.93-1.693 1.922a1.612 1.612 0 0 1-1.583-1.562 1.838 1.838 0 0 1 1.777-1.853v.007Z" fill="#F8F3DD"/><path d="M66.088 10.187c.91 0 1.694-.88 1.692-1.922a1.49 1.49 0 0 0-1.5-1.487 1.838 1.838 0 0 0-1.776 1.85 1.612 1.612 0 0 0 1.584 1.56Zm.766-2.734c.35.05.412.327.43.64-.333.13-.555.02-.627-.289-.025-.1.144-.357.197-.351Z" fill="#321639"/><path d="M67.284 8.102c-.018-.312-.08-.59-.43-.639-.053 0-.222.25-.205.352.08.298.302.409.635.287Z" fill="#F8F3DD"/></svg>