<svg viewBox="0 0 390 388" fill="none" xmlns="http://www.w3.org/2000/svg"><path d="M257.082 344.42S96.699 237.246 46.955 218.139c0 0 84.248-.223 138.035 53.342 44.342 44.131 54.199 50.274 54.199 50.274l-34.362-83.789 3.055-10.776s56.903 93.706 53.043 110.206l-3.843 7.024Z" fill="#1D622C"/><path d="M190.143 126.904c3.575 50.594 29.956 129.792 45.924 176.624 1.27 3.716 2.635 7.394 3.88 11.119.155.752.217 1.52.183 2.288a7.927 7.927 0 0 1-.707.171 13.994 13.994 0 0 1-1.196-1.941c-1.579-3.825-3.207-7.646-4.636-11.54-8.622-23.45-15.752-47.374-22.405-71.452a9.243 9.243 0 0 0-1.073-2.623c-1.269-1.901-2.747-3.662-3.998-5.546-3.74-5.689-7.095-11.655-11.172-17.091-11.199-14.928-24.721-27.714-38.239-40.495a27.484 27.484 0 0 0-2.634-1.988c-.173.303-.3.427-.307.557-.01.368.004.737.042 1.104a145.55 145.55 0 0 0 10.809 42.742c6.963 16.424 16.862 31.091 27.558 45.22 7.985 10.571 16.415 20.811 24.477 31.328 5.73 7.475 10.959 15.285 14.052 24.32a4.733 4.733 0 0 0 1.501 1.843 623.497 623.497 0 0 0 9.125 7.436c1.293 1.038 2.627 2.031 3.949 3.046l.273-.24c-.272-.669-.522-1.353-.815-2.001-6.498-15.117-12.531-30.392-16.64-46.38-6.352-24.69-31.405-120.099-33.495-147.758M120.355 177.304c10.169 18.804 31.055 53.727 44.401 70.341 5.488 6.836 11.439 13.304 16.825 20.246 4.213 5.424 9.792 9.294 14.585 14.36.023-.41.061-.502.03-.54-.675-.878-1.346-1.752-2.034-2.616-21.119-26.657-54.478-78.373-71.747-107.709" fill="#1D622C"/><path d="M123.102 168.353c.144-.263.037-.742-.087-1.066-1.895-4.99-3.991-9.917-7.322-14.178-4.125-5.28-9.333-9.432-14.639-13.483-7.476-5.709-15.558-10.378-24.6-13.247a17.017 17.017 0 0 0-5.41-.768c-2.274.042-3.434 1.206-3.59 3.474a24.748 24.748 0 0 0 .22 5.949 84.508 84.508 0 0 0 12.918 32.673c7.204 10.699 20.06 15.082 32.143 11.318a15.484 15.484 0 0 0 3.804-1.8c1.734-1.133 2.75-1.121 3.972.471" fill="#D5385B"/><path d="M93.127 121.451c.243 2.69.558 5.383.617 8.088a2.801 2.801 0 0 0 1.448 2.649c3.121 2.043 6.297 4.039 9.245 6.314 6.03 4.657 12.117 9.333 16.495 15.69 2.339 3.39 4.204 7.115 6.306 10.734.165-.966.377-2.077.543-3.184 1.348-9.197.822-18.314-.967-27.444a13.58 13.58 0 0 0-2.967-6.184 777.116 777.116 0 0 1-16.286-20.718c-1.755-2.32-3.807-3.66-6.625-3.504-2.819.155-4.682 1.762-5.785 4.324a26.93 26.93 0 0 0-2.024 13.235ZM84.184 124.752c2.001 2.437 4.587 3.594 7.518 4.992-1.65-6.781-2.106-13.304-.281-20.055-2.161-1.009-4.024-2.115-6.018-2.768-3.868-1.271-6.183-.063-7.385 3.658-.57 1.759-.823 3.637-1.231 5.455-.28 1.174.108 1.988 1.1 2.819 2.19 1.869 4.493 3.699 6.297 5.899ZM75.633 164.185c-4.295-8.851-7.819-17.953-9.326-27.76a2.581 2.581 0 0 0-.533-1.434 74.114 74.114 0 0 0-6.494-5.773c-2.053-1.522-3.503-.698-3.327 1.925.18 2.384.681 4.726 1.491 6.964 3.96 10.869 11.23 19.493 18.892 27.824-.23-.587-.438-1.196-.703-1.746ZM115.495 102.965a38.377 38.377 0 0 0-4.782-5.226c-.782-.752-1.985-1.058-3.263-1.692-.533 4.748 9.339 19.48 16.877 25.732-2.129-6.907-4.766-13.214-8.832-18.814ZM78.98 124.221c-2.116-2.552-5.995-5.297-9.018-6.155a14.84 14.84 0 0 0-4.046-.527 3.075 3.075 0 0 0-1.785.568c-.53.373-.935.9-1.156 1.504-1.66 3.762-.347 8.878 2.876 11.164 2.782-6.779 3.165-6.973 13.129-6.554ZM196.924 124.179c1.638-1.898 3.429-3.682 4.923-5.685 5.815-7.809 11.495-15.723 17.314-23.528 6.701-8.995 8.717-19.197 7.99-30.135a22.071 22.071 0 0 0-.83-4.566c-.784-2.765-2.192-3.73-4.966-3-5.526 1.447-10.754 3.796-14.98 7.752-6.395 6.002-9.42 13.68-10.016 22.282-.348 4.92-.101 9.89-.203 14.826a195.051 195.051 0 0 1-.474 10.173 9.607 9.607 0 0 1-.913 3.388c-1.147 2.328-3.45 2.708-5.226.798a9.706 9.706 0 0 1-2.149-3.308c-1.494-4.394-2.946-8.805-4.149-13.282-1.074-4.066-1.643-8.262-2.661-12.341-2.516-10.124-5.448-20.124-11.206-28.987a42.58 42.58 0 0 0-5.588-7.062c-2.516-2.494-4.615-1.85-5.735 1.567a20.683 20.683 0 0 0-1.05 5.192c-1.066 15.999 1.324 31.384 8.87 45.7a51.71 51.71 0 0 0 13.714 16.647c3.763 2.966 6.249 5.07 11.447 4.811" fill="#D5385B"/><path d="M181.161 73.336a4.74 4.74 0 0 0-.158 3.172c1.829 7.36 3.498 14.753 5.37 22.102 1.137 4.452 2.5 8.846 3.859 13.236.311 1.003 1.047 1.865 1.57 2.789l.53-.109c.27-1.212.458-2.44.565-3.675.152-5.368.339-10.738.291-16.101-.12-11.72 2.344-22.528 10.671-31.447a2 2 0 0 0 .116-1.89 47.962 47.962 0 0 0-4.095-5.542c-4.142-4.66-9.908-4.19-12.9 1.275-1.774 3.251-2.901 6.866-4.179 10.362-.669 1.908-.9 3.97-1.64 5.828ZM227.57 73.075c-.872 7.489-3.094 14.474-7.58 20.616-2.403 3.286-4.902 6.505-7.261 9.824-3.045 4.263-5.988 8.597-8.989 12.885 2.214-1.093 4.255-2.395 6.314-3.671 6.913-4.284 13.24-9.214 18.061-15.882 2.524-3.508 4.74-7.262 5.434-11.563.453-2.834.479-5.72.079-8.563-.456-3.06-2.295-5.36-5.692-6.447-.125 1.092-.267 1.947-.366 2.801ZM179.126 70.546c.192-.675.384-1.349.589-2.053.875-3.086 1.352-6.356 2.732-9.195 1.303-2.69.92-4.468-1.206-6.056a29.833 29.833 0 0 0-5.326-3.402 3.265 3.265 0 0 0-2.412-.223 3.365 3.365 0 0 0-1.936 1.498c-.995 1.51-1.28 2.85-.206 4.682 2.488 4.247 4.576 8.737 6.81 13.1.314.577.645 1.11.955 1.648ZM208.02 50.691a12.483 12.483 0 0 0-3.696 5.26c-.369 1.119.989 2.77 1.609 4.3l10.626-5.559c-2.606-4.525-5.929-6.196-8.539-4Z" fill="#D5385B"/><path d="M226.621 56.831c-.528-2.332-2.189-4.638-4.581-4.505-3.803.23-5.277-2.049-7.302-4.485-4.336-5.156-10.807-4.197-14.02 1.728-.366.68-.749 1.35-1.223 2.204-2.663-2.256-5.385-3.809-8.665-4.105-3.542-.314-6.205 1.376-8.546 4.1-.649-.835-1.135-1.454-1.613-2.082a13.622 13.622 0 0 0-6.107-4.604c-3.65-1.37-7.451.027-8.489 3.286-.069.221-.359.373-.549.571-1.198-.924-2.246-1.864-3.415-2.598-3.367-2.139-6.71-1.298-8.61 2.198a11.727 11.727 0 0 0-1.274 3.506 47.663 47.663 0 0 0-.827 6.808 98.77 98.77 0 0 0 4.775 33.574 60.632 60.632 0 0 0 18.184 27.786 21.765 21.765 0 0 0 13.246 5.553c.349.023.691.115 1.089.202-.499 14.008 1.707 27.626 4.536 41.133 2.534 12.126 5.489 24.166 8.268 36.214 1.237 5.303 2.569 10.587 3.857 15.881l.041.107-.057-.055c-.372-.544-.762-1.079-1.126-1.632-3.582-5.412-6.91-11.01-10.781-16.201-10.67-14.32-23.705-26.445-36.693-38.584a25.282 25.282 0 0 0-4.658-3.353c-2.252-1.321-3.96-.327-4.025 2.271-.009 1.551.084 3.1.281 4.638 2.701 24.755 11.466 47.279 24.876 68.144 9.904 15.435 21.637 29.467 33.031 43.765 6.16 7.73 12.333 15.455 16.93 24.276.278.52.491 1.08.91 2.006-3.917-2.718-7.499-5.046-10.888-7.628a42.135 42.135 0 0 1-6.708-6.026c-4.448-5.214-8.698-10.6-12.896-16.021-14.85-19.2-28.965-38.944-42.073-59.367-9.042-14.073-17.421-28.573-26.003-42.939-.419-.707-.276-1.954-.034-2.821.773-2.737 2.121-5.369 2.549-8.143 2.922-18.927-.821-36.826-8.816-53.982a35.003 35.003 0 0 0-8.501-11.754 14.335 14.335 0 0 0-5.525-2.987c-2.823-.763-4.726 1.209-4.428 4.14.118 1.144.454 2.261.748 3.616-5.303-1.566-9.07.296-11.578 4.769-2.099-.936-3.97-2.075-5.995-2.612-5.586-1.483-10.357-.342-12.054 6.449-.38 1.502-.594 3.035-.883 4.557l-.286 1.457c-2.221-.615-4.24-1.432-6.322-1.701-4.745-.617-7.66 2.021-7.722 6.803-.02 1.577.248 3.161.383 4.76-4.939-1.013-7.261.919-6.83 5.92.222 2.27.778 4.496 1.65 6.604a70.296 70.296 0 0 0 10.162 17.811c2.578 3.205 5.44 6.194 8.32 9.147.849.875 1.834 2.161 3.596 1.531l-.444-1.356c.648.995 1.327 1.976 1.937 2.994 4.525 7.594 11.004 12.884 19.47 15.456 8.315 2.518 16.363 2.213 23.719-3.515 13.028 29.504 31.586 55.487 52.04 79.745-9.567-7.06-19.064-14.711-29.193-21.414-25.066-16.578-52.68-23.93-82.78-21.457-3.303.272-6.633.265-9.94.524-.851.068-2.178.508-2.356 1.054-.244.772.316 1.859.712 2.73.318.5.752.917 1.265 1.215 4.162 2.92 8.161 6.105 12.531 8.668 27.103 15.917 54.954 30.406 83.228 44.128 11.663 5.662 23.353 11.383 34.488 17.998 16.986 10.018 32.85 21.712 48.107 34.224 9.294 7.616 18.449 15.411 27.667 23.124.261.257.558.475.883.646.938.386 1.697-.211 1.411-1.178a4.2 4.2 0 0 0-1.002-1.682c-1.522-1.598-3.032-3.226-4.684-4.697a536.34 536.34 0 0 0-42.698-34.429c-16.629-12.041-33.663-23.381-52.317-32.173-27.954-13.16-55.609-26.93-82.513-42.148-7.37-4.17-14.552-8.675-21.797-13.072a1.732 1.732 0 0 1-.767-1.363 1.907 1.907 0 0 1 1.194-1.057 6.392 6.392 0 0 1 1.97-.108c4.282.027 8.56.085 12.832.095 25.52.034 49.222 6.607 70.691 20.344 20.502 13.118 38.903 28.949 56.639 45.567.9.865 1.602 1.954 2.578 2.714 7.497 5.83 15.112 11.52 22.554 17.416 10.063 7.984 19.975 16.126 30.009 24.141 3.662 2.921 7.476 5.658 11.218 8.478l.637-.477a6.391 6.391 0 0 0-.663-1.736c-.703-.938-1.606-1.73-2.327-2.659a3.548 3.548 0 0 1-.753-1.721c-.42-3.648-.442-7.369-1.189-10.942-1.942-9.402-5.234-18.446-9.128-27.225-5.697-12.842-13.316-24.626-20.564-36.603-.609-1-1.466-1.849-2.127-2.822a9.74 9.74 0 0 1-1.583-2.747 20636.423 20636.423 0 0 1-16.865-64.651c-5.024-19.376-9.413-38.861-10.657-58.92-.076-1.256.128-2.031 1.243-2.716 4.715-2.884 9.301-5.986 14.07-8.768 8.466-4.931 15.976-10.872 21.33-19.2 3.439-5.336 5.579-11.076 4.805-17.556-.552-4.61-2.696-8.285-7.05-10.24-1.373-.62-1.727-1.34-1.842-2.768a64.44 64.44 0 0 0-1.318-9.19ZM104.117 95.52c1.265.625 2.469.946 3.241 1.671a37.585 37.585 0 0 1 4.746 5.195c4.042 5.576 6.672 11.838 8.775 18.692-7.518-6.239-17.277-20.832-16.767-25.563l.005.005Zm-11.905 11.61c1.125-2.594 3.03-4.242 5.858-4.389 2.826-.146 4.916 1.178 6.68 3.516a713.344 713.344 0 0 0 16.364 20.867 13.493 13.493 0 0 1 2.979 6.242c1.753 9.204 2.267 18.433.873 27.729-.171 1.128-.39 2.252-.565 3.224-2.109-3.649-3.979-7.407-6.329-10.832-4.399-6.408-10.53-11.102-16.605-15.784-2.974-2.293-6.17-4.292-9.316-6.345a2.82 2.82 0 0 1-1.457-2.676c-.023-2.717-.335-5.442-.591-8.172a27.183 27.183 0 0 1 2.105-13.384l.004.004Zm-18.5 8.394c.458-1.857.748-3.766 1.362-5.574 1.308-3.812 3.7-5.061 7.57-3.858 2.01.623 3.88 1.71 6.052 2.692-1.97 6.883-1.638 13.505-.13 20.345-2.945-1.329-5.544-2.483-7.521-4.925-1.792-2.204-4.094-4.019-6.288-5.858-.959-.795-1.35-1.627-1.046-2.822Zm-14.138 3.002a2.967 2.967 0 0 1 2.898-2.004c1.39.019 2.771.229 4.104.625 3.068.938 7.035 3.797 9.24 6.415-10.023-.68-10.416-.508-13.048 6.245-3.311-2.389-4.757-7.555-3.194-11.281Zm13.915 46.085-.051.001-.041-.098c-7.588-8.24-14.798-16.759-18.78-27.447a25.496 25.496 0 0 1-1.527-6.84c-.197-2.572 1.213-3.362 3.246-1.856a75.964 75.964 0 0 1 6.422 5.718c.316.407.501.9.532 1.415 1.555 9.638 5.12 18.582 9.384 27.302.291.575.475 1.149.706 1.726.048.012.079.05.11.079ZM195.81 281.716c.036.033-.006.129-.028.539-4.798-5.07-10.379-8.947-14.599-14.373-5.378-6.927-11.321-13.416-16.852-20.254-13.378-16.627-25.799-33.916-36.002-52.712-2.499-4.598-4.831-9.281-7.256-13.919a13.755 13.755 0 0 0-1.234-2.09c-1.247-1.612-2.255-1.627-3.977-.512a15.144 15.144 0 0 1-3.773 1.772c-12.04 3.632-24.946-.876-32.256-11.646a85.991 85.991 0 0 1-13.257-32.781 24.5 24.5 0 0 1-.285-5.942c.137-2.268 1.281-3.415 3.56-3.439a17.321 17.321 0 0 1 5.412.828c9.073 2.96 17.203 7.71 24.742 13.487 5.349 4.102 10.569 8.284 14.775 13.628 3.375 4.292 5.501 9.216 7.469 14.242.127.325.24.805.098 1.066-1.107 1.969-.08 3.598.864 5.156 4.133 6.895 8.44 13.68 12.526 20.598 17.319 29.32 36.894 57.083 58.036 83.735.689.865 1.361 1.739 2.037 2.617Zm5.56-227.702a12.18 12.18 0 0 1 3.69-5.297c2.627-2.197 6.029-.455 8.726 4.165l-10.689 5.522c-.685-1.563-2.084-3.254-1.727-4.39Zm-17.337 1.27c2.931-5.386 8.624-5.826 12.747-1.196a47.991 47.991 0 0 1 4.071 5.493 1.964 1.964 0 0 1-.106 1.867c-8.178 8.78-10.544 19.43-10.393 31.022.074 5.3-.071 10.618-.208 15.91a27.62 27.62 0 0 1-.54 3.629l-.528.1c-.535-.919-1.262-1.779-1.566-2.764-1.365-4.344-2.734-8.693-3.88-13.098-1.888-7.272-3.578-14.59-5.419-21.868a4.626 4.626 0 0 1 .141-3.133c.722-1.841.94-3.87 1.61-5.735 1.245-3.466 2.342-7.032 4.071-10.228Zm-15.923-1.52c-1.082-1.827-.811-3.154.163-4.642a3.263 3.263 0 0 1 4.3-1.231 30.367 30.367 0 0 1 5.322 3.426c2.12 1.59 2.521 3.362 1.251 6.018-1.344 2.805-1.789 6.044-2.629 9.097l-.567 2.031a.378.378 0 0 1 .053.05c.009.053.015.107.016.16-.04-.038-.05-.107-.068-.158l.016-.07c-.321-.544-.654-1.076-.954-1.643-2.282-4.33-4.394-8.803-6.903-13.039Zm57.75 206.287c4.76 8.563 9.703 17.032 14.225 25.72 6.867 13.208 12.1 27.025 14.57 41.783.069.438.16.871.211 1.31.016.133-.067.272-.2.753-2.59-2.244-5.289-4.164-7.452-6.623-1.168-1.325-1.285-3.541-2.013-5.314-2.892-6.851-5.975-13.625-8.743-20.527-4.475-11.161-10.095-30.182-11.508-38.466.44.667.705.998.91 1.364Zm7.666-182.838c.396 2.83.367 5.704-.086 8.526-.695 4.282-2.887 8.003-5.42 11.516-4.805 6.642-11.108 11.556-17.993 15.827-2.059 1.264-4.084 2.57-6.289 3.66 2.978-4.284 5.912-8.601 8.96-12.835 2.342-3.316 4.842-6.513 7.237-9.787 4.47-6.118 6.672-13.092 7.563-20.53.1-.85.242-1.702.394-2.764 3.35 1.049 5.191 3.351 5.63 6.383l.004.004ZM216.742 93.18c-5.816 7.807-11.496 15.72-17.312 23.527-1.494 2.002-3.285 3.786-4.923 5.683a5.637 5.637 0 0 0-1.526 4.277c.977 24.238 7.167 47.49 13.191 70.775 6.32 24.584 12.824 49.092 19.182 73.645 4.129 15.915 10.148 31.103 16.634 46.14.284.662.526 1.35.818 1.995l-.271.238c-1.316-1.012-2.645-2.002-3.936-3.041a618.47 618.47 0 0 1-9.083-7.405 4.728 4.728 0 0 1-1.496-1.835c-3.093-8.988-8.311-16.766-14.018-24.204-8.036-10.47-16.446-20.675-24.397-31.191-10.649-14.08-20.52-28.679-27.487-45.007a145.07 145.07 0 0 1-10.829-42.512 8.389 8.389 0 0 1-.04-1.11c.006-.129.133-.252.304-.553a27.466 27.466 0 0 1 2.619 1.977c13.456 12.724 26.925 25.46 38.097 40.331 4.078 5.424 7.412 11.349 11.141 17.012 1.252 1.896 2.725 3.65 3.985 5.52a9.245 9.245 0 0 1 1.077 2.615c6.661 23.948 13.797 47.746 22.414 71.074 1.412 3.892 3.049 7.671 4.632 11.482a14.02 14.02 0 0 0 1.192 1.931l.703-.168a9.443 9.443 0 0 0-.187-2.275c-1.231-3.719-2.613-7.369-3.878-11.061-15.958-46.597-29.208-93.927-38.877-142.242-1.992-9.94-2.716-20.021-3.453-30.098-.135-1.819-.429-3.631-.645-5.409-5.189.257-9.466-1.497-13.224-4.459a51.567 51.567 0 0 1-13.692-16.626c-7.535-14.297-9.914-29.669-8.833-45.66.126-1.771.479-3.518 1.052-5.198 1.143-3.395 3.241-4.04 5.732-1.57a42.404 42.404 0 0 1 5.578 7.053c5.748 8.853 8.667 18.84 11.179 28.959 1.015 4.076 1.576 8.272 2.646 12.326 1.161 4.495 2.63 8.889 4.138 13.27a9.691 9.691 0 0 0 2.149 3.308c1.756 1.89 4.075 1.526 5.218-.805a9.396 9.396 0 0 0 .915-3.386c.256-3.378.409-6.771.48-10.166.122-4.951-.139-9.899.208-14.82.606-8.592 3.629-16.27 10.027-22.268 4.225-3.955 9.429-6.294 14.974-7.756 2.759-.726 4.178.232 4.96 2.995.435 1.487.712 3.016.826 4.562.754 10.938-1.276 21.15-7.981 30.139l.017-.01Z" fill="#321639"/><path d="M245.909 317.123c.73 1.75.838 3.957 1.982 5.285 2.126 2.424 4.824 4.342 7.393 6.567.135-.48.227-.628.203-.752-.049-.436-.138-.867-.204-1.303-2.399-14.692-7.553-28.433-14.336-41.561-4.466-8.636-9.353-17.052-14.058-25.562-.203-.364-.465-.692-.913-1.342 1.372 8.247 6.881 27.162 11.3 38.27 2.723 6.868 5.765 13.603 8.633 20.398Z" fill="#1D622C"/></svg>