<svg  viewBox="0 0 172 145" fill="none" xmlns="http://www.w3.org/2000/svg"><path d="M112.674 50.45c0-.563-.028-.999 0-1.438a3.662 3.662 0 0 1 3.8-3.425 3.795 3.795 0 0 1 3.712 3.737 3.704 3.704 0 0 1-3.484 3.763c-.482.034-.966.042-1.524.068l.087 1.236c2.769-.769 4.279-.405 5.236 1.211.93 1.572.586 3.056-1.126 4.893 3.241 2.7 3.281 5.092.047 7.399 1.426.6 2.203 1.774 2.803 3.233.529-1.067.941-1.971 1.422-2.85 1.409-2.56 3.098-4.867 5.704-6.391a3.333 3.333 0 0 0 1.081-1.225 79.09 79.09 0 0 0 2.18-4.126c2.062-4.2 3.445-8.67 5.107-13.03a2.29 2.29 0 0 0 0-.701c-6.943-2.065-12.92-5.825-18.533-10.385-2.842 4.265-5.07 8.802-7.548 13.238.65 2.152.65 2.152-.248 4.788l1.284.006ZM139.256 39.709a73.69 73.69 0 0 1 7.323-12.835c-6.867-2.704-12.311-7.18-17.243-12.475l-8.41 15.012c3.329 3.665 13.381 9.32 18.33 10.298Z" fill="#D5385B"/><path d="M133.212 16.824c3.397 3.045 6.921 5.932 11.089 7.886.941.443 1.935.77 2.932 1.16.313-.41.541-.715.901-1.193l-1.343-1.209c-3.743-3.439-7.977-6.196-12.328-8.779-.944-.563-2.031-.884-3.067-1.273-.282-.11-.634-.065-1.141-.107.184.387.402.758.651 1.107a31.947 31.947 0 0 0 2.306 2.408Z" fill="#D5385B"/><path d="M27.594 77.16c7.886-.084 15.798-.14 23.698-.211.48 0 .96-.042 1.519-.07a2.22 2.22 0 0 0-.22-.541c-3.098-3.515-6.326-6.884-10.168-9.602-3.47-2.453-7.131-4.566-11.32-5.526-2.377-.544-4.788-.91-7.207-1.293a20.704 20.704 0 0 0-7.948.355c-3.738.862-7.101 2.535-10.253 4.681-.36.242-.687.535-1.045.82.048.707.093 1.355.138 1.955 2.087.38 4.065.656 6 1.11 3.943.917 7.55 2.63 10.984 4.697a35.012 35.012 0 0 1 4.025 2.95c.49.446 1.134.688 1.797.675Z" fill="#E0A732"/><path d="M20.896 58.619c2.048.16 4.098.344 6.126.65 4.261.643 8.345 1.84 12.091 4.056 3.172 1.876 6.174 3.989 8.788 6.591 1.972 1.972 3.828 4.033 5.737 6.056l.845.887h6.346a4.772 4.772 0 0 0-.2-.887 25.9 25.9 0 0 0-1.25-2.535c-2.716-4.478-5.673-8.78-9.171-12.697a23.233 23.233 0 0 0-5.03-4.318c-3.642-2.278-7.377-4.34-11.41-5.841-3.403-1.265-6.89-2.15-10.529-2.358-1.34-.079-2.69-.096-3.943.425-1.33.547-2.614 1.206-3.861 1.792-.338.93-.637 1.76-.947 2.616 1.25 1.91 1.989 4.127 3.696 5.678.946-.053 1.825-.186 2.712-.115Z" fill="#E0A732"/><path d="M53.664 65.632c2.67 3.757 5.447 7.456 7.112 11.83h5.706c-.307-1.186-.58-2.254-.844-3.304-2.105-8.07-3.944-16.201-5.611-24.372-.499-2.456-.932-4.91-.786-7.441.138-2.434 1.144-4.264 3.38-5.33.7-.336 1.42-.63 2.157-.878 1.11-.36 2.231-.69 3.36-.972 4.958-1.236 9.923-2.444 14.88-3.678 1.38-.344 2.744-.746 4.225-1.155a7.452 7.452 0 0 0-.6-.98 34.746 34.746 0 0 0-2.475-2.704 26.352 26.352 0 0 1-5.293-6.83c-.53-.969-1.067-1.935-1.647-2.991-.38.845-.693 1.622-1.051 2.36-1.746 3.608-4.27 6.602-7.239 9.264a22.984 22.984 0 0 1-7.021 4.422 25.17 25.17 0 0 0-9.96 7.095c-2.08 2.39-4.165 4.788-6.196 7.21-1.442 1.718-3.574 2.588-6.117 1.408.091.366.226.72.402 1.054a30.66 30.66 0 0 0 2.254 3.098c1.61 1.842 3.309 3.608 4.988 5.388 2.236 2.41 4.47 4.822 6.376 7.506Z" fill="#91B658"/><path d="M44.11 47.19a19.474 19.474 0 0 0 3.293-3.811c-2.202-2.147-3.442-4.769-4.225-7.673a4.022 4.022 0 0 1 .136-2.757c.294-.78.68-1.523 1.151-2.211 1.18-1.544 2.341-3.132 3.727-4.479 3.76-3.661 7.945-6.802 12.263-9.759a28.73 28.73 0 0 1 8.855-4.194c1.28-.373 2.61-.552 3.943-.532 2.4.09 3.45.896 4.377 3.126 1.69 4.093 3.901 7.861 7.191 10.928 1.093 1.017 2.014 2.22 3.008 3.344.25.281.485.588.715.873l2-.316c.375-2.38.724-4.624 1.082-6.872a2.17 2.17 0 0 0-.527-1.864 13.513 13.513 0 0 0-1.69-1.6 19.258 19.258 0 0 0-2.087-1.38 16.084 16.084 0 0 1-5.236-5.053 26.806 26.806 0 0 0-2.366-2.994c-1.253-1.409-2.876-2.02-4.748-2.082a15.71 15.71 0 0 0-4.456.541 37.813 37.813 0 0 0-7.34 2.707c-3.69 1.825-7.374 3.661-11.019 5.568a50.315 50.315 0 0 0-4.714 2.84 20.465 20.465 0 0 0-6.687 7.108 40.02 40.02 0 0 0-3.566 8.433c-.546 1.932-.952 3.91-.845 5.915.155 2.842 1.364 5.131 3.91 6.58 1.363.78 2.706.655 3.856-.387Z" fill="#91B658"/><path d="M75.886 17.083c.145-.42.244-.856.296-1.298.282-1.69-.46-2.732-2.18-2.842a13.16 13.16 0 0 0-3.473.208c-3.828.786-7.207 2.617-10.325 4.89-3.118 2.273-6.115 4.642-9.087 7.061-2.07 1.69-3.982 3.574-5.413 5.864-.55.96-1.035 1.954-1.453 2.977-.26.564-.113 1.085.42 1.493 1.067.177 1.895-.44 2.763-.913 3.008-1.636 4.982-4.382 7.3-6.65 0-.148-.02-.295-.056-.439-.704-1.532-.595-2.27.563-3.422.277-.275.576-.525.896-.75a37.837 37.837 0 0 1 7.846-4.356 14.86 14.86 0 0 1 2.254-.628 1.254 1.254 0 0 1 1.436.61 17.84 17.84 0 0 1 1.127 2.226c.515 1.295 1.245 2.456 2.059 3.825a22.847 22.847 0 0 0 5.027-7.856Z" fill="#91B658"/><path d="M53.99 30.282c-.498.597-1.056 1.143-1.596 1.69-2.146 2.225-4.546 4.053-7.605 4.819.563 2.357 1.87 4.447 3.498 5.56.879-.978 1.775-1.955 2.65-2.952 2.986-3.397 6.504-6.025 10.76-7.647A19 19 0 0 0 68 27.769c.676-.64 1.473-1.171 1.972-2.045-.845-1.673-1.645-3.31-2.583-5.202-2.253 2.513-4.965 3.983-7.754 5.386a17.4 17.4 0 0 0-5.644 4.374ZM61.846 23.513a17.942 17.942 0 0 0 4.225-3.222c.2-.203.307-.498.637-1.05-.893.262-1.476.388-2.028.602a36.172 36.172 0 0 0-7.99 4.414 5.381 5.381 0 0 0-1.049 1.053c-.332.417-.414.899.04 1.541.222-.076.44-.165.653-.265 1.84-1.014 3.67-2.067 5.512-3.073Z" fill="#91B658"/><path d="M170.908 25.598c-.678-2.13-1.825-3.972-3.827-5.084a12.324 12.324 0 0 0-9.036-1.268c-2.782.654-5.069 2.254-7.165 4.115-.36.319-.735.626-1.076.913a2.953 2.953 0 0 1-.383-.26c-3.661-3.633-7.974-6.407-12.311-9.136a13.915 13.915 0 0 0-5.07-2.068c-1.38-.236-1.811-.118-2.509 1.045-.775 1.288-1.462 2.625-2.2 3.944-.209.366-.468.704-.758 1.126-1.521-1.738-3.38-2.253-5.495-2.005a4.634 4.634 0 0 0-4.019 4.768 4.44 4.44 0 0 0 4.109 4.467c.409.043.811.11 1.358.183-3.605 6.295-7.371 12.275-10.483 18.623a.283.283 0 0 1-.133.096.203.203 0 0 1-.084.023c-.927-.338-1.797-.657-2.69-.978-.079-2.841-1.245-5.199-3.005-7.292.09-.977.214-1.912.25-2.853.124-3.112.259-6.224.31-9.34.071-4.343.141-8.686.062-13.026a36.453 36.453 0 0 0-.687-5.788 11.557 11.557 0 0 0-1.087-2.952 5.313 5.313 0 0 0-2.496-2.383c-1.512-.746-2.636-.636-3.785.59A10.93 10.93 0 0 0 96.9 3.633a17.104 17.104 0 0 0-1.262 3.442c-.944 3.774-1.803 7.57-2.701 11.36-.096.408-.225.81-.321 1.154-1.555-1.127-3.008-2.225-4.53-3.23a15.006 15.006 0 0 1-4.142-4.056 37.09 37.09 0 0 0-2.566-3.29 7.776 7.776 0 0 0-4.416-2.501c-1.927-.417-3.775-.121-5.617.281a36.146 36.146 0 0 0-8.45 3.048c-3.438 1.707-6.88 3.41-10.277 5.196a59.186 59.186 0 0 0-5.166 3.065 21.045 21.045 0 0 0-6.072 5.915 35.264 35.264 0 0 0-4.926 11.266 33.275 33.275 0 0 0-.673 4.574 7.143 7.143 0 0 0 1.02 4.506c1.03 1.65 1.839 3.408 2.729 5.13.949 1.833 2.32 3.38 3.644 4.934l-1.76-.879c-2.608-1.245-5.16-2.63-7.839-3.7-4.05-1.618-8.258-2.629-12.674-2.553a8.005 8.005 0 0 0-3.853.919c-1.752.98-3.552 1.58-5.58 1.095-.048 0-.107.031-.338.113-.422.774-1.202 1.524-1.177 2.839.495.19.976.415 1.44.673.563.352 1.185.707 1.523 1.23 1.014 1.564 1.898 3.212 2.887 4.919-.665.174-1.248.32-1.828.484a32.574 32.574 0 0 0-9.475 4.453c-1.126.744-2.225 1.47-3.571 1.755-.282.062-.564.32-.845.493-.121 1.05-.231 2.027.563 3.002 2.755-.189 5.515-.113 8.247.54a38.45 38.45 0 0 1 7.976 2.905c3.983 1.957 6.028 3.315 6.89 4.656-.902 0-1.727-.015-2.535 0-.873.02-1.75.064-2.575.095-.591 2.645.11 3.84 2.73 4.788.107.505.24 1.043.335 1.586 1.369 7.833 2.636 15.685 4.123 23.496a143.706 143.706 0 0 0 5.008 19.372c1.127 3.366 2.445 6.675 3.707 10.103-.199.143-.38.308-.544.49-1.073 1.408-.667 2.966.947 3.695a7.5 7.5 0 0 0 .94.347c1.919.578 3.898.931 5.898 1.053 2.611.149 5.228.245 7.836.425 4.506.31 8.982.744 13.48.989 4.39.239 8.79.437 13.184.417 5.4-.023 10.787-.42 16.181-.713 5.5-.298 11.018-.335 16.53-.349 5.735-.017 11.469.121 17.201.223 2.673.045 5.351.174 8.013.245 1.727.047 3.456.129 5.177.053a10.864 10.864 0 0 0 2.918-.6c1.042-.349 1.664-1.146 1.487-2.309-.06-.552.05-1.11.315-1.597a100.45 100.45 0 0 0 4.941-13.987c3.253-11.799 6.5-23.595 8.652-35.655.234-1.307.44-2.62.659-3.943l1.651-.302c1.715-1.9 1.819-2.78.563-4.348-.845-.451-1.912.13-2.648-.564a1.368 1.368 0 0 1 0-.414c1.434-3.63 2.414-7.393 3.38-11.17 1.22-4.914 2.69-9.762 4.405-14.525a116.96 116.96 0 0 0 3.746-12.111c.803-3.236 1.623-6.478 2.006-9.799.296-2.27.104-4.576-.564-6.765Zm-38.555-11.72c1.036.389 2.123.713 3.067 1.273 4.352 2.58 8.585 5.352 12.328 8.782.406.375.822.738 1.344 1.208l-.902 1.192c-.997-.392-1.991-.718-2.932-1.16-4.168-1.972-7.692-4.848-11.091-7.887a32.333 32.333 0 0 1-2.304-2.403 6.885 6.885 0 0 1-.651-1.106c.507.036.853-.009 1.141.101Zm-10.948 11.184c-1.955-.073-2.935-1.408-3.203-3.055a3.663 3.663 0 0 1 2.152-3.803c1.69-.681 3.287-.36 4.698.764.778.62.89 1.171.437 2.05-.659 1.284-1.38 2.535-2.152 3.943-.71.042-1.318.14-1.932.102Zm8.875-10.201c4.934 5.29 10.382 9.765 17.248 12.469a73.63 73.63 0 0 0-7.323 12.838c-4.948-.98-15.001-6.636-18.33-10.3l8.405-15.007Zm-9.055 16.156c5.559 4.455 11.452 8.238 18.293 10.24.027.131.034.265.023.398-.08.192-.169.38-.268.563-5.678-1.47-15.319-6.943-18.496-10.54.169-.25.287-.43.448-.661Zm-8.636 15.096c2.479-4.436 4.709-8.97 7.551-13.237 5.611 4.56 11.59 8.32 18.533 10.384.036.233.036.47 0 .702-1.659 4.36-3.042 8.83-5.103 13.029a81.557 81.557 0 0 1-2.181 4.129c-.254.49-.625.91-1.081 1.222-2.597 1.524-4.29 3.83-5.704 6.391-.481.87-.892 1.783-1.422 2.85-.6-1.459-1.377-2.633-2.802-3.233 3.233-2.307 3.191-4.698-.051-7.399 1.724-1.836 2.07-3.32 1.141-4.892-.958-1.617-2.468-1.972-5.236-1.212-.029-.385-.054-.754-.088-1.236.564-.025 1.042-.034 1.524-.068a3.708 3.708 0 0 0 3.484-3.762 3.798 3.798 0 0 0-3.723-3.738 3.662 3.662 0 0 0-3.8 3.425c-.031.44 0 .881 0 1.442h-1.273c.879-2.645.879-2.645.231-4.797Zm25.388 24.257a7.843 7.843 0 0 0 4.36 1.487c.94-.037 1.874-.166 2.789-.383.234-.046.425-.31.614-.457-.149-.602-.564-.563-.952-.524-.648.074-1.29.192-2.056.307l2.019-4.554c6.478 1.755 9.03 7.822 5.845 13.877l-25.276-1.69c-.2-1.385-.927-2.332-2.059-3.098.177-.665.318-1.31.518-1.932a24.346 24.346 0 0 1 3.884-7.337c2.352-3.098 5.484-4.03 9.16-3.473 2.394.366 4.531 1.436 6.723 2.76a11.628 11.628 0 0 1-2.169 4.983c-1.448.259-2.445-.955-3.712-1.18-.392.645-.048.968.312 1.213Zm-15.843 4.405-.056.05-.034.048.031-.048.059-.05Zm-8.497-3.83 1.408-.114v-.025l.082-.079-.059.102h-.023c.009.1.009.203 0 .304-.335 1.971.372 3.506 1.952 4.67h.065l.039.04 2.011.526c-.191.326-.343.594-.563.98l-1.442-1.507-.062-.014-.042-.034-2.766-.42c.645-1.481.456-2.97-.6-4.43Zm.802-10.704a22.749 22.749 0 0 0-1.557-2.008l2.048-.845c-.093 1.873.845 3.025 2.346 3.901-1.409 1.081-2.037 2.41-1.769 4.225l-1.873-.504c.369-.747.811-1.434 1.053-2.186a3.052 3.052 0 0 0-.248-2.597v.014Zm3.535 7.982-1.076.513c-.042-.375-.07-.654-.118-1.093l1.194.58Zm-5.427 13.193 1.69 1.048-2.034-.09c.124-.378.211-.617.344-.972v.014Zm-.459-4.154a7.936 7.936 0 0 1-3.259.047l-.096-.777h-.025l-.048-.053.068.03v.032c1.081.385 2.112.963 3.36.707v.014Zm-.24-11.528-.126.095h-.037c-.758 1.296-1.039 2.63-.175 4.155l-1.577.081a4.85 4.85 0 0 0 .366-4.168l1.386-.068a.12.12 0 0 0 .014-.025l.149-.07Zm-.419-7.777-2.285.217.485-1.307 1.8 1.09Zm-1.82-5.698c-.172.46-.31.845-.521 1.408-1.267-1.298-2.69-1.842-4.363-1.566a.043.043 0 0 1 0 .023l-.067.05.048-.07h.03l1.127-2.315c.763 1.507 1.941 2.383 3.746 2.456v.014Zm-16.57 29.456c1.073.073 1.873.459 2.853.785a4.053 4.053 0 0 1-2.571 1.262c-.43-.64-.138-1.295-.282-2.047Zm-7.387-5.667c3.563 2.104 7.201 4.039 11.164 5.331-4.171-.791-7.86-2.653-11.164-5.323v-.008Zm6.162 7.757v-2.031c.51.904.51.904 0 2.039v-.008Zm-4.453-.919 3.625-2.368c-.484 1.098-1.29 1.659-3.625 2.377v-.009Zm3.515-.188c0 .371-.045.74-.081 1.25l-2.028-.282a6.651 6.651 0 0 1 1.898-1.25c.099.144.214.217.211.29v-.008ZM65.28 50.169c1.468 7.822 3.45 15.517 5.589 23.175.295 1.064.67 2.107 1.039 3.245-1.211.549-2.383.473-3.695.281-.38-1.391-.784-2.769-1.127-4.16A541.235 541.235 0 0 1 61.452 48a24.63 24.63 0 0 1-.541-6.28c.104-1.958.932-3.417 2.73-4.242a21.332 21.332 0 0 1 2.636-1.02c5.157-1.577 10.42-2.743 15.668-3.963 2.38-.563 4.735-1.216 7.106-1.813.527-.133 1.073-.186 1.811-.31.133 1.194.124 2.11-.281 3.12-.564.08-1.166.11-1.744.248-5.022 1.206-10.052 2.377-15.046 3.681-1.6.417-3.13 1.15-4.639 1.848-.851.41-1.646.926-2.366 1.538a5.315 5.315 0 0 0-1.971 4.07c-.041 1.776.115 3.55.464 5.292Zm.829-1.673c-.212-1.194-.164-2.436-.186-3.661a4.016 4.016 0 0 1 1.661-3.315 13.886 13.886 0 0 1 2.406-1.485c2.608-1.287 5.396-2.075 8.21-2.752 3.349-.805 6.717-1.546 10.072-2.329a5.895 5.895 0 0 1 2.191-.13c-.42 5.118-.932 10.14-1.216 15.168-.285 5.027-.347 10.128-.513 15.387-.735.543-1 1.549-1.256 2.58a38.243 38.243 0 0 1-3.459 8.827H73.222a22.11 22.11 0 0 1-.845-2.178c-2.422-8.621-4.7-17.282-6.27-26.109v-.003Zm28.694 26.62c-1.76.104-3.523.205-5.286.315-.766.05-1.532.124-2.44.197l-1.039-.696c.17-.222.265-.445.431-.535.205-.078.425-.106.642-.084 2.757-.021 5.515-.035 8.275-.043.11.022.216.062.313.119-.028.566-.42.701-.895.73v-.004Zm1.2 1.025h.034c.088-.223.175-.445.296-.744.386.603.056.682-.296.744v.028l-.355.34-.33.341-.056.048.04-.067.324-.347.343-.343Zm-1.459-.105a4.383 4.383 0 0 1-1.763 1.811c-.03-.583-.056-1.013-.079-1.459.538-.467 1.102-.51 1.842-.349v-.003Zm-2.816 2.166c-.476-.738-.454-1.293-.423-2.098.727.665.654 1.23.431 2.101l-.008-.003Zm-1.194-.659-1.876-.983.042-.259 1.532-.09c.102.417.192.75.31 1.335l-.008-.003Zm-3.63-4.123c.196-.254.28-.462.374-.468 2.6-.152 5.2-.281 7.813-.42.155.313.281.55.448.888h-8.636Zm1.39-5.306c1.451-.302 4.383-.305 5.864-.063 0 .153.026.31.037.462-1.31.299-4.413.13-5.892-.397l-.009-.002Zm5.805 1.467v.118h-5.633v-.118h5.633Zm.02 1.02-.048.067-6.227.192c.191-.141.281-.251.35-.251 1.985-.008 3.96-.006 5.933-.006l-.008-.002Zm-1.805 1.208h-.321l-4.062.374c0-.093-.014-.188-.02-.281l4.082-.09.304-.029h.098c.702-.323 1.428-.143 2.152 0h-2.152c-.03.017-.053.017-.073.029l-.008-.003Zm-3.406-5.27h5.177l.135.358c-.222.36-4.055.284-5.303-.355l-.008-.003ZM85.466 77.67c.935.023 1.408.727 2.02 1.242l-2.178-.234c.076-.436.115-.69.166-1.005l-.008-.003Zm3.712 2.355H85.77c-.062 0-.127-.138-.265-.299 1.304-.383 2.473.254 3.673.299Zm-.642.895-2.237 1.538c-.755-.65-.755-.65-.83-1.473.895-.253 1.788-.062 3.067-.056v-.009Zm8.238-.845v-.118h.423v.16l-.423-.042Zm-.062-.949-.048.025-.177.023-.845.256-.04-.138.885-.118.157-.048.02.025-.02-.025h.068l.47-.228.051.234-.52-.006Zm-1.211-.594c.465-.932 1.073-1.375 1.893-2.144.124.733.191 1.127.281 1.668l-2.174.476Zm.282-8.244c-.144-.823-.296-1.642-.437-2.465-.177-1.05-.369-2.095-1.445-2.596.24-7.605.431-15.103 1.158-22.66.763 1.127 2.017 5.763 2.355 8.653-.316.236-.682.479-1.014.763-1.778 1.518-1.792 4.563 0 6.067a3.13 3.13 0 0 0 3.6.44c1.289-.629 2.095-1.66 2.123-3.136a13.843 13.843 0 0 0-.265-2.027c.513-.451 1.222-.358 1.842-.564-1.887 1.69-1.791 3.662-.718 5.743-2.8-.132-4.453.741-5.149 2.696-.65 1.836 0 3.444 2.138 5.047-.456.208-.885.369-1.276.594-2.253 1.307-2.428 4.684-.321 6.228.596.42 1.312.639 2.042.622.315 0 .634-.053.955-.082l-1.69 3.045c-.58.262-1.014 0-1.423-.586a14.674 14.674 0 0 1-2.484-5.774l.009-.008Zm3.402-19.533a.592.592 0 0 1-.037.307c0 .042-.073.07-.168.152-.443-.228-.446-.687-.55-1.101-.563-2.253-1.126-4.52-1.712-6.76a9.107 9.107 0 0 0-.803-2.18c-.504-.884-.544-1.757-.397-2.72.214-1.409.35-2.851.755-4.324.318.924.701 1.834.943 2.777a460.597 460.597 0 0 1 2.313 9.368c.107.422.071.868-.102 1.267a3.943 3.943 0 0 0-.24 3.223l-.002-.009Zm4.408 15.353c-.144.563-.242.927-.38 1.442l-1.344-.935 1.724-.507Zm-4.788 11.66.974.13c1.558 3.865 4.549 4.448 7.484 2.569l.352 1.591a37.406 37.406 0 0 1-4.537-.022c-1.499-.054-2.994-.198-4.6-.307-.135-1.302.13-2.578.33-3.958l-.003-.002Zm8.433-4.055c-.099 0-.226.059-.282.014-1.408-.975-2.949-1.076-4.557-.606l-.02.02h.031c.817-.83 1.408-1.777 1.484-3.02 1.913 1.127 1.913 1.127 4.098 1.28l-.754 2.312Zm.262-9.816-2.059.389c.048-.797.228-1.606.107-2.369-.121-.763-.547-1.422-.845-2.13l-.045-.044.053.04h2.642v-.023c.02-.029.042-.057.062-.088 0 .037-.025.074-.039.11h-.029c-.363 1.372-.588 2.698.155 4.124l-.002-.009Zm.588-19.485c-1.901 1.507-2.191 1.997-2.535 4.21-1.047-1.87-2.535-2.816-4.757-2.385-.146-.422-.318-.822-.425-1.236-.656-2.58-1.262-5.174-1.955-7.743-.507-1.867-1.002-3.757-2.278-5.388.22-1.814.439-3.661.681-5.67a4.557 4.557 0 0 1 1.972 1.972c.69 1.265 1.298 2.572 1.912 3.876.307.65.53 1.34.828 1.994a5.396 5.396 0 0 0 2.194 2.43c2.986 1.794 4.16 4.583 4.366 7.949l-.003-.009ZM97.464 20.47c.51-3.687.98-7.385 1.972-10.985.25-.912.498-1.825.808-2.715.282-.783.608-1.55 1.473-2.042 1.014.783 1.093 1.828 1.2 2.797.397 3.426.468 6.883.214 10.322-.163 2.105-.121 4.225-.197 6.335-.104 2.89-.234 5.777-.366 9.027-.302-.546-.462-.791-.58-1.056-.386-.862-.724-1.747-1.127-2.594-1.177-2.417-1.659-3-3.73-4.673-.278-1.473.125-2.949.333-4.416Zm-.71-13.238a31.17 31.17 0 0 1 1.217-3.279c.23-.505.523-.978.873-1.408 1.24-1.597 2.208-2.01 4.191-.35a5.493 5.493 0 0 1 1.634 2.674c.588 1.86.905 3.795.941 5.746.056 4.675.036 9.353-.02 14.029-.037 3.059-.186 6.117-.301 9.173-.023.597.107 1.231-.403 1.918a5.874 5.874 0 0 1-.676-.281 5.837 5.837 0 0 1-.564-.412c.06-1.34.116-2.667.172-3.996.093-2.279.217-4.557.282-6.839.118-4.45.259-8.9.268-13.35 0-1.597-.302-3.205-.564-4.788a3.94 3.94 0 0 0-.749-1.645c-.786-1.045-1.803-1.079-2.659-.045a6.162 6.162 0 0 0-1.242 2.135c-.693 2.461-1.355 4.937-1.848 7.441-1.098 5.571-1.585 11.23-2.253 16.86-.183 1.546-.234 3.098-.386 4.656-.253 2.602-.563 5.199-.805 7.802-.2 2.047-.431 4.095-.51 6.148-.189 4.895-.282 9.793-.43 14.688 0 .375-.057.752-.094 1.225h-2.935a4.816 4.816 0 0 1-.169-.96c.175-5.005.22-10.018.586-15.01.445-6.044 1.113-12.074 1.786-18.098.91-8.135 2.355-16.176 4.65-24.048l.008.014ZM36.936 40.503c-.112-2.011.282-3.991.846-5.915a40.111 40.111 0 0 1 3.565-8.436c1.62-2.934 3.924-5.252 6.687-7.106a49.696 49.696 0 0 1 4.709-2.844c3.645-1.907 7.323-3.744 11.018-5.572a38 38 0 0 1 7.34-2.709 15.708 15.708 0 0 1 4.456-.538c1.873.062 3.495.679 4.749 2.081a26.777 26.777 0 0 1 2.394 2.992 16.055 16.055 0 0 0 5.236 5.07c.725.414 1.422.875 2.087 1.38a13.52 13.52 0 0 1 1.69 1.6 2.172 2.172 0 0 1 .527 1.864c-.358 2.253-.707 4.492-1.082 6.872l-2 .313c-.23-.282-.465-.586-.715-.87-.995-1.127-1.915-2.327-3.008-3.346-3.293-3.079-5.493-6.848-7.194-10.94-.926-2.23-1.971-3.036-4.377-3.126-1.333-.02-2.662.159-3.943.532a28.729 28.729 0 0 0-8.855 4.191c-4.318 2.957-8.503 6.106-12.263 9.762-1.386 1.347-2.535 2.935-3.727 4.476-.47.688-.857 1.43-1.152 2.21a4.013 4.013 0 0 0-.132 2.76c.769 2.902 2.008 5.527 4.225 7.673a19.562 19.562 0 0 1-3.293 3.811c-1.149 1.042-2.492 1.166-3.858.392-2.566-1.445-3.775-3.735-3.93-6.577Zm23.28-15.083c2.788-1.408 5.511-2.873 7.753-5.385.938 1.893 1.752 3.53 2.583 5.202-.487.873-1.282 1.408-1.972 2.042a18.979 18.979 0 0 1-6.303 3.986c-4.245 1.622-7.762 4.258-10.748 7.638-.876.994-1.772 1.972-2.65 2.952-1.628-1.127-2.935-3.205-3.498-5.56 3.061-.766 5.46-2.594 7.604-4.82.541-.563 1.099-1.106 1.597-1.69a17.4 17.4 0 0 1 5.633-4.365Zm-3.98-.6c.298-.397.651-.75 1.047-1.05a36.053 36.053 0 0 1 7.98-4.425c.563-.214 1.126-.34 2.03-.606-.33.564-.44.845-.64 1.054a17.94 17.94 0 0 1-4.224 3.222c-1.85 1.005-3.661 2.056-5.512 3.081-.212.101-.43.19-.653.265-.443-.64-.36-1.121-.029-1.54Zm13.136-4.2a18.09 18.09 0 0 0-1.127-2.227 1.262 1.262 0 0 0-1.425-.614c-.766.151-1.52.361-2.253.628a37.977 37.977 0 0 0-7.855 4.36c-.32.224-.62.475-.896.75-1.15 1.151-1.26 1.886-.564 3.421.037.144.056.292.057.44-2.318 2.253-4.293 5.013-7.3 6.65-.868.473-1.69 1.087-2.764.912-.532-.408-.678-.924-.42-1.493.418-1.025.905-2.02 1.457-2.98 1.428-2.287 3.34-4.174 5.41-5.86 2.975-2.426 5.988-4.806 9.087-7.067 3.098-2.262 6.497-4.107 10.325-4.89a13.28 13.28 0 0 1 3.473-.211c1.72.112 2.45 1.149 2.18 2.842-.053.443-.152.879-.296 1.3a22.841 22.841 0 0 1-5.05 7.86c-.794-1.364-1.524-2.527-2.04-3.82ZM40.643 49.154a4.744 4.744 0 0 1-.403-1.057h-.02l-.039-.036.056.03c2.535 1.172 4.676.3 6.118-1.408 2.042-2.428 4.126-4.819 6.197-7.21a25.176 25.176 0 0 1 9.959-7.098 23.028 23.028 0 0 0 7.021-4.419c2.97-2.664 5.493-5.658 7.239-9.263.358-.741.67-1.502 1.05-2.36.58 1.055 1.127 2.021 1.648 2.99a26.388 26.388 0 0 0 5.278 6.839 35.288 35.288 0 0 1 2.476 2.707c.225.31.426.636.6.977-1.493.408-2.856.811-4.225 1.155-4.957 1.236-9.922 2.445-14.88 3.681a50.242 50.242 0 0 0-3.36.972c-.737.245-1.458.539-2.157.879-2.236 1.061-3.242 2.892-3.38 5.328-.146 2.535.282 4.983.786 7.442 1.662 8.168 3.506 16.302 5.61 24.371.282 1.06.55 2.118.845 3.304H61.37c-1.664-4.385-4.442-8.083-7.112-11.843-1.907-2.682-4.14-5.093-6.393-7.484-1.69-1.78-3.38-3.549-4.988-5.388a30.67 30.67 0 0 1-2.245-3.11h.011Zm2.574 5.272.037.05-.045-.039.008-.011ZM13.616 53.2c.31-.845.61-1.69.946-2.617 1.25-.586 2.535-1.245 3.861-1.791 1.257-.518 2.606-.501 3.944-.425 3.639.21 7.128 1.093 10.528 2.36 4.033 1.498 7.77 3.563 11.412 5.839a23.358 23.358 0 0 1 5.03 4.306c3.502 3.918 6.456 8.222 9.171 12.697.463.822.88 1.668 1.251 2.535.095.289.162.586.2.887h-6.346l-.845-.887c-1.898-1.994-3.748-4.076-5.72-6.039-2.614-2.602-5.614-4.712-8.788-6.59-3.746-2.217-7.83-3.414-12.091-4.056-2.028-.304-4.079-.49-6.123-.65-.876-.068-1.77.064-2.73.109-1.712-1.552-2.45-3.769-3.7-5.678Zm7.306 20.487c-3.442-2.067-7.062-3.78-10.985-4.698-1.935-.45-3.912-.73-6-1.11-.041-.6-.09-1.247-.137-1.954.36-.282.687-.563 1.045-.82 3.151-2.14 6.514-3.819 10.252-4.68 2.602-.632 5.3-.752 7.948-.356 2.411.383 4.833.75 7.21 1.293 4.186.96 7.848 3.076 11.317 5.53 3.842 2.714 7.078 6.083 10.168 9.598.097.17.171.353.22.544-.563.025-1.037.064-1.518.07-7.886.067-15.798.124-23.699.211a2.593 2.593 0 0 1-1.796-.67 34.777 34.777 0 0 0-4.025-2.958ZM19.6 78.515c.535-.386 1.169-.222 1.76-.225 5.177-.037 10.36-.034 15.536-.07l45.113-.336h2.016c.395 1.076.167 2.04.172 3.098-.515.045-.89.11-1.264.107-1.95 0-3.901-.022-5.85-.064-3.617-.08-7.233-.251-10.85-.257-11.03-.011-22.057.014-33.083.076-3.118.014-6.233.17-9.35.25a31.7 31.7 0 0 1-2.006 0c-1.758-.098-2.254-.68-2.194-2.579Zm122.238 63.519c-.786.244-1.592.417-2.408.518-.828.082-1.668.017-2.504.017-7.56-.563-15.133-.265-22.702-.366-4.005-.054-8.01-.248-12.015-.197-3.89.05-7.776.335-11.666.518-3.004.143-6.009.284-9.013.425-1.668.076-3.338.127-5.005.192-.166 0-.335.033-.501.028-4.169-.152-8.34-.282-12.509-.47-1.943-.088-3.88-.282-5.822-.417-2.605-.198-5.207-.417-7.813-.609-.777-.056-1.557-.039-2.337-.059-3.38-.084-6.777-.282-10.103-1.022a15.51 15.51 0 0 1-2.217-.707c-.532-.206-.707-.673-.636-1.231a.963.963 0 0 1 .997-.93c1.332 0 2.667.017 4 .091 3.097.169 6.212.495 9.325.543 6.455.104 12.914.045 19.372.096 11.134.087 22.267.163 33.399.324 8.57.127 17.138.403 25.709.563 3.661.068 7.348 0 11.021 0 .668 0 1.341-.034 2.003.031.491.075.973.199 1.439.369.563.175.744.651.797 1.166a1.03 1.03 0 0 1-.803 1.127h-.008Zm15.153-54.864c-1.865 9.726-3.988 19.389-6.715 28.918-1.408 4.917-2.704 9.858-4.225 14.756-.799 2.597-1.949 5.089-2.946 7.624a5.172 5.172 0 0 1-.391.651c-1.69-1.062-3.543-.845-5.366-.865-5.069-.068-10.139-.166-15.209-.242-2.839-.042-5.681-.026-8.52-.107-12.748-.369-25.501-.33-38.252-.417-8.131-.056-16.262-.11-24.391-.225-3.56-.048-7.12-.226-10.677-.398-1.496-.07-2.983-.281-4.597-.431-.493-1.211-1.028-2.481-1.535-3.765-3.098-7.839-5.3-15.939-6.94-24.189-1.355-6.816-2.501-13.674-3.74-20.513-.268-1.476-.547-2.951-.806-4.433-.065-.369-.073-.746-.121-1.276 6.917-.467 13.756-.31 20.586-.403 6.83-.093 13.7-.053 20.56 0 6.862.054 13.698.212 20.587.324.453.386.896.809 1.38 1.17 2.777 2.055 8.007 2.534 10.968.084a2.535 2.535 0 0 1 1.847-.564c3.727.164 7.456.305 11.182.462l13.182.564 12.674.563c2.89.13 5.782.282 8.675.391 3.726.147 7.455.26 11.182.392.543.02 1.081.067 1.76.113-.039.732-.042 1.284-.144 1.816h-.008Zm3.098-5.337c.341 1.304.341 1.304-.701 2.535-.44 0-.935.017-1.431 0-4.552-.203-9.104-.41-13.657-.62-3.944-.183-7.887-.383-11.83-.563-.89-.042-1.78-.031-2.67-.065-3.724-.135-7.446-.278-11.168-.428-.662-.028-1.323-.14-2.056-.22l2.177-2.107c.893.902 1.91 1.713 3.394 1.566 1.485-.146 2.341-1.143 3.127-2.402 11.621.777 23.262 1.549 34.829 2.304h-.014Zm9.559-45.673a123.408 123.408 0 0 1-5.069 17.789c-1.938 5.22-3.38 10.587-4.788 15.97-.845 3.171-1.834 6.298-2.766 9.44-.093.316-.254.612-.431 1.037-1.558.07-2.986.108-4.405-.3.281-1.328.65-2.536.822-3.792.547-3.943-.876-7.1-4.14-9.365-1.18-.817-2.496-1.44-3.701-2.124-.31-1.408.501-2.912-.687-4.239-.921 1.06 0 2.423-.879 3.465-3.397-1.904-6.974-3.138-11.142-2.504.228-.465.335-.713.464-.944 2.025-3.537 3.558-7.292 4.938-11.117 1.408-3.926 2.85-7.838 4.678-11.598a68.89 68.89 0 0 1 7.098-11.483c2.205-2.91 5.024-5.07 8.596-6.022a10.618 10.618 0 0 1 8.362 1.22c2.155 1.29 3.051 3.436 3.552 5.802.636 2.974.11 5.875-.487 8.765h-.015Z" fill="#321639"/><path d="M144.219 84.872c-2.892-.113-5.785-.262-8.675-.392l-12.674-.563-13.182-.563c-3.726-.158-7.455-.299-11.181-.462a2.535 2.535 0 0 0-1.848.563c-2.96 2.44-8.19 1.972-10.968-.084-.484-.36-.926-.783-1.38-1.17-6.889-.112-13.736-.264-20.586-.323-6.85-.06-13.697-.102-20.56 0-6.865.101-13.67-.065-20.587.403.048.53.056.907.121 1.275.26 1.482.538 2.958.806 4.434 1.24 6.838 2.385 13.697 3.74 20.513 1.64 8.249 3.853 16.35 6.94 24.188.507 1.285 1.042 2.555 1.535 3.766 1.614.155 3.098.36 4.597.431 3.557.172 7.117.349 10.677.397 8.129.115 16.26.169 24.392.225 12.75.088 25.503.048 38.251.417 2.839.082 5.681.065 8.52.107 5.07.076 10.14.175 15.21.242 1.822.026 3.661-.197 5.365.865a5.29 5.29 0 0 0 .392-.65c.997-2.535 2.146-5.028 2.946-7.625 1.509-4.887 2.816-9.838 4.225-14.756 2.726-9.528 4.85-19.192 6.714-28.917.102-.533.104-1.085.166-1.794-.678-.046-1.216-.093-1.76-.113-3.735-.155-7.464-.268-11.196-.414Zm-115.937.687c.526.499.678.94.174 1.769-.453-.693-.622-1.144-.169-1.769h-.005Zm3.619 19.367c-.791-.358-.817-1.028-.947-1.589-.281-1.186-.473-2.391-.692-3.59-.564-3.054-1.121-6.107-1.673-9.16-.088-.476-.082-.97-.144-1.8.403.436.645.586.715.794.282.783.512 1.584.69 2.397.752 3.862 1.465 7.734 2.2 11.601.088.428.248.851-.143 1.347H31.9Zm6.196 29.047c-.62.225-.822-.116-.907-.516a83.798 83.798 0 0 1-.659-3.43 4658.39 4658.39 0 0 1-2.582-15.421c-.136-.817-.161-1.653-.215-2.484.046-.233.121-.46.226-.673.18.328.334.671.459 1.025 1.6 6.861 2.794 13.801 3.8 20.769.002.248-.035.494-.11.73h-.012Zm13.458-25.546a13.343 13.343 0 0 1-.313-1.972c-.276-4.208-.537-8.417-.783-12.626a162.454 162.454 0 0 1-.206-5.487c-.02-.823 0-1.656.47-2.462.691.434.564 1.096.584 1.656.127 2.44.189 4.881.33 7.323.185 3.211.42 6.419.633 9.63.076 1.107.166 2.211.234 3.318.025.425.169.898-.513 1.332a2.636 2.636 0 0 1-.436-.712Zm2.174 26.613c-.76-.766-.758-1.447-.822-2.092-.98-9.83-1.07-17.717-.178-20.167.16.192.355.318.383.476.1.545.16 1.097.178 1.651.025 1.332.04 2.667 0 4.002-.093 3.782.281 7.543.563 11.308A69.16 69.16 0 0 1 54 133.88c0 .298-.138.597-.276 1.16h.006Zm19.153-29.774c-.33-2.647-.69-5.292-.944-7.948-.253-2.656-.414-5.323-.586-7.987a15.733 15.733 0 0 1 .04-2.333c.03-.34.253-.667.481-1.222.206.408.36.586.378.772.586 6.587 1.16 13.177 1.724 19.769 0 .124-.15.262-.282.49-.732-.417-.752-1-.82-1.541h.009Zm1.205 5.242c.135.085.33.132.36.234.375 1.146.403 5.732-.025 7.436-.315-.46-.515-.64-.577-.845-.369-1.293-.242-4.566.242-6.825Zm1.014 24.079c-.225-.186-.498-.302-.563-.493a3.873 3.873 0 0 1-.194-1.141c-.143-3.271-.278-6.541-.406-9.81a12.124 12.124 0 0 1 .048-1.662c.077-.275.195-.536.349-.777.924 2.205 1.442 11.607.76 13.883h.006Zm18.5-5.014c-.071 1.164-.178 2.324-.282 3.484-.088.981-.108 1.017-.778 1.865-.126-.372-.304-.651-.304-.93 0-1.112 0-2.227.085-3.334.2-2.713.442-5.422.67-8.135.07-.703.218-1.397.445-2.067l.445.054c.083.465.13.936.14 1.408a626.282 626.282 0 0 1-.427 7.655h.005Zm.69-17.181c-.018.31-.319.603-.603 1.104-.209-.394-.375-.563-.375-.74a8.832 8.832 0 0 1 .915-4.166c.544 1.253.138 2.526.057 3.791l.005.011Zm.261-12.553-.453.262a3.258 3.258 0 0 1-.243-.608 7.232 7.232 0 0 1-.185-1.316c-.036-3.228-.059-6.456-.068-9.686-.011-.5.033-1 .132-1.49.08-.346.324-.65.609-1.194.189.389.34.563.34.727.025 4.23.038 8.46.04 12.691-.031.208-.09.411-.177.603l.005.011Zm16.669 34.21c-.122.439-.122.439-.665 1.062-.654-.13-.521-.623-.454-1.042.376-2.254.759-4.495 1.15-6.724.347-1.966.706-3.929 1.078-5.889.087-.301.202-.594.344-.873.594 1.71-.423 9.692-1.459 13.455l.006.011Zm4.382-37.883c-.349 3.588-.803 7.168-1.197 10.751-.231 2.098-.425 4.197-.648 6.295-.056.524-.05 1.101-.811 1.459-.49-1.022-.262-1.915-.189-2.777.29-3.38.608-6.75.955-10.112.203-1.985.485-3.965.707-5.948.206-1.82.369-3.645.583-5.464.09-.715.218-1.425.383-2.127.04-.171.24-.312.53-.67.102.368.167.745.194 1.127-.149 2.484-.265 4.982-.507 7.466Zm19.04 27.18c-.482 1.828-.96 3.661-1.456 5.478-.454 1.662-.907 3.324-1.408 4.974-.167.563-.175 1.237-.983 1.594-.11-.281-.327-.563-.282-.816.132-.768.308-1.526.527-2.273a916.826 916.826 0 0 1 2.675-9.464c.164-.563.257-1.189.93-1.8.245.75.244 1.558-.003 2.307Zm1.29-7.132c-.096-.05-.268-.095-.282-.154a3.138 3.138 0 0 1 0-1.102c.504-1.662.727-3.428 1.747-5.07.402 1.62-.502 5.236-1.465 6.326ZM143 88.401c-.758 2.952-1.535 5.9-2.254 8.864-.456 1.884-.814 3.794-1.225 5.689-.124.563-.169 1.194-.876 1.69a2.66 2.66 0 0 1-.262-.772c.021-.554.076-1.106.167-1.653.712-4.33 1.836-8.562 3.01-12.781.251-.907.476-1.826.764-2.721.146-.319.329-.618.546-.893.462.96.335 1.769.13 2.577Z" fill="#7C6B58"/><path d="M167.115 21.593a10.615 10.615 0 0 0-8.359-1.22c-3.575.94-6.394 3.112-8.597 6.022a68.706 68.706 0 0 0-7.1 11.483c-1.828 3.76-3.264 7.672-4.678 11.598-1.38 3.825-2.913 7.58-4.938 11.117-.129.231-.236.48-.464.944 4.171-.634 7.745.6 11.142 2.504.873-1.042-.042-2.406.879-3.465 1.188 1.327.377 2.837.687 4.24 1.205.684 2.521 1.306 3.701 2.123 3.264 2.253 4.686 5.41 4.14 9.365-.172 1.245-.529 2.465-.822 3.791 1.408.409 2.847.372 4.405.302.177-.426.338-.722.431-1.037.932-3.143 1.935-6.27 2.765-9.441 1.409-5.382 2.859-10.75 4.789-15.97a122.998 122.998 0 0 0 5.069-17.79c.598-2.88 1.127-5.79.496-8.764-.496-2.366-1.391-4.512-3.546-5.802Z" fill="#D5AC78"/><path d="M73.222 76.791H84.02a38.24 38.24 0 0 0 3.458-8.827c.257-1.03.521-2.036 1.256-2.58.164-5.264.223-10.334.51-15.386.287-5.053.797-10.05 1.217-15.168a5.895 5.895 0 0 0-2.191.13c-3.355.783-6.723 1.524-10.072 2.33-2.817.675-5.602 1.464-8.21 2.751-.85.412-1.657.909-2.406 1.484a4.016 4.016 0 0 0-1.662 3.315c.023 1.223-.025 2.465.186 3.662 1.57 8.827 3.848 17.488 6.261 26.115.246.74.531 1.465.854 2.174Zm8.334-24.11c0-.563-.017-1.112 0-1.667.016-.333.066-.664.147-.988.143-.578.481-1.028 1.09-1.127a1.225 1.225 0 0 1 1.27.634c.381.61.707 1.255.974 1.923a23.415 23.415 0 0 1 1.296 5.842c.152 1.324.265 2.653.301 3.985a5.718 5.718 0 0 1-.301 1.972c-.397 1.146-1.572 1.327-2.352.377a4.269 4.269 0 0 1-.783-1.456 40.71 40.71 0 0 1-1.076-4.185c-.32-1.744-.496-3.515-.732-5.273l.166-.036Z" fill="#F8F3DD"/><path d="M141.851 139.736a7.39 7.39 0 0 0-1.44-.369c-.662-.065-1.335-.031-2.002-.031-3.662 0-7.349.059-11.021 0-8.571-.161-17.139-.437-25.71-.564-11.13-.16-22.25-.236-33.398-.324-6.459-.05-12.917 0-19.373-.095-3.098-.048-6.216-.375-9.325-.544a67.558 67.558 0 0 0-4-.09.96.96 0 0 0-.997.929c-.07.564.104 1.026.637 1.231.72.291 1.46.527 2.216.707 3.327.735 6.712.938 10.103 1.023.78.019 1.56 0 2.338.059 2.605.191 5.208.411 7.813.608 1.94.149 3.879.33 5.822.417 4.168.183 8.34.318 12.508.47.166 0 .335-.022.502-.028 1.667-.065 3.337-.115 5.005-.191 3.004-.136 6.008-.277 9.013-.426 3.89-.183 7.776-.467 11.666-.518 4.005-.051 8.01.144 12.015.197 7.568.102 15.142-.183 22.701.366.845 0 1.676.065 2.504-.017a13.704 13.704 0 0 0 2.431-.504 1.03 1.03 0 0 0 .8-1.126c-.065-.53-.251-1.006-.808-1.18Z" fill="#7C6B58"/><path d="M141.377 70.35a11.64 11.64 0 0 0 2.169-4.983c-2.192-1.323-4.33-2.394-6.724-2.76-3.675-.563-6.807.375-9.159 3.473a24.346 24.346 0 0 0-3.884 7.337c-.2.623-.341 1.267-.518 1.932 1.126.755 1.859 1.69 2.059 3.098l25.275 1.69c3.186-6.055.634-12.11-5.844-13.877l-2.019 4.554c.766-.115 1.408-.233 2.056-.306.377-.04.802-.08.952.523-.189.147-.381.412-.614.457-.915.218-1.849.346-2.789.383a7.844 7.844 0 0 1-4.36-1.482c-.36-.245-.704-.563-.312-1.2 1.267.206 2.264 1.42 3.712 1.16Z" fill="#91B658"/><path d="M90.31 49.367c-.366 4.99-.41 10.004-.585 15.009.023.325.08.647.169.96h2.94c.037-.473.082-.845.093-1.225.14-4.895.242-9.793.431-14.688.079-2.053.31-4.101.51-6.149.25-2.602.563-5.199.805-7.802.152-1.549.203-3.098.386-4.655.673-5.633 1.16-11.289 2.253-16.86.493-2.504 1.155-4.98 1.848-7.441a6.154 6.154 0 0 1 1.206-2.16c.844-1.034 1.873-1 2.658.044.374.483.631 1.046.75 1.645.264 1.586.563 3.194.563 4.788 0 4.45-.149 8.9-.268 13.35-.059 2.282-.183 4.56-.281 6.84-.057 1.329-.113 2.655-.172 3.996.179.148.367.286.563.411.219.108.445.202.676.282.51-.687.38-1.321.403-1.918.115-3.056.265-6.115.301-9.174.057-4.675.076-9.353.02-14.029a20.306 20.306 0 0 0-.941-5.746 5.492 5.492 0 0 0-1.633-2.673c-1.972-1.661-2.952-1.247-4.191.35-.351.43-.644.903-.873 1.408a31.17 31.17 0 0 0-1.217 3.278c-2.296 7.887-3.74 15.914-4.65 24.05-.651 6.034-1.319 12.064-1.763 18.109Z" fill="#7C6B58"/><path d="M69.144 39.26c1.51-.698 3.039-1.43 4.639-1.847 4.993-1.304 10.024-2.476 15.046-3.681.577-.138 1.18-.17 1.743-.248.414-1.011.423-1.927.282-3.12-.738.123-1.285.177-1.811.309-2.372.597-4.727 1.262-7.107 1.814-5.247 1.22-10.51 2.386-15.668 3.963-.9.281-1.781.622-2.636 1.02-1.797.825-2.625 2.284-2.73 4.241-.09 2.113.092 4.229.541 6.295a533.965 533.965 0 0 0 5.633 24.71c.35 1.391.752 2.768 1.127 4.16 1.313.188 2.484.264 3.695-.282-.369-1.127-.743-2.18-1.039-3.245-2.124-7.66-4.112-15.356-5.58-23.18a24.086 24.086 0 0 1-.487-5.3 5.315 5.315 0 0 1 1.972-4.07 11.04 11.04 0 0 1 2.38-1.538Z" fill="#F8F3DD"/><path d="M33.151 80.839a5883.65 5883.65 0 0 1 33.083-.076c3.617 0 7.233.177 10.85.256 1.949.042 3.9.053 5.85.065.374 0 .749-.062 1.264-.107 0-1.054.223-2.017-.171-3.099H82.01c-15.046.117-30.08.23-45.102.341-5.176.037-10.359.034-15.536.07-.591 0-1.225-.16-1.76.226-.06 1.898.437 2.481 2.194 2.569.668.03 1.338.022 2.005 0 3.107-.076 6.222-.231 9.34-.245ZM122.165 81.934c-1.484.147-2.501-.665-3.394-1.566l-2.177 2.107c.732.079 1.394.192 2.056.22 3.723.154 7.446.296 11.167.428.89.034 1.781.022 2.671.065 3.943.183 7.886.383 11.829.563 4.552.214 9.104.42 13.657.62.496.02.992 0 1.431 0 1.042-1.24 1.042-1.24.702-2.535-11.568-.755-23.2-1.521-34.813-2.302-.791 1.257-1.619 2.248-3.129 2.4Z" fill="#7C6B58"/><path d="M101.526 34.047c-.299-.653-.522-1.343-.829-1.994-.614-1.304-1.222-2.61-1.912-3.875a4.557 4.557 0 0 0-1.972-1.972c-.242 2.011-.462 3.856-.681 5.67 1.276 1.63 1.771 3.52 2.278 5.388.693 2.569 1.299 5.163 1.955 7.743.107.414.282.814.425 1.236 2.231-.422 3.71.515 4.758 2.386.352-2.214.642-2.704 2.534-4.211-.197-3.38-1.38-6.154-4.371-7.943a5.385 5.385 0 0 1-2.185-2.428Z" fill="#91B658"/><path d="m99.678 76.67 1.69-3.044c-.321.028-.639.084-.955.081a3.408 3.408 0 0 1-2.042-.622c-2.106-1.544-1.94-4.92.321-6.228.392-.225.82-.386 1.276-.594-2.129-1.603-2.788-3.21-2.137-5.047.695-1.955 2.349-2.817 5.148-2.696-1.073-2.084-1.169-4.044.718-5.743-.619.192-1.329.099-1.842.564.139.668.227 1.346.265 2.028-.028 1.475-.845 2.506-2.124 3.134a3.13 3.13 0 0 1-3.593-.447c-1.792-1.504-1.778-4.55 0-6.067.332-.282.698-.527 1.013-.764-.337-2.89-1.59-7.534-2.354-8.652-.727 7.557-.918 15.063-1.158 22.66 1.076.5 1.268 1.545 1.445 2.596.141.823.282 1.642.437 2.465a14.673 14.673 0 0 0 2.47 5.788c.408.597.842.845 1.422.588Z" fill="#F8F3DD"/><path d="M99.531 46.274c-.74-3.128-1.51-6.25-2.312-9.368-.242-.943-.625-1.853-.944-2.777-.405 1.473-.54 2.904-.754 4.324-.147.963-.107 1.836.397 2.72.36.69.63 1.422.802 2.18.598 2.254 1.153 4.507 1.713 6.76.104.414.107.873.55 1.101.095-.081.157-.11.168-.152a.592.592 0 0 0 .037-.307 3.943 3.943 0 0 1 .242-3.222c.171-.397.207-.84.101-1.259ZM139.273 42.22c.099-.182.188-.37.267-.562a1.393 1.393 0 0 0-.022-.398c-6.847-2.01-12.734-5.793-18.294-10.243-.16.236-.281.416-.448.67 3.177 3.591 12.818 9.064 18.497 10.534ZM103.08 82.044c1.511.1 3.026.107 4.538.023l-.353-1.592c-2.934 1.879-5.914 1.296-7.483-2.568l-.975-.13c-.2 1.375-.464 2.65-.326 3.96 1.605.11 3.101.26 4.599.307ZM102.373 73.15l.02-.02h-.031l.011.02ZM87.11 74.316a1.41 1.41 0 0 0-.642.084c-.166.09-.262.313-.43.535l1.038.696c.907-.073 1.673-.147 2.44-.197 1.763-.11 3.526-.212 5.286-.316.476-.028.868-.152.896-.726a.978.978 0 0 0-.313-.119c-2.758.01-5.516.024-8.275.043ZM107.361 59.78v.022h.029l-.029-.023ZM85.651 76.056c3.304 2.67 6.994 4.53 11.165 5.332-3.963-1.293-7.602-3.228-11.165-5.332ZM87.285 72.955c-.093 0-.178.214-.375.468h8.636c-.172-.338-.282-.564-.448-.888-2.614.136-5.214.268-7.813.42ZM104.713 52.107a.041.041 0 0 0 0-.023h-.03l.03.023ZM117.067 75.814H117l.043.035.024-.035ZM115.051 70.806v.028h.024l-.024-.028ZM94.166 68.055c-1.482-.243-4.414-.24-5.864.061 1.478.527 4.582.696 5.9.4-.01-.152-.025-.32-.036-.462ZM93.32 83.77a4.053 4.053 0 0 0 2.572-1.261c-.98-.327-1.78-.713-2.853-.786.144.744-.15 1.4.282 2.048ZM88.916 66.542c1.248.64 5.07.715 5.304.358l-.136-.358h-5.168ZM111.722 65.816l-.023-.026a.194.194 0 0 1-.014.026h.037ZM86.3 82.467l2.236-1.538c-1.279 0-2.172-.197-3.067.065.076.822.076.822.83 1.473ZM92.78 77.85a4.382 4.382 0 0 0 1.763-1.81c-.746-.161-1.312-.12-1.842.351.023.445.048.876.079 1.46ZM87.361 82.895c2.335-.718 3.14-1.279 3.625-2.377l-3.625 2.377ZM97.394 76.397c-.82.769-1.428 1.211-1.893 2.143l2.174-.476c-.09-.54-.157-.935-.281-1.667ZM87.852 70.862l6.227-.191.048-.068h-5.915c-.09.009-.169.127-.36.26ZM90.794 83.968c.037-.51.074-.879.082-1.25 0-.074-.113-.153-.211-.282-.7.304-1.342.727-1.898 1.25l2.028.282ZM88.474 69.702h5.633v-.118h-5.633v.118ZM85.474 77.673c-.05.315-.09.563-.158 1.008l2.178.234c-.623-.515-1.085-1.22-2.02-1.242ZM85.77 80.025c1.127.014 2.273 0 3.408 0-1.2-.054-2.369-.69-3.661-.31.118.169.191.31.253.31ZM108.708 76.51h.025v-.031l-.025.03ZM88.665 76.563l1.876.983c-.132-.586-.209-.918-.301-1.332l-1.533.09-.042.26ZM91.814 81.782v2.03c.51-1.134.51-1.134 0-2.03ZM112.546 81.402c-.132.355-.219.594-.352.958l2.034.09-1.682-1.048Z" fill="#7C6B58"/><path d="m117.106 75.855-.041-.041-.023.026.064.014ZM92 71.817h.321l-.017-.022-.304.022ZM87.939 72.192 92 71.817l-4.081.09.02.285ZM91.735 78.205c.223-.87.282-1.436-.422-2.098-.031.82-.045 1.36.422 2.098ZM92.322 71.811c.02 0 .042 0 .061-.022h-.078l.016.022ZM92.394 71.789h2.152c-.743-.144-1.461-.324-2.152 0ZM95.642 79.439l.845-.256-.884.118.039.138ZM96.486 79.18l.178-.023-.02-.025-.158.048ZM96.338 75.394c-.121.299-.209.521-.296.744.346-.056.676-.14.296-.744ZM96.035 76.138h-.033l.022.022.011-.022ZM97.205 79.966h-.423v.118l.42.042c-.006-.053 0-.101.003-.16ZM97.183 78.898l-.46.234h.51l-.05-.234Z" fill="#7C6B58"/><path d="m96.665 79.16.049-.025h-.07l.02.026ZM111.848 65.72l-.149.07.023.025.126-.096ZM95.284 76.897l.058-.049-.017-.02-.04.07Z" fill="#7C6B58"/><path d="m95.34 76.848.33-.341-.023-.026-.324.347.017.02ZM108.66 76.456l.049.055.021-.023-.07-.032ZM96.025 76.166l-.023-.022-.355.337.023.026.355-.341ZM122.044 74.875l.035-.05h-.003l-.032.05Z" fill="#7C6B58"/><path d="m122.078 74.827.058-.053-.061.053h.003ZM115.132 70.727l-.081.079.022.022.059-.1ZM107.423 59.692c-.02.03-.042.059-.062.087l.023.022c.014-.036.028-.073.039-.109ZM104.657 59.748l.047.05.008-.006-.055-.044ZM43.206 54.428l-.009.009.047.04-.038-.05ZM104.646 52.16l.07-.052-.02-.02-.05.072ZM40.17 48.054l.04.038.018-.006-.058-.032Z" fill="#7C6B58"/><path d="M115.386 88.243a20.171 20.171 0 0 0-.383 2.127c-.215 1.82-.378 3.644-.583 5.464-.223 1.971-.505 3.963-.707 5.949a672.177 672.177 0 0 0-.955 10.111c-.073.862-.302 1.755.188 2.777.761-.358.755-.935.812-1.459.222-2.098.416-4.197.647-6.295.395-3.583.845-7.162 1.197-10.75.243-2.485.358-4.983.507-7.473a5.592 5.592 0 0 0-.194-1.127c-.29.364-.49.505-.529.676ZM52.498 107.807c-.068-1.107-.158-2.211-.234-3.318-.214-3.211-.448-6.419-.634-9.63-.14-2.439-.203-4.88-.33-7.323-.027-.563.108-1.222-.582-1.656-.457.806-.49 1.64-.47 2.462.042 1.83.1 3.661.205 5.487.242 4.211.503 8.42.783 12.626.055.664.16 1.323.313 1.972.106.259.254.5.436.712.696-.433.538-.907.513-1.332ZM33.97 111.449c-.104.213-.18.44-.225.673.054.845.079 1.668.214 2.484.845 5.143 1.706 10.284 2.583 15.421.194 1.149.42 2.293.659 3.43.084.4.282.741.907.516.079-.235.12-.482.121-.73-1.005-6.968-2.2-13.908-3.8-20.769a6.753 6.753 0 0 0-.459-1.025ZM73.965 106.317c-.563-6.59-1.138-13.18-1.723-19.77-.017-.185-.172-.363-.378-.771-.228.563-.45.882-.481 1.222-.071.776-.084 1.555-.04 2.332.172 2.665.33 5.332.586 7.988.256 2.656.614 5.301.944 7.949.067.54.098 1.126.805 1.54.127-.228.299-.366.287-.49ZM53.295 118.91c.034-1.335.02-2.67 0-4.002a11.197 11.197 0 0 0-.177-1.651c-.029-.158-.223-.281-.384-.476-.884 2.462-.802 10.326.172 20.167.065.645.062 1.326.823 2.092.138-.563.281-.861.281-1.157a68.905 68.905 0 0 0-.146-3.662c-.293-3.768-.662-7.528-.569-11.311ZM142.323 86.706c-.281.895-.512 1.813-.763 2.72-1.175 4.225-2.298 8.45-3.011 12.782a13.09 13.09 0 0 0-.166 1.653c.047.269.135.53.262.772.707-.485.752-1.104.876-1.69.411-1.896.769-3.805 1.225-5.69.718-2.963 1.495-5.914 2.253-8.863.206-.808.332-1.614-.129-2.589a4.438 4.438 0 0 0-.547.904ZM29.867 91.978a19.218 19.218 0 0 0-.69-2.397c-.07-.208-.312-.358-.715-.794.062.83.056 1.324.144 1.8.546 3.057 1.104 6.11 1.673 9.16.22 1.199.42 2.404.692 3.59.13.564.155 1.231.947 1.589.391-.496.23-.918.15-1.347-.747-3.867-1.46-7.74-2.2-11.6ZM112.325 121.445c-.376 1.96-.736 3.923-1.079 5.889-.395 2.238-.778 4.48-1.149 6.723-.068.42-.2.913.453 1.043.544-.623.544-.623.665-1.062 1.036-3.763 2.053-11.745 1.45-13.463-.141.278-.255.57-.34.87ZM133.719 122.836a916.826 916.826 0 0 0-2.675 9.464 20.346 20.346 0 0 0-.527 2.273c-.037.242.18.526.281.817.809-.358.817-1.034.983-1.595.491-1.65.944-3.312 1.409-4.974.495-1.825.974-3.661 1.456-5.478a3.698 3.698 0 0 0 0-2.307c-.67.614-.763 1.237-.927 1.8ZM93.434 120.456a9.299 9.299 0 0 0-.445 2.068c-.229 2.712-.47 5.422-.67 8.134-.082 1.107-.09 2.222-.085 3.335 0 .281.177.563.304.929.67-.845.69-.884.777-1.864.102-1.161.209-2.321.282-3.484.155-2.549.304-5.101.425-7.65a9.304 9.304 0 0 0-.14-1.409l-.448-.059ZM73.977 121.481c-.054.553-.07 1.108-.047 1.662.123 3.271.259 6.541.405 9.81.008.388.073.773.195 1.141.067.191.34.307.563.493.679-2.276.163-11.678-.77-13.883-.152.241-.269.503-.346.777ZM94.338 85.796c-.281.543-.53.845-.608 1.194-.1.49-.144.99-.133 1.49.012 3.231.034 6.46.068 9.686.021.443.084.884.186 1.315.06.21.141.415.242.609l.454-.262c.085-.196.143-.403.171-.614 0-4.23-.013-8.461-.04-12.692 0-.169-.151-.338-.34-.726ZM74.441 110.742c-.03-.101-.225-.149-.36-.234-.479 2.253-.606 5.532-.242 6.811.061.219.261.4.577.845.428-1.69.4-6.276.025-7.422ZM135.665 114.95a3.133 3.133 0 0 0 0 1.101c0 .059.174.104.282.155.968-1.09 1.867-4.706 1.478-6.332-1.033 1.657-1.256 3.423-1.76 5.076ZM93.307 112.745c0 .174.166.346.375.74.281-.501.585-.794.602-1.104.07-1.264.488-2.535-.062-3.802a8.832 8.832 0 0 0-.915 4.166ZM28.286 85.56c-.453.624-.281 1.075.175 1.768.504-.825.352-1.27-.175-1.769ZM162.701 26.792c-1.016-.183-1.636.383-2.236.96a17.266 17.266 0 0 0-3.625 5.163 58.464 58.464 0 0 0-1.448 3.38c-1.146 2.892-2.23 5.813-3.413 8.689a19.639 19.639 0 0 0-1.251 4.647c-.512 3.47-1.191 6.904-2.478 10.185-.282.727-.564 1.456-.786 2.197-.065.205.028.462.059.822.282-.22.451-.281.518-.422 1.69-3.284 3.059-6.656 3.236-10.421.093-1.997.369-3.966 1.237-5.83.958-2.065 1.791-4.186 2.664-6.29.812-1.95 1.595-3.912 2.414-5.861a17.093 17.093 0 0 1 2.817-4.507c.349-.405.752-.766 1.332-1.352.38 3.766-.141 7.016-1.71 10.067a14.946 14.946 0 0 0-1.785 6.875c0 1.887-.707 3.478-1.871 4.878-3.241 3.91-4.9 8.537-6.196 13.345-.09.321-.14.652-.146.986.051.318.138.63.259.93.346-.429.619-.64.715-.913a7.536 7.536 0 0 0 .439-1.775c.178-2.047 1.028-3.85 1.938-5.633a37.745 37.745 0 0 1 4.076-6.478c1.253-1.569 2.011-3.38 1.994-5.377.002-2.177.543-4.32 1.574-6.239 1.825-3.545 2.087-7.337 1.89-11.212a3.642 3.642 0 0 0-.217-.814ZM83.204 62.156a4.27 4.27 0 0 0 .783 1.457c.78.949 1.955.769 2.352-.378a5.718 5.718 0 0 0 .302-1.971 46.002 46.002 0 0 0-.302-3.986 23.417 23.417 0 0 0-1.296-5.841 12.088 12.088 0 0 0-.974-1.924 1.226 1.226 0 0 0-1.27-.634c-.609.107-.947.564-1.09 1.127-.081.324-.13.655-.147.988-.022.564 0 1.11 0 1.668l-.152.042c.237 1.758.411 3.53.733 5.273.28 1.41.634 2.806 1.061 4.18Zm-.41-12.187c.807.527.948 1.194 1.174 1.797.687 1.825.988 3.743 1.242 5.664.143 1.099.225 2.206.31 3.31a3.473 3.473 0 0 1-.426 2.23c-.253-.32-.563-.563-.664-.87-.448-1.538-.907-3.078-1.223-4.647-.481-2.389-.78-4.808-.414-7.484ZM26.135 70.167c-.214-.282-.37-.66-.65-.845a16.96 16.96 0 0 0-2.758-1.513 48.138 48.138 0 0 0-5.042-1.653c-1.6-.425-3.242-.699-4.878-.975-.611-.104-1.313-.31-1.817.31.166.612.642.609 1.065.673.766.122 1.54.19 2.295.35 3.634.769 7.23 1.662 10.47 3.594.332.15.681.265 1.039.34l.276-.281ZM34.033 74.696c.21.07.478-.034.771-.065-.738-1.276-2.442-2.267-4.14-2.405.611.946 2.155 2.075 3.369 2.47ZM42.823 63.562c4.447 2.735 8.472 5.943 11.489 10.278.279.415.602.8.963 1.146.14.135.448.096.975.189-.338-.696-.488-1.172-.767-1.55a41.425 41.425 0 0 0-2.768-3.548c-3.98-4.315-8.836-7.439-14.024-10.08a6.783 6.783 0 0 0-1.197-.367c-.073.132-.143.265-.217.394.301.288.623.553.964.792 1.526.93 3.075 1.81 4.582 2.746ZM21.029 54.473c.538.132 1.093.191 1.628.335 1.82.482 3.633.989 5.45 1.479.816.28 1.695.321 2.535.12a31.896 31.896 0 0 0-10.14-2.993c-.281-.037-.563.15-.845.234v.408c.454.14.916.304 1.372.417Z" fill="#321639"/><path d="M84.43 62.1c.09.31.41.55.664.87.388-.675.538-1.46.425-2.23-.084-1.104-.166-2.211-.31-3.31-.253-1.92-.563-3.839-1.241-5.664-.226-.603-.367-1.27-1.175-1.797-.366 2.676-.068 5.095.414 7.484.316 1.569.775 3.11 1.223 4.647ZM83.399 94.414l.185-.107.26-.146.335-.178.81-.357.86-.206c-.068.132-.138.262-.209.394.044.028.091.047.141.057.223 0 .595-.535.564-.797l.476-.147a.068.068 0 0 0 .05-.02l.282-.081.352-.093a16.012 16.012 0 0 1 8.393.135l.141.042.09.031.144.034.087.037.226.073a.564.564 0 0 0 .484.459c.24.092.462.22.662.38.053.366.208.195.355.068l.144.059c0-.031-.02-.062-.031-.093l-.102-.265.223.093a15.386 15.386 0 0 1 7.069 6.644c.048.093.099.186.149.282.017.04.037.082.054.124l-.335-.253-.189-.144.116.203c.016.189.07.372.157.54.231.243.478.469.741.676 2.372 6.028 1.552 11.591-2.56 16.593a15.025 15.025 0 0 1-8.28 5.137c-3.268.783-6.53.673-9.625-.648-6.247-2.664-9.61-7.48-10.058-14.246-.096-1.425.26-2.878.409-4.32l.737-.431-.076-.082-.543.059.281-.935c.031-.093.065-.189.099-.282.152-.352.304-.704.46-1.056l.154-.31.06-.163.213-.155.38-.062a.95.95 0 0 0 .282-.132c.087-.088.11-.254.206-.31.096-.056.214.034.327.053a1.98 1.98 0 0 1-.04-.363c0-.034.107-.059.152-.098.164-.156.337-.3.518-.434.302-.192.431-.36.082-.64-.042-.033.056-.326.158-.442.383-.448.794-.87 1.194-1.304l-.017-.16.107-.08c.47.161.35-.261.456-.461a.629.629 0 0 0 .186-.715l1.127-.874.927-.583Zm11.5-.563.13.028-.13-.022h-.155l-.609-.155-1.146-.212c-1.31-.16-2.605-.647-3.943-.087l4.036.158 1.056.143.608.153.153-.006Zm4.185.682v.157l.389.037-.39-.194Zm-10.35 19.544c.061.16.126.318.185.478.042.105.076.212.113.319.081-.062.245-.141.233-.178a1.237 1.237 0 0 0-.186-.304.939.939 0 0 1-.067-.183l.144-.166-.423.034Zm-1.206-7.805c.028-.307.067-.617.076-.927a.398.398 0 0 0-.257-.101c-.216.222-.101.862.172 1.034h.344l-.031-.144-.304.138Zm7.421 2.298-.197.282c.09.034.185.054.282.059.212-.011.422-.047.625-.11.073-.025.124-.18.135-.281 0-.054-.107-.181-.144-.172-.233.062-.473.149-.692.222h-.009Zm.048-7.604-.067-.099c-.221-.01-.442.004-.66.039-.12.029-.208.184-.31.282.116.065.26.211.339.183a5.03 5.03 0 0 0 .707-.391l-.009-.014Zm-2.163 9.917c.048.222.037.386.099.422.162.075.332.131.507.166a1.083 1.083 0 0 0-.119-.436c-.064-.076-.245-.073-.479-.138l-.008-.014Zm8.703-11.976.73.194c0-.07.025-.192 0-.2a6.37 6.37 0 0 0-.643-.186 1.917 1.917 0 0 1-.078.206l-.009-.014Zm-7.67 20.67-.016.147c.304.065.605.135.912.186.054 0 .119-.054.178-.085-.034-.05-.065-.138-.104-.143-.313-.031-.637-.06-.96-.091l-.01-.014Zm-4.97-14.744c-.488-.499-.488-.499-.772-.065l.772.065Zm9.984-10.72c-.201.055-.4.12-.594.194-.02 0 .014.15.022.228.175-.033.352-.053.521-.104.043.006.043-.118.06-.304l-.009-.014ZM96.58 121.99l-.082-.079a7.898 7.898 0 0 1-.264.158l-.4.211c.03.034.07.102.093.096a2.2 2.2 0 0 0 .481-.155c.076-.034.116-.146.172-.231Zm-5.12-13.787v.428c.146-.031.295-.056.439-.101 0 0 0-.18-.031-.206a1.81 1.81 0 0 0-.408-.118v-.003Zm-6.03 2.521-.178.056c.053.189.101.378.172.564 0 .019.143 0 .22-.017l-.215-.603Zm3.942 7.886.099-.149-.738-.445-.076.13.716.464Zm7.295-24.18c.088.152.105.234.147.25.177.063.36.102.54.153-.02-.068-.022-.178-.061-.194-.16-.082-.341-.127-.62-.217l-.006.008Zm-2.653 26.518c.054.127.06.197.093.214.113.062.234.104.352.155 0-.082.02-.208-.022-.237a1.854 1.854 0 0 0-.417-.14l-.006.008Zm-.53-5.915.065.161.474-.2-.057-.133-.481.172ZM85.1 101.526l.03.239c.132-.021.261-.054.387-.098.028 0 0-.141 0-.217l-.417.076Zm6.168 8.41c.02.13 0 .254.048.268a.69.69 0 0 0 .315.036c.014 0 .045-.194.023-.202a2.14 2.14 0 0 0-.386-.102Zm-2.557 2.997-.11.09c.127.124.25.254.383.372 0 0 .073-.048.112-.076l-.385-.386Zm3.754.823-.03.281c.14-.044.278-.097.413-.158.028-.014 0-.112.014-.171l-.397.048Zm3.143-19.55.45-.155a.844.844 0 0 0-.126-.245.195.195 0 0 0-.189 0 2.06 2.06 0 0 0-.143.4h.008Zm-4.788 16.739c.012.128.034.255.068.38 0 .031.112.031.172.042a3.054 3.054 0 0 0 0-.358c-.006-.019-.108-.028-.248-.064h.008Zm-3.315-3.775-.118-.112c-.102.101-.206.203-.302.31 0 0 .048.067.077.104l.343-.302Zm1.834 6.676c.045.129.053.25.098.264.095.013.19.006.282-.022 0-.059 0-.161-.037-.175a1.407 1.407 0 0 0-.352-.067h.009Zm-2.113-6.081c.014.098 0 .191.031.2.091.029.187.04.282.034a.409.409 0 0 0 .025-.164 2.72 2.72 0 0 0-.346-.07h.008Zm.034 5.131c0 .095.011.19.031.282.101.02.206.02.307 0 .034 0 .034-.124.05-.191l-.388-.091Zm8.672.454c0 .099-.034.189-.02.194a.52.52 0 0 0 .24.048c.04 0 .067-.098.099-.152l-.319-.09Zm-.746 7.284a1.7 1.7 0 0 0 .163.346c.042.042.138.037.209.054a1.55 1.55 0 0 0-.113-.282c-.037-.045-.115-.054-.268-.118h.009Zm5.157-25.4-.079.101c.101.085.2.172.301.254l.068-.062-.29-.293Zm-10.14 17.674c-.155.065-.236.076-.281.121a.182.182 0 0 0-.017.177.18.18 0 0 0 .177.026c.06-.009.06-.096.133-.313l-.012-.011Zm9.467-17.995c.036.101.045.186.076.197.064.012.13.012.194 0 0-.06 0-.138-.04-.169-.039-.031-.1-.011-.219-.017l-.011-.011Zm-5.867 12.359c.106-.028.208-.069.304-.121.04-.031.042-.11.062-.166a.87.87 0 0 0-.237.045c-.036.033-.05.101-.13.242Zm-5.515 15.347c0 .062 0 .13.031.155.031.025.093 0 .14 0l-.013-.174-.158.019Zm1.03-16.367a.705.705 0 0 0-.196.107c-.023.023 0 .085 0 .133a.592.592 0 0 0 .174-.054c.029-.014.017-.084.029-.186h-.006Zm4.947 8.092-.037.144c.06 0 .135.025.178 0 .042-.026.045-.107.067-.164l-.208.02Zm.611-6.591c.025.077.028.136.056.161.028.025.085 0 .127.014 0-.051 0-.113-.022-.146-.023-.034-.082-.017-.155-.029h-.006Zm-3.124 14.985c.017.056.02.121.048.129.02.006.042.006.063.002a.13.13 0 0 0 .056-.03c.017-.031 0-.087-.017-.132l-.15.031Zm1.36-7.169c.068 0 .122.029.156 0 .034-.028.05-.07.076-.109a.515.515 0 0 0-.17-.034c-.013.011-.03.087-.056.143h-.005Zm2.975-22.09-.042.096a.564.564 0 0 0 .112.045s.043-.068.034-.076a.543.543 0 0 0-.098-.065h-.006Zm-7.072 25.431-.05.149h.092a.648.648 0 0 0 .087-.124l-.13-.025Zm5.822-4.002c.033 0 .067.025.095.016.028-.008.026-.047.037-.073l-.121-.031-.011.088Zm.602-20.86.043.017-.017-.042-.026.025Z" fill="#F8F3DD"/><path d="M83.587 109.497a.19.19 0 0 1 .062.183v.282a.69.69 0 0 0 .03.126c.043-.084.071-.135.094-.188.191-.445.377-.89.563-1.335l.662-1.53a.473.473 0 0 0 .048-.281c-.017-.133 0-.282 0-.406 0-.242-.028-.482-.031-.724-.003-.242 0-.526 0-.791 0-.116.084-.178.138-.257h.076c.093.017.186.04.281.051.067.006.134.006.2 0h.051c.203-.017.307.118.228.31-.022.051-.04.09 0 .135.022.086.037.174.045.262.023.465.04.93.06 1.408.02.479.039.986.064 1.482.026.496.051.963.08 1.448a.66.66 0 0 0 .041.307c.029-.079.048-.13.065-.181a3.53 3.53 0 0 1 .228-.667c.043-.071.028-.172.054-.256.174-.564.35-1.127.532-1.674.2-.599.406-1.194.62-1.788.059-.172.096-.346.152-.518.037-.11.079-.189.211-.203.133-.014.18-.068.282.02-.031.11-.06.228-.099.346-.138.439-.281.879-.422 1.318-.04.127-.08.257-.121.383-.102.299-.206.595-.305.893-.076.228-.14.459-.22.69-.106.318-.222.637-.332.955-.093.282-.186.538-.281.811-.124.392-.24.786-.36 1.177-.043.13-.097.254-.144.381a.23.23 0 0 1-.197.16c-.207.03-.416.035-.623.014a.099.099 0 0 1-.044-.011.111.111 0 0 1-.06-.115c0-.102 0-.2-.014-.302 0-.383 0-.766-.026-1.149-.025-.383-.033-.845-.042-1.248v-.757c0-.082 0-.164-.025-.282a.867.867 0 0 0-.07.104c-.237.504-.417 1.031-.64 1.541-.104.242-.222.476-.324.718-.101.242-.16.409-.24.614-.078.206-.168.451-.258.676a.237.237 0 0 1-.228.172c-.172 0-.347.017-.519.022-.112 0-.146-.031-.146-.152v-2.247c0-.606.022-1.209.022-1.811 0-.445-.02-.89-.036-1.335-.017-.445-.043-.809-.057-1.214 0-.112.009-.224.026-.335 0-.014.003-.028.009-.041a.106.106 0 0 1 .06-.055.096.096 0 0 1 .04-.006l.454-.048a.325.325 0 0 1 .082.017c.076.017.149.042.228.054.132.019.135.019.138.155.003.135 0 .214 0 .321 0 .248-.02.493-.026.74 0 .065.026.13.029.198 0 .281.016.549.022.825v.422c-.014.026-.045.059-.037.074.06.109-.014.228.026.338a.26.26 0 0 1 0 .067v1.586c0 .056.017.118-.062.138l-.014-.017Zm2.349-2.949s-.023.014-.023.02a.048.048 0 0 0 0 .028h.02l.003-.048ZM94.411 108.19c.008-.154.03-.306.065-.456a.863.863 0 0 0 .025-.242c0-.136.015-.271.043-.403.079-.513.155-1.025.24-1.535a4.96 4.96 0 0 0 .092-.544.657.657 0 0 1 .056-.219.17.17 0 0 1 .096-.085.665.665 0 0 1 .183-.02l1.335-.014 1.234-.017h.084a.212.212 0 0 1 .087.015.202.202 0 0 1 .122.214 2.287 2.287 0 0 1-.048.366c0 .064-.048.093-.13.095-.416 0-.845 0-1.247.023l-.524.014c-.113 0-.121.017-.138.127l-.135.983c-.048.329-.096.659-.147.986-.05.326-.11.676-.16 1.014-.023.171-.06.174.146.188l.93.074c.106.009.212.028.315.056a.21.21 0 0 1 .124.101.26.26 0 0 1 0 .166.225.225 0 0 1-.09.154.23.23 0 0 1-.172.044h-.017c-.403-.076-.808.019-1.214-.017-.138 0-.144 0-.16.129-.037.251-.065.502-.099.752-.034.251-.079.524-.121.786v.082c0 .098 0 .11.09.126h.115c.513.031 1.026.062 1.538.048h.051c.107 0 .242 0 .282.113a.446.446 0 0 1-.04.434.203.203 0 0 1-.083.056.2.2 0 0 1-.1.011h-.828l-.963-.014h-1.189c-.11 0-.138-.034-.12-.146.12-.893.244-1.786.365-2.679.031-.109.052-.221.062-.335.004-.117.017-.234.04-.349a.559.559 0 0 1 .04-.11l-.035.028Zm2.535-3.132.017-.014-.017.014ZM91.436 105.709c.06.175.093.358.102.543 0 .139.01.277.028.414.06.314.105.631.132.95.023.16.034.323.051.487 0 .045 0 .09-.06.101h.018a.218.218 0 0 1 .082.135c.016.254.039.51.064.764.026.253.062.524.093.783 0 .014.023.022.034.033.06-.084.045-.214.152-.281a.051.051 0 0 0 0-.031 5.49 5.49 0 0 1 .366-.961c.189-.487.394-.966.594-1.45.167-.4.327-.803.508-1.197.18-.394.329-.814.512-1.211.028-.068.045-.158.127-.166.105-.005.21.001.315.016.014 0 .028.037.034.062a.35.35 0 0 1-.028.226c-.282.667-.535 1.338-.806 2.002a1.126 1.126 0 0 1-.191.389c.022.099-.04.172-.07.253-.119.307-.246.614-.372.921h-.057a.022.022 0 0 0 0-.014c.01.003.021.003.031 0l-.166.372v-.031h-.017.026a.506.506 0 0 0-.054.186.319.319 0 0 1-.076.203.824.824 0 0 0-.113.242c-.07.138-.104.282-.163.437-.132.34-.268.678-.406 1.016-.084.203-.183.4-.267.603a.357.357 0 0 1-.363.242c-.161 0-.324.015-.488.02-.107 0-.132 0-.157-.107a1.229 1.229 0 0 1-.043-.265c-.014-.338-.02-.673-.028-1.011v-.386a.3.3 0 0 0 0-.101 2.6 2.6 0 0 1-.09-.659c-.028-.282-.031-.549-.05-.825 0-.178-.032-.355-.049-.533-.025-.256-.053-.509-.073-.766-.02-.256-.042-.583-.062-.873v-.101c.008-.136 0-.272-.025-.406a1.568 1.568 0 0 1 0-.327c0-.112-.034-.222-.045-.332a3.578 3.578 0 0 1-.023-.352c0-.116 0-.11.119-.141a.516.516 0 0 1 .228 0c.123.009.246.009.369 0 .045-.003.09-.003.135 0 .121.023.163.085.16.209a.918.918 0 0 0 0 .152l.051.563v.146l.014.017h-.014l.011.04ZM99.608 109.934c-.11.346-.13.712-.206 1.067-.048.226-.093.451-.138.676-.014.082-.053.11-.138.11-.242 0-.484.023-.727.034h-.135a.083.083 0 0 1-.081-.085 1.68 1.68 0 0 1 .02-.236c.106-.597.219-1.194.329-1.792.056-.309.118-.619.166-.932.025-.158.107-.298.124-.462a.728.728 0 0 0 .014-.118c-.03-.296-.05-.594-.079-.89-.017-.172-.042-.344-.062-.516-.03-.256-.053-.509-.09-.766-.037-.256-.084-.563-.121-.845a2.65 2.65 0 0 1-.028-.335c0-.115.034-.149.15-.158.115-.008.303-.028.453-.028.134.003.267.015.4.037.081 0 .1.056.093.146a.818.818 0 0 0 0 .167c.035.334.075.669.118 1.005.017.132.042.262.07.392.037.18.076.36.119.563.05-.059.098-.121.14-.186.096-.175.226-.33.338-.496.057-.081.107-.166.161-.25l.721-1.127c.02-.028.031-.062.048-.09a.247.247 0 0 1 .048-.068.632.632 0 0 1 .453 0 .1.1 0 0 1 .014.135c-.056.091-.112.181-.166.282-.183.324-.355.651-.546.969-.248.414-.513.817-.767 1.228a2.3 2.3 0 0 0-.34.766c-.104.563-.223 1.127-.338 1.69 0 .025-.017.051-.026.079v.042l.009-.008ZM88.336 111.787h-.234c-.076 0-.104-.034-.098-.101.016-.189.025-.381.05-.564.06-.448.127-.89.192-1.335a.149.149 0 0 1 0-.034 3.02 3.02 0 0 0 .121-.709c.037-.282.079-.564.124-.845.096-.628.197-1.254.296-1.882l.18-1.149c.02-.115.037-.234.048-.349a.147.147 0 0 1 .043-.108.157.157 0 0 1 .048-.033.162.162 0 0 1 .058-.011h.538c.124 0 .096.017.127.124.022.188.01.379-.037.563 0 .222-.087.434-.084.659-.007.214-.03.426-.068.637-.04.281-.085.563-.127.845-.132.873-.267 1.746-.4 2.616-.056.369-.11.735-.171 1.101-.026.138-.08.268-.113.406a.214.214 0 0 1-.082.124.21.21 0 0 1-.143.042l-.282.014.014-.011Zm.828-6.774.02-.017v-.014h-.023l.003.031ZM89.127 114.144c.206.209.403.434.625.628.347.305.799.462 1.26.44.144-.019.286-.056.422-.11.07-.02.157-.068.197 0 .04.067-.05.124-.11.163-.158.1-.34.154-.527.158a1.811 1.811 0 0 1-1.061-.265 3.238 3.238 0 0 1-.707-.597c-.096-.101-.195-.2-.282-.301a.176.176 0 0 0-.081-.058.177.177 0 0 0-.1-.007c-.104 0-.213 0-.318.022-.104.023-.123.02-.135.13-.011.11-.02.237-.034.352a.143.143 0 0 1-.138.127c-.154.02-.191-.017-.16-.172.068-.341.144-.682.208-1.025.065-.344.133-.741.203-1.113.056-.301.073-.281.332-.281.175 0 .349.01.522.031a.724.724 0 0 1 .228.062c.267.112.31.208.31.498-.014.277-.07.549-.167.808a.7.7 0 0 1-.403.451l-.059.034-.025.025Zm-.532-.149c.064 0 .177-.014.281-.034a.527.527 0 0 0 .44-.369c.045-.141.096-.281.126-.419.024-.133.039-.266.043-.4a.267.267 0 0 0-.166-.251 1.122 1.122 0 0 0-.623-.062c-.022 0-.056.034-.067.059a.676.676 0 0 0-.032.13c-.075.386-.149.771-.222 1.157-.031.192-.025.2.22.189ZM92.882 114.198a10.8 10.8 0 0 1 .149-.282l.52-1.042c.066-.132.136-.259.2-.391.026-.054.049-.105.12-.093a.135.135 0 0 1 .078.047c.02.025.03.056.028.088.02.214.034.428.05.639 0 .152.029.304.04.454.012.149 0 .225.02.338 0 .053.014.104.023.163.095-.031.104-.104.132-.163.186-.409.369-.82.563-1.231.05-.113.107-.223.164-.333.017-.028.036-.07.062-.076a.22.22 0 0 1 .126.017c.048.023.026.068 0 .104-.118.245-.242.485-.349.733-.197.448-.386.898-.577 1.349-.026.062-.051.127-.082.186-.031.059-.07.084-.124.062a.13.13 0 0 1-.056-.09 9.214 9.214 0 0 1-.178-1.203c0-.147-.028-.282-.045-.462a.579.579 0 0 0-.076.082c-.053.093-.101.188-.152.281-.211.42-.422.845-.636 1.265a.373.373 0 0 1-.088.121c-.07.059-.14.028-.155-.065-.014-.093-.014-.177-.022-.267l-.113-1.721a2.23 2.23 0 0 1 0-.237c0-.053.017-.098.082-.107a.122.122 0 0 1 .144.088.531.531 0 0 1 .025.149c0 .231 0 .462.02.69-.003.305.033.61.106.907ZM87.305 113.756h-.367a.18.18 0 0 1-.112-.054.093.093 0 0 1 .032-.124.099.099 0 0 1 .044-.014h.563c.028 0 .068.045.076.076a.326.326 0 0 1 0 .147c-.034.155-.073.307-.11.462a.631.631 0 0 1-.34.456 1.033 1.033 0 0 1-.958-.034.329.329 0 0 1-.155-.268 2.057 2.057 0 0 1 .037-.67c.07-.313.152-.622.242-.929a.891.891 0 0 1 .304-.459.562.562 0 0 1 .256-.122 1.41 1.41 0 0 1 .668.026.403.403 0 0 1 .299.453c-.01.118-.031.234-.065.347a.192.192 0 0 1-.096.104c-.087.048-.158 0-.155-.101.003-.102.017-.169.017-.254 0-.242-.073-.33-.316-.377-.32-.062-.402-.029-.563.25a1.344 1.344 0 0 0-.081.166c-.13.338-.225.688-.282 1.045a1.03 1.03 0 0 0 .059.53.313.313 0 0 0 .363.211.563.563 0 0 0 .564-.487c.028-.124.047-.245.076-.38Z" fill="#91B658"/><path d="M91.139 112.263c.079.003.158.011.236.022a.771.771 0 0 1 .606.769 4.553 4.553 0 0 1-.133.935.69.69 0 0 1-.616.544 1.764 1.764 0 0 1-.47 0 .61.61 0 0 1-.513-.62 3.12 3.12 0 0 1 .132-1.033 1.29 1.29 0 0 1 .104-.248.626.626 0 0 1 .654-.369Zm-.64 1.515v.118a.361.361 0 0 0 .305.403c.147.041.302.05.453.026a.384.384 0 0 0 .321-.26c.075-.2.125-.409.15-.622.039-.257-.002-.519-.116-.752a.584.584 0 0 0-.73-.183.46.46 0 0 0-.115.118c-.05.081-.093.167-.127.257a2.68 2.68 0 0 0-.14.895ZM95.171 114.144a.842.842 0 0 1 .093-.405.194.194 0 0 1 .054-.085.092.092 0 0 1 .087-.017c.02 0 .034.051.034.079 0 .028-.023.051-.026.079a2.533 2.533 0 0 0-.036.383.442.442 0 0 0 .205.352.428.428 0 0 0 .563-.16.375.375 0 0 0 .018-.386c-.105-.186-.22-.366-.324-.564a3.015 3.015 0 0 1-.172-.326.771.771 0 0 1-.056-.262.563.563 0 0 1 .281-.538.603.603 0 0 1 .673 0 .447.447 0 0 1 .04.794.18.18 0 0 1-.076.037c-.02 0-.054 0-.06-.017a.095.095 0 0 1 0-.073.17.17 0 0 1 .054-.065c.211-.189.099-.482-.186-.547a.375.375 0 0 0-.322.074.373.373 0 0 0-.131.304.695.695 0 0 0 .07.281c.104.203.228.398.344.6.044.078.083.158.118.24a.563.563 0 0 1-.214.653.75.75 0 0 1-.498.175.505.505 0 0 1-.527-.471 1.372 1.372 0 0 1-.006-.135Z" fill="#91B658"/></svg>