<svg viewBox="0 0 326 588" fill="none" xmlns="http://www.w3.org/2000/svg"><path d="M325.281 524.114c-.296-7.262-1.364-14.488-2.172-21.723-.467-4.121-.988-8.232-1.652-12.316-.592-3.654-1.364-7.272-2.163-10.88-.261-1.149-.377-2.514-2.182-3.106l-25.494 5.027c-.143-.961-.314-1.706-.35-2.451-.197-4.255-.386-8.51-.529-12.765-.449-13.794-.904-27.573-1.365-41.338-.215-6.499-.437-12.995-.664-19.488-.449-13.447-.904-26.894-1.365-40.341a78569.203 78569.203 0 0 1-2.01-59.148c-.443-12.891-.889-25.775-1.338-38.654-.269-8.079-.476-16.158-.808-24.237-.143-3.501-.377-6.966 2.002-9.991l3.133-1.849c.296 1.4.44 2.522.772 3.59a28.226 28.226 0 0 0 1.472 3.726 2.148 2.148 0 0 0 2.262 1.149 2.082 2.082 0 0 0 1.894-1.652c.332-1.221.575-2.46.898-3.761 1.113.898 1.373 2.639 3.591 2.334.236-.219.407-.498.493-.808.27-2.199.449-4.408.656-6.625 2.863-.144 3.501-.772 3.456-3.528a13.355 13.355 0 0 0-.198-1.669 79.18 79.18 0 0 0-6.185-20.521 20.79 20.79 0 0 0-6.382-8.124 16.476 16.476 0 0 0-10.862-3.797h-4.004a30.905 30.905 0 0 0-5.987-4.417c-4.668-2.693-9.408-5.224-14.076-7.89a23.549 23.549 0 0 1-3.842-2.693 5.393 5.393 0 0 1-1.346-2.209 14.075 14.075 0 0 1-.673-2.944c-1.122-7.648-2.272-15.26-3.304-22.945a126.499 126.499 0 0 0-7.594-29.901 52.247 52.247 0 0 0-12.639-19.264c-8.214-7.666-17.702-11.607-29.13-9.327-1.185.234-2.603.153-3.312 1.32-1.392 2.289-3.429 2.01-5.611 1.795-1.4-3.124-1.624-6.346-2.19-9.677.898-.27 1.58-.538 2.307-.718a21.232 21.232 0 0 0 8.636-4.237 10.705 10.705 0 0 0 4.237-8.079c.136-4.49.037-8.985-.297-13.465-.583-7.478-1.49-14.928-2.199-22.442a9.575 9.575 0 0 1 .79-5.224c.657-1.546.931-3.227.799-4.902-.377-7.289-3.528-13.41-8.672-18.429-6.229-6.077-16.364-7.765-24.317-1.858a51.63 51.63 0 0 0-4.399 3.645c-2.496 2.325-5.386 2.567-8.465 1.732a34.911 34.911 0 0 1-3.456-1.302 22.704 22.704 0 0 0-2.19-.897 3.071 3.071 0 0 0-3.905 1.741c-.336.78-.618 1.58-.844 2.397a4.39 4.39 0 0 1-.772.242c-3.717.252-4.417.898-4.291 4.372A4.803 4.803 0 0 1 138 19.524a12.414 12.414 0 0 0-3.483 7.828 32.638 32.638 0 0 0 1.256 12.63 36.334 36.334 0 0 1 1.374 7.585c.084 2.686.363 5.362.835 8.007a27.112 27.112 0 0 0 6.283 12.846 13.847 13.847 0 0 1 3.394 8.555c.098 1.23.341 2.45.413 3.68.323 5.252.457 10.503-.53 15.593a4.938 4.938 0 0 1-3.591.799c-4.784-.26-9.336.601-12.567 3.878a89.766 89.766 0 0 0-9.049 2.621 64.69 64.69 0 0 0-18.222 11.293 24.724 24.724 0 0 0-6.886 10.206 45.57 45.57 0 0 0-2.603 13.465c-.449 7.415.216 14.794.808 22.173.476 5.915 1.068 11.822 1.724 17.729.727 6.454 1.508 12.899 2.432 19.336a213.87 213.87 0 0 1 2.352 21.373c.287 7.182 1.517 14.04 5.7 19.56-.368 2.613-.736 4.803-.969 7.002-.458 4.345-.853 8.699-1.257 13.044-.467 4.91-1.068 9.811-1.328 14.721-.261 4.911-.081 9.875-.225 14.803-.269 9.336.593 18.591 1.553 27.828 1.033 9.802 2.325 19.587 3.043 29.417.772 10.502 1.212 21.041 1.437 31.571.413 19.389.053 38.797 2.055 58.133.763 7.352 1.499 14.704 2.406 22.047a4.964 4.964 0 0 1-.96 4.048c-3.528 4.354-6.975 8.77-10.53 13.097-3.052 3.717-6.508 7.182-9.255 11.069-5.278 7.522-10.27 15.26-15.26 22.998a146.716 146.716 0 0 1-9.965 13.941 21.579 21.579 0 0 0-2.082 2.693 6.866 6.866 0 0 0-1.212 3.016c-.238 4.486-.214 8.982.072 13.465 1.023 10.835 4.802 20.916 9.147 30.799a29.02 29.02 0 0 0 6.284 9.049c2.522 2.486 5.053 3.402 8.725 2.154a11.732 11.732 0 0 0 6.85-5.44c5.897-10.152 7.719-20.898 4.847-32.316-.27-1.068-.494-2.154-.754-3.303 6.283-4.632 11.391-10.494 17.782-15.449 2.478 10.098 3.286 20.161 5.746 30.027a7.52 7.52 0 0 1-.979.763c-6.014 3.267-9.345 8.564-11.113 14.955a20.067 20.067 0 0 0-.826 7.639c.287 2.541 1.4 4.165 4.013 4.641 2.091.386 4.147 1.006 6.283 1.266a114.668 114.668 0 0 0 24.184.224c3.447-.296 6.867-.978 10.296-1.517 2.693-.422 3.968-2.073 4.488-4.713.62-3.159.234-6.283-.054-9.362-.323-3.501-.772-6.93-3.402-9.543.234-1.22.449-2.316.656-3.411 2.764-15.206 5.541-30.413 8.33-45.619.512-2.693.664-5.333-.987-7.945 1.122-11.149 2.244-22.397 3.357-33.456 5.278-4.488 10.305-8.77 15.377-13.016a146.815 146.815 0 0 0 26.544-28.95 172.235 172.235 0 0 0 18.259-34.39 74.897 74.897 0 0 0 5.296-27.855c.045-9.793-1.257-19.443-2.478-29.111-.781-6.23-1.696-12.442-2.262-18.681-.7-7.702-1.077-15.431-1.615-23.142a275.86 275.86 0 0 0-.746-9.039c-1.032-10.602-1.876-21.159-1.876-31.868 0-5.269-.287-10.529-.413-15.799-.045-1.795 0-3.59 0-5.494.898-.448 1.796-.897 2.693-1.319a194.723 194.723 0 0 0 19.83-9.928c2.693-1.571 5.485-3.061 8.25-4.552a12.764 12.764 0 0 1 2.046-.601c-.258.56-.558 1.1-.897 1.616-3.896 4.892-4.489 10.907-5.53 16.723-.404 2.2.898 3.044 3.106 2.263a7.54 7.54 0 0 0 4.066-3.825c.503-.897.979-1.858 1.553-2.962.288 4.668.467 9.04.898 13.384a22 22 0 0 0 1.257 4.848 2.332 2.332 0 0 0 2.576 1.795c2.19-1.158 1.867-3.59 2.612-5.494.898 2.155.135 5.198 3.402 6.284 2.864-2.145 2.442-5.574 3.403-8.501.664 2.604.52 5.53 3.303 6.921.072.374.123.752.153 1.131.233 9.755.463 19.51.691 29.264.206 8.627.44 17.254.646 25.889.24 10.09.476 20.177.709 30.261.198 8.079.431 16.158.638 24.237.239 9.976.475 19.952.709 29.928.197 8.187.431 16.365.628 24.552.252 10.197.476 20.395.727 30.592.189 7.738.449 15.467.602 23.205.09 4.489 0 8.923 0 13.591l-29.83 6.095a28.096 28.096 0 0 0-1.652-2.693 23.771 23.771 0 0 0-3.231-3.833c-3.743-3.169-7.756-2.765-10.925.961a19.994 19.994 0 0 0-4.111 8.743c-1.428 6.436-1.122 12.926-.314 19.399a191.974 191.974 0 0 0 4.685 22.693 171.647 171.647 0 0 1 4.175 20.063 11.454 11.454 0 0 1-.44 5.61c-1.212 3.25-2.298 6.553-3.456 9.821-.198.538-.503 1.041-.835 1.714-.296-.493-.494-.682-.512-.897-.04-.547-.04-1.096 0-1.643a99.418 99.418 0 0 0-2.558-34.031 58.534 58.534 0 0 0-8.357-18.977 24.974 24.974 0 0 0-6.778-6.939c-4.775-3.061-9.874-1.58-12.352 3.591-.381.812-.682 1.66-.898 2.531a22.597 22.597 0 0 0 .898 14.184 52.978 52.978 0 0 0 6.966 12.621c3.106 4.12 6.347 8.142 9.497 12.226 2.254 2.927 4.579 5.817 6.661 8.869 2.693 3.896 5.018 7.972 5.889 12.729.09.467.539.898.898 1.383a4.157 4.157 0 0 0 2.351-2.846c3.645-10.476 7.415-20.907 10.853-31.419 2.002-6.158 3.456-12.495 5.144-18.698.233.898.521 1.984.754 3.061a144.246 144.246 0 0 0 5.386 18.725 68.83 68.83 0 0 0 6.625 13.896c4.641 7.182 10.413 13.142 18.187 17.056 4.407 2.208 9.03 2.487 13.761 1.957a6.637 6.637 0 0 0 2.998-1.355 47.583 47.583 0 0 0 12.631-13.789 79.642 79.642 0 0 0 9.694-25.314 61.282 61.282 0 0 0 1.284-14.354Zm-91.491 39.588c0 .502-.089 1.005-.143 1.499l-.53.26c-.144-.287-.269-.583-.44-.898-2.98-5.027-6.714-9.488-10.341-14.048-3.205-4.022-6.356-8.079-9.282-12.334a38.302 38.302 0 0 1-6.149-13.34 18.171 18.171 0 0 1 .323-9.605c.358-1.175.92-2.278 1.661-3.258a5.158 5.158 0 0 1 6.876-1.553 16.423 16.423 0 0 1 5.332 4.542 45.851 45.851 0 0 1 7.379 13.106 84.644 84.644 0 0 1 4.812 20.521 98.24 98.24 0 0 1 .502 15.108Zm17.442-40.144a127.216 127.216 0 0 1-5.548 21.454c-.134.404-.368.772-.834 1.742.224-3.528.538-6.419.565-9.3.072-7.406.278-14.821-.081-22.2-.332-6.589-1.283-13.151-2.118-19.704-.171-1.319-.135-2.944-1.625-3.905-1.104.898-.79 2.074-.673 3.16.359 3.223.709 6.455 1.104 9.677a189.406 189.406 0 0 1 1.185 27.532c-.099 4.695-.377 9.38-.943 14.129-.17-.512-.377-1.005-.493-1.517-2.002-8.627-4.049-17.235-5.97-25.871a76.395 76.395 0 0 1-1.795-20.709c.067-3.148.76-6.252 2.037-9.129a20.109 20.109 0 0 1 3.106-4.74c1.589-1.796 3.744-1.894 5.808-.646a11.667 11.667 0 0 1 4.489 5.386c.153.301.239.631.251.969-.287 7.325 1.104 14.48 2.253 21.661.629 4.03-.09 8.034-.718 12.02v-.009Zm22.586-331.977-14.956 3.016c1.338-2.639 3.16-4.237 7.828-6.921a23.474 23.474 0 0 1 7.128 3.905Zm-20.037-2.361 1.194-1.104 3.591 2.468-.996 1.32-3.789-2.684Zm2.442 3.958c-1.867.324-3.303-.341-4.964-2.262a8.724 8.724 0 0 1 4.964 2.262Zm.709-6.211c1.661-.315 2.559.825 3.591 1.741-1.715.216-2.496-1.005-3.591-1.741Zm7.37-.503-1.553 1.248c-1.041-.79-2.217-1.311-3.061-2.631 2.11-1.023 3.142.369 4.614 1.383Zm-55.835-94.498c1.364-.745 2.828 0 4.219.566a40.012 40.012 0 0 1 17.648 14.039 69.327 69.327 0 0 1 10.072 21.867 174.908 174.908 0 0 1 4.964 25.342c.898 6.768 2.056 13.465 3.088 20.242a4.517 4.517 0 0 1-.143.961c-3.043.52-6.015 1.795-9.282 1.975a12.244 12.244 0 0 0-7.909 3.294c.808.314 1.293.682 1.67.601a29.468 29.468 0 0 0 3.07-.897l.081-.081h-.117l-5.386 5.386a12.395 12.395 0 0 0-1.795 2.415c-.216.377 0 .978 0 2.127 1.095-.942 1.795-1.454 2.361-2.037 1.795-1.724 3.366-3.591 5.26-5.189 3.977-3.259 8.438-5.476 13.555-5.323l8.555 5.7c-.79.548-1.446 1.059-2.146 1.49-3.591 2.217-6.643 4.955-8.519 8.824a5.16 5.16 0 0 0-.826 3.187c2.128.395 2.074-1.903 3.447-2.424.301-.018.603.003.898.063.952.305 1.885.664 2.693.961.09.278.171.386.153.484-.018.099-.126.18-.216.207-6.921 1.795-13.851 3.591-20.79 5.386-1.499.377-3.061.503-4.596.745-3.483-2.792-6.095-6.014-7.226-10.341a39.074 39.074 0 0 1-1.445-9.605c0-6.284-.108-12.568-.063-18.851a39.563 39.563 0 0 0-1.49-11.239c-2.307-8.187-4.534-16.401-6.509-24.677a119.434 119.434 0 0 1-3.267-26.284c-.036-2.9-.009-5.763-.009-8.914Zm17.316 110.162c-1.688.647-2.083 0-2.298-1.58l2.298 1.58Zm-12.917-61.742c1.31 4.632 2.693 9.255 3.949 13.896.693 2.609.924 5.319.683 8.008a134.09 134.09 0 0 0 .287 23.186 34.634 34.634 0 0 0 1.984 8.475 26.15 26.15 0 0 1 1.651 8.456c-3.124 1.077-6.131.807-9.075.763l-1.356-1.625c-.368.054-.682.116-1.005.134-4.578.315-9.102 1.123-13.725.952a85.42 85.42 0 0 0-16.455.691c-4.964.781-9.874 1.966-14.802 2.971-.431.09-.898.207-1.194.279-1.517-.287-2.083-1.365-2.603-2.514a29.081 29.081 0 0 1-2.11-8.079c-.781-5.691-.287-11.391-.431-17.343 1.795-.467 3.348-.978 4.964-1.301 10.09-2.056 20.198-4.067 30.297-6.096 2.747-.556 5.475-1.158 8.222-1.696.979-.198 1.975-.27 3.017-.404 1.669 2.549.897 5.386 1.391 7.944a66.2 66.2 0 0 1 1.014 7.998c.189 2.694.045 5.387.225 8.08.179 2.693-1.284 5.224 0 8.339.556-.799 1.077-1.23 1.185-1.742.46-1.961.775-3.953.942-5.96a74.472 74.472 0 0 0-.897-15.413c-.422-2.693-.692-5.332-1.114-7.989a32.092 32.092 0 0 0-.897-3.268 23.11 23.11 0 0 0-4.192 0 5190.146 5190.146 0 0 0-39.157 7.962c-2.163.449-4.255 1.248-6.517 1.921-.987 5.324-.817 10.467-.565 15.593.251 5.126 1.095 9.991 3.725 14.426a24.339 24.339 0 0 1-10.099 1.992 14.94 14.94 0 0 1-.242-1.921 145.307 145.307 0 0 0-2.011-23.761c-1.068-6.409-2.343-12.783-3.69-19.138a14.37 14.37 0 0 1 0-6.625c1.446-5.781.997-11.607-.053-17.361-.898-4.839-2.155-9.614-3.268-14.417-.251-1.077-.565-2.154-.898-3.537l8.403-2.244c1.104 1.068 1.122 2.316 1.31 3.51 1.149 7.181 2.137 14.417 4.13 21.445.816 2.891 1.508 5.853 3.159 8.385 3.968 1.319 7.9.682 11.76.269a67.719 67.719 0 0 0 18.851-4.605 79.039 79.039 0 0 0 8.079-4.156 6.281 6.281 0 0 0 3.384-6.454c-.296-3.465-.574-6.931-.897-10.378-.279-2.791-.683-5.565-.979-8.348-.144-1.427-.162-2.872-.233-4.336 2.809-1.229 6.023-.143 8.761-2.441-3.178-1.266-5.97.152-8.689.089a6.155 6.155 0 0 1-.252-4.066c3.007-1.221 6.284-.898 9.462-1.643.254.468.45.966.583 1.481a164.922 164.922 0 0 0 5.988 31.616Zm-73.34-20.314c-.404-.898-.7-1.58-1.104-2.495l8.59-2.837c1.149.682 1.356 1.571 1.096 2.953l-8.582 2.379Zm56.365-28.115c1.957-.287 3.806-.62 5.664-.799 1.31-.117 2.693 0 3.887 0 .898 2.693 1.104 11.131.44 14.201l-9.175 1.015c-1.292-2.406-.825-4.902-.897-7.29a28.431 28.431 0 0 1 .081-7.127ZM150.854 48.24c1.383.18 1.742 1.365 2.424 2.2 1.795 2.253 4.255 2.118 5.682-.45a9.138 9.138 0 0 0 1.069-3.491c.341-3.68.493-7.379.754-11.068.098-1.311.296-2.622.457-4.076 1.948-.314 3.798-.35 5.386-.97 1.589-.619 3.026-1.795 4.821-2.97.422.305 1.095.825 1.795 1.292 2.191 1.41 3.977 1.149 5.602-.898.619-.772 1.122-1.642 1.795-2.693.62.458 1.158.817 1.634 1.24 4.057 3.536 3.914 2.925 8.276 2.315 1.796 1.284 3.295 3.304 6.105 3.33.233 2.694.431 5.189.682 7.73.538 5.574.987 11.157 1.696 16.705.522 4.228.663 8.494.422 12.747a9.349 9.349 0 0 1-3.958 7.45 18.635 18.635 0 0 1-3.115 1.976 30.352 30.352 0 0 1-14.408 2.612 13.672 13.672 0 0 1-10.404-5.449c-1.795-2.406-3.645-4.839-5.583-7.181-1.051-1.248-2.02-2.693-4.094-3.322.063.8-.117 1.535.171 1.912 3.025 3.887 5.924 7.918 9.264 11.526 3.59 3.842 8.348 5.018 13.465 4.803.897 0 1.795-.198 2.693-.314 1.4 2.01.897 4.407 1.58 6.499.682 2.091 1.337 4.264 2.172 6.92-.637 1.86-1.302 4.238-2.28 6.482a13.537 13.537 0 0 1-6.993 6.957c-6.571 3.034-12.998 3.187-19.174-.96a13.654 13.654 0 0 1-3.205-2.927c-1.553-2.047-2.899-4.255-4.3-6.418a9.23 9.23 0 0 1-1.346-6.41c.351-2.557.483-5.14.395-7.72-.162-3.788-.53-7.585-1.024-11.355a6.852 6.852 0 0 1 .898-5.08c1.4-2.155 2.558-4.49 2.172-7.64a8.348 8.348 0 0 1-2.958-3.152 8.347 8.347 0 0 1-.982-4.209c.161-2.235.493-4.39 2.414-5.943Zm-2.998 50.584c.341.26.673.404.835.665 1.418 2.271 2.693 4.676 4.228 6.849 4.704 6.526 11.23 8.869 19.076 7.926.996-.13 1.983-.328 2.953-.592 7.433-1.894 11.993-6.643 13.914-14.004.368-1.4.619-2.828.96-4.399.473-.226.962-.415 1.464-.565a11.758 11.758 0 0 1 1.795-.117c.193.518.337 1.053.431 1.598.215 3.914.287 7.837.592 11.742.494 6.364 1.122 12.711 1.715 19.066.314 3.339.7 6.679.969 10.018.117 1.445 0 2.9 0 4.372-9.237 7.63-30.619 11.616-38.51 10.197-.494-1.4-1.095-2.944-1.589-4.488a113.575 113.575 0 0 1-3.967-18.043 258.933 258.933 0 0 0-5.916-27.9c-.108-.431-.171-.898-.296-1.481l1.346-.844Zm-4.82.377c1.795 1.966 3.653 8.349 3.806 13.313l-8.86 3.097c-1.544-4.686-3.295-9.139-4.237-14.13a18.073 18.073 0 0 1 9.291-2.28ZM104.247 222.11c-.359-9.542-1.795-18.949-3.025-28.393-.898-6.544-1.732-13.097-2.415-19.668-.736-7.127-1.418-14.273-1.849-21.427-.449-7.604-.691-15.261 1.095-22.747 1.365-5.745 4.031-10.665 8.735-14.363 6.203-4.883 12.8-9.067 20.502-11.212 1.383-.386 2.819-.592 4.399-.898 1.077 3.304 2.172 6.455 3.124 9.641a626.477 626.477 0 0 1 5.117 17.756 75.79 75.79 0 0 1 2.917 19.534 11.99 11.99 0 0 1-.799 4.416c-.278-.619-.601-1.221-.826-1.858-1.445-4.004-2.818-8.079-4.317-12.011-.458-1.212-.763-2.621-2.424-3.384-.144.512-.458 1.014-.359 1.409a23.665 23.665 0 0 0 1.059 3.187 199.297 199.297 0 0 1 10.961 43.914c.834 5.979 1.023 12.047 1.517 18.07.134 1.796.287 3.591.44 5.386l-3.286 1.598 2.02.817c-1.23 1.688-2.469 3.375-3.681 5.09-.071.108.099.395.225.853.45-.271.882-.571 1.292-.898 1.257-1.113 2.442-2.307 3.735-3.375a11.729 11.729 0 0 1 5.054-2.55c5.574-1.23 11.158-2.397 16.705-3.734 6.411-1.63 13-2.453 19.614-2.451 6.166.114 12.33-.285 18.43-1.194.428.01.853.073 1.265.189.498 3.869.723 7.769.674 11.67-2.361 1.454-5.53.897-7.882 3.276.754.234 1.275.584 1.652.476 2.037-.584 4.03-1.284 6.283-2.011v3.681c-2.504 1.409-5.592 1.032-8.079 3.501 1.015.143 1.634.43 2.11.278 2.011-.655 3.977-1.427 6.203-2.253.179.754.386 1.355.467 1.975.413 3.438.745 6.894 1.221 10.332a3.326 3.326 0 0 1-1.616 3.716c-2.523 1.454-5.063 2.882-7.657 4.21a6.358 6.358 0 0 1-2.298.314c-1.895.144-3.798.341-5.701.377-7.549.18-14.838 2.074-22.244 3.241a133.296 133.296 0 0 1-35.144 1.203c-3.223-.341-6.472-.611-9.632-1.257-5.314-1.095-10.054-3.743-14.955-5.933-2.11-.898-3.465-2.81-4.65-4.749a27.735 27.735 0 0 1-3.977-13.744ZM67.443 528.567a22.943 22.943 0 0 1 3.931 7.54l-4.138 2.253a36.802 36.802 0 0 1 .207-9.793Zm4.713 9.309 2.253 5.197-5.566 2.882c-1.526-1.652-1.077-3.591-1.347-5.467l4.66-2.612Zm-3.591 10.538 6.023-3.779c1.544 2.199 2.19 4.596 3.034 7.253l-7.531 2.451c-.548-2.047-1.006-3.851-1.544-5.898l.018-.027Zm2.154 8.079 7.182-2.854c1.184.897 1.265 2.109 1.463 3.59l-7.182 2.9-1.463-3.636Zm2.442 5.593 6.85-2.962c.897 2.109 1.723 4.039 1.669 6.346A29.138 29.138 0 0 1 75 567.445c-1.032-1.751-1.85-3.295-1.858-5.35l.018-.009Zm2.693 7.971c1.984-1.481 4.21-1.661 6.131-2.567 1.391 1.517.898 3.213 1.795 4.829l-6.283 1.113c-.566-1.158-1.078-2.226-1.652-3.366l.009-.009Zm2.971 5.548 4.704-1.688c.272.391.484.821.628 1.275.279 1.957.476 3.923.745 6.284-2.863-1.293-4.308-3.412-6.086-5.862l.01-.009Zm8.699 6.104c-.754-4.147-1.32-7.98-2.155-11.751-.835-3.77-1.795-7.621-2.962-11.355-1.167-3.734-2.514-7.415-3.896-11.077a316.21 316.21 0 0 0-4.354-10.907c-1.517-3.609-2.953-7.262-5.628-10.494l1.077-.978a6.457 6.457 0 0 1 2.532 2.576 39.552 39.552 0 0 1 3.393 5.386c4.928 10.072 9.192 20.413 11.822 31.338 1.248 5.206 1.948 10.538 2.935 16.032l-2.764 1.23ZM100 540.048c-1.382-.898-.996-2.846-2.89-3.303a4.732 4.732 0 0 0-.323 1.795c.664 2.693 1.526 5.386 2.163 8.079a40.047 40.047 0 0 1-4.73 30.422c-.347.574-.737 1.12-1.168 1.634-.116.152-.368.197-.897.431-.26-1.437-.584-2.792-.754-4.174a90.421 90.421 0 0 0-5.333-22.146c-1.876-4.803-3.69-9.623-5.7-14.363-2.325-5.476-4.91-10.826-9.21-14.946l25.135-38.6a56.483 56.483 0 0 0 19.174 22.738c.7 5.79 1.365 11.221 2.038 16.76l-17.505 15.673Zm16.868-33.941c-6.123-4.812-11.67-10.171-15.638-16.921-.691-1.158-1.257-2.37-1.885-3.591a3.274 3.274 0 0 1 .332-3.779 166.527 166.527 0 0 1 3.366-4.183c3.492-4.219 7.011-8.429 10.503-12.657.365-.555.698-1.131.997-1.724.313.817.582 1.65.807 2.496 1.383 8.842 2.263 17.738 2.873 26.678.26 3.663 1.068 7.29 1.625 10.934l.485 3.133c-1.491.494-2.469.413-3.474-.377l.009-.009Zm38.285 76.724a65.024 65.024 0 0 1-13.6 1.795c-4.254.18-8.518.225-12.764.063-5.018-.197-10.036-.601-14.857-2.145a2.696 2.696 0 0 1-.233-3.313c14.587 2.209 29.228 2.846 43.815-.475.198 3.115-.009 3.483-2.37 4.084l.009-.009Zm8.349-71.266c-1.392 7.253-2.864 14.497-4.166 21.768-1.508 8.376-2.863 16.778-4.282 25.135a10.23 10.23 0 0 1-.332 1.086c-1.966-.17-3.321-2.316-5.906-1.795.421.695.921 1.34 1.49 1.921 1.221.97 2.576 1.795 3.833 2.693a7.182 7.182 0 0 1 3.178 5.287c.224 2.774.601 5.53.897 8.438-13.034 3.95-36.526 2.909-44.677.476-.134-3.411 1.311-6.409 2.9-9.345a16.051 16.051 0 0 1 7.181-7.289c2.98-1.4 6.158-2.37 9.515-3.59-2.549-2.478-4.964.134-7.531-.341-.386-2.2-.799-4.489-1.194-6.787-1.742-10.036-3.48-20.072-5.216-30.108-.305-1.795-.673-3.528-.852-5.305-.135-1.418 0-2.855 0-4.327a4.32 4.32 0 0 1 3.375-.206 41.6 41.6 0 0 0 12.935 1.651c8.762-.071 17.442-.978 25.764-4.03a10.448 10.448 0 0 1 1.939-.503 3.02 3.02 0 0 1 1.023.216 8.678 8.678 0 0 1 .117 4.964l.009-.009Zm60.682-222.991c.278 3.232.575 6.472.808 9.713.521 7.37.898 14.767 1.562 22.128.575 6.238 1.472 12.45 2.271 18.671 1.248 9.668 2.523 19.327 2.334 29.121a73.433 73.433 0 0 1-5.727 27.127c-6.733 16.158-15.207 31.248-26.769 44.471a124.712 124.712 0 0 1-9.784 10.18c-6.131 5.583-12.505 10.915-18.789 16.328a9.193 9.193 0 0 1-1.373.835v.063c.072-2.11.099-4.21.215-6.284.413-7.181.808-14.309 1.302-21.463.476-6.93 1.086-13.851 1.625-20.772.314-4.13.655-8.268.898-12.397.35-5.817.628-11.67.897-17.28 1.329-1.598 2.693-2.972 3.735-4.534 3.204-4.739 3.878-9.712 1.023-14.892-1.293-2.361-2.612-4.695-4.147-7.451.529-6.382 1.158-13.177 1.633-19.982.422-6.149.719-12.298.988-18.456.278-6.499.314-13.007.736-19.488a72.699 72.699 0 0 1 1.598-9.246c.529-2.747 1.176-5.476 1.723-8.214a6.729 6.729 0 0 0-.098-1.634c-1.383.718-1.58 1.876-1.903 2.882-1.975 6.086-3.753 12.19-3.807 18.689 0 5.494-.448 10.979-.502 16.463-.09 8.762-.898 17.451-1.796 26.15a201.773 201.773 0 0 0-.817 12.747c-.341 9.407-.43 18.851-.897 28.24-.467 9.39-1.167 18.555-1.796 27.828-.538 8.384-1.05 16.769-1.633 25.135a1711.053 1711.053 0 0 1-1.733 22.783 839.857 839.857 0 0 1-1.499 16.4c-.305 3.115-.853 6.221-1.086 9.345-.296 3.896-.395 7.81-.584 11.975a76.378 76.378 0 0 1-39.614 4.076c-.323-1.158-.682-2.209-.898-3.286a161.841 161.841 0 0 1-2.226-17.648c-.467-6.365-1.364-12.693-2.127-19.031-.763-6.337-1.706-12.872-2.37-19.327-.952-9.246-1.733-18.51-2.567-27.774-.099-1.005-.09-2.019-.108-3.025-.278-15.135-.395-30.278-.898-45.404-.323-10.296-.969-20.593-1.795-30.862-.898-10.826-2.262-21.616-3.259-32.433-.484-5.386-.808-10.772-.808-16.158 0-8.079.27-16.158.548-24.237.125-2.91.406-5.81.844-8.69a134.024 134.024 0 0 0 1.346-16.741c0-.647.117-1.293.189-2.101 3.375 1.616 6.58 3.142 9.775 4.686a48.845 48.845 0 0 0 17.173 4.264c5.709.494 11.409.61 17.127.628a131.903 131.903 0 0 0 22.712-2.352c7.729-1.337 15.404-2.845 23.276-3.222 5.682-.278 10.503-2.882 14.587-6.831a4.65 4.65 0 0 1 1.248-1.069c2.047-.897 4.129-1.642 6.445-2.54.135 1.05.288 1.795.306 2.531.071 2.909.071 5.826.143 8.744.189 7.845.243 15.7.638 23.537.404 6.382 1.158 12.729 1.696 19.093l.009-.009Zm-50.045 78.098c4.093 6.355 5.88 11.418.045 17.872l-.045-17.872Zm70.763-145.702c-9.29 5.252-19.075 9.408-28.887 13.528-.395.162-.825.252-1.795.548-1.688-9.874-1.885-19.453-2.361-29.147a7.187 7.187 0 0 1 1.733-.521c13.24-.117 25.933-3.286 38.6-6.724a171.646 171.646 0 0 1 22.28-4.793c2.693-.35 5.314-.7 7.989-.898a6.337 6.337 0 0 1 2.271.413 17.369 17.369 0 0 1 8.313 6.023 24.307 24.307 0 0 1 4.299 7.945c1.41 4.362 2.801 8.734 4.013 13.16.485 1.795.458 3.734.745 6.283a11.666 11.666 0 0 1-3.222-5.969c-.817-2.792-1.58-5.602-2.496-8.358-.359-1.113-.691-2.378-2.002-3.016-.897.674-.44 1.383-.242 2.083 1.122 3.986 2.442 7.926 3.258 11.975.801 3.4 1.103 6.899.898 10.386-1.4-2.199-1.688-4.183-2.298-6.068-1.661-5.099-3.42-10.171-5.18-15.261a2.841 2.841 0 0 0-2.262-2.154c2.487 8.734 5.79 17.109 4.309 27.002-.808-1.113-1.373-1.553-1.472-2.083-.844-4.596-2.855-8.977-2.765-13.761a15.862 15.862 0 0 0-2.091-8.079 12.425 12.425 0 0 0-1.589-1.67c-.386 2.693 1.355 4.264 1.418 6.284.063 2.02.458 4.003.53 6.014.071 2.011.26 3.995-1.051 5.763-1.265-.511-1.274-1.633-1.66-2.504a6.504 6.504 0 0 1-.404-1.625 12.003 12.003 0 0 0-8.636-10.153 17.574 17.574 0 0 1-10.215-8.267 10.045 10.045 0 0 0-1.428-1.544c-.188.978-.493 1.58-.368 2.082.291.905.649 1.787 1.068 2.64-.26.332-.359.592-.529.664-6.625 2.594-12.648 6.31-18.779 9.775l.008.027Zm33.385 17.451a24.022 24.022 0 0 1-2.397 8.663c-.26-1.383-.601-2.756-.745-4.157-.305-3.007-.485-6.032-.763-9.039-.126-1.409-.099-2.882-1.427-4.39-.327.744-.573 1.52-.736 2.316-.27 3.008-.431 6.033-.656 9.049a22.99 22.99 0 0 1-1.795 8.214 15.895 15.895 0 0 1-1.329-6.132 512.974 512.974 0 0 0-.763-11.068c-.098-1.203-.071-2.486-1.068-3.411-1.113.188-1.05 1.068-1.095 1.795-.26 4.022-.521 8.079-.7 12.083a18.336 18.336 0 0 1-1.23 6.643 9.661 9.661 0 0 1-1.014-2.047 54.027 54.027 0 0 1-.853-6.284c-.171-3.474-.108-6.957-.18-10.431 0-1.544.081-3.141-.897-4.488-1.257-.081-1.508.898-1.876 1.67-.898 1.795-1.625 3.698-2.496 5.511a5.435 5.435 0 0 1-3.923 3.34c.521-2.693.979-5.054 1.454-7.424a21.811 21.811 0 0 1 3.465-8.312 56.367 56.367 0 0 0 2.963-5.512l5.601-2.567a27.588 27.588 0 0 0 9.354 5.386 9.458 9.458 0 0 1 6.284 7.271c.493 2.163 1.22 4.291 1.966 6.831-.153.404-.467 1.203-.781 2.02-.35-.162-.656-.207-.701-.341-.296-.835-.538-1.697-.799-2.541a97.501 97.501 0 0 0-.897-2.792c-1.329.144-1.239 1.051-1.302 1.796a726.148 726.148 0 0 0-.673 8.321l.009.027Zm3.402 115.001-.646-25.871-.7-28.573c-.216-8.51-.434-17.023-.656-25.539-.224-8.285-.431-16.58-.754-24.865-.152-3.842 1.006-7.469 1.894-11.23.045.682.126 1.355.144 2.047l.844 30.915c.188 6.607.431 13.214.655 19.821.449 13.549.901 27.098 1.356 40.647.215 6.385.433 12.768.655 19.147l1.364 40.647c.228 6.499.449 12.995.665 19.488.448 13.214.897 26.428 1.364 39.632.341 9.408.754 18.807 1.122 28.214.045 1.104 0 2.226 0 3.672l-4.057.897a22.624 22.624 0 0 1-.323-2.361 50843.19 50843.19 0 0 1-.898-43.025c-.207-9.641-.458-19.273-.7-28.905-.204-8.63-.416-17.256-.638-25.88l-.691-28.878Zm30.458 209.292c-2.693 4.65-6.409 8.331-10.332 11.867a9.303 9.303 0 0 1-6.463 2.289 21.399 21.399 0 0 1-10.315-2.513c-6.445-3.357-11.31-8.375-15.386-14.255-3.545-5.117-5.853-10.826-7.899-16.652a158.664 158.664 0 0 1-6.661-27.379 23.105 23.105 0 0 1-.179-4.03c.062-5.036.386-10.081-.575-15.081a7.878 7.878 0 0 1 .099-1.652 34.092 34.092 0 0 1 10.574-.799 31.98 31.98 0 0 1 10.054 2.549c3.052 1.446 5.916 3.295 9.363 5.252-.18-1.077-.09-1.733-.368-2.02a23.798 23.798 0 0 0-3.501-3.097 32.225 32.225 0 0 0-12.19-4.488 27.817 27.817 0 0 0-11.024-.135c-1.21.189-2.43.308-3.653.359l-.575-1.257c.162-.251.261-.547.404-.583 3.393-.718 6.778-1.445 10.18-2.119l46.768-9.219c1.742-.341 3.492-.628 5.315-.96.289.382.536.794.736 1.23.084.434.117.877.099 1.319-.273.211-.576.38-.898.503a71.934 71.934 0 0 0-14.489 4.174 18.996 18.996 0 0 0-10.143 9.812 13.275 13.275 0 0 0-.979 3.195c-.063.386.422.898.898 1.733a19.8 19.8 0 0 0 1.544-2.541 17.957 17.957 0 0 1 11.966-10.951c3.519-1.095 7.1-2.002 10.673-2.945a8.643 8.643 0 0 1 1.796-.116c1.247 1.068 1.005 2.415 1.256 3.59a238.795 238.795 0 0 1 4.489 33.214c1.068 15.045-3.223 28.771-10.584 41.706Z" fill="#321639"/><path d="M67.775 461.69a22.377 22.377 0 0 0-6.813-10.197c-4.875-4.031-10.126-4.408-15.665-1.562a25.78 25.78 0 0 0-7.316 5.853 55.494 55.494 0 0 0-8.025 11.983c-8.824 17.218-10.664 35.638-9.192 54.642.515 6.583 1.068 13.166 1.66 19.749.503 5.466.845 10.969 1.796 16.364.637 3.69-.754 6.4-2.846 9.874v-10.825a93.61 93.61 0 0 0-6.05-32.209A57.032 57.032 0 0 0 .961 503.656a26.295 26.295 0 0 0-9.506-6.203c-7.774-2.693-13.977.18-17.496 7.02a17.28 17.28 0 0 0-1.337 3.788c-1.31 5.216-.449 10.234 1.643 15.09 2.396 5.593 6.283 10.018 10.951 13.833 5.386 4.39 10.772 8.762 16.033 13.349 8.276 7.271 15.045 15.646 18.222 26.625 1.652 0 1.885-1.015 2.218-1.948a62.646 62.646 0 0 1 2.154-5.997c1.544-3.231 3.16-6.445 5.009-9.515 5.566-9.21 11.302-18.321 16.867-27.532 4.641-7.675 9.372-15.26 13.645-23.177 4.928-9.094 8.85-18.636 10.099-29.049a40.398 40.398 0 0 0-1.688-18.25ZM19.05 568.513a14.938 14.938 0 0 1-1.077-1.364A72.655 72.655 0 0 0 .584 546.825a2294.615 2294.615 0 0 0-14.56-11.939 32.21 32.21 0 0 1-9.623-12.343c-1.948-4.488-2.8-9.21-1.481-14.084.273-1.087.664-2.14 1.167-3.142 2.998-5.619 7.971-8.079 14.686-5.7a22.675 22.675 0 0 1 7.118 4.38 54.584 54.584 0 0 1 15.692 23.484 92.85 92.85 0 0 1 5.449 31.283l.017 9.749Zm46.042-79.255a99.43 99.43 0 0 1-9.82 22.442c-7.397 12.414-14.983 24.73-22.442 37.073-1.858 3.052-3.744 6.087-5.62 9.121l-.709-.099c-.35-3.214-.736-6.418-1.041-9.623-.646-6.688-1.347-13.375-1.84-20.072-.575-7.819-1.212-15.655-.763-23.501.727-12.568 3.527-24.578 9.255-35.844a46.408 46.408 0 0 1 6.992-10.656 37.058 37.058 0 0 1 6.284-5.52c5.08-3.411 10.853-3.007 15.476 1.894 3.59 3.833 5.224 8.519 6.104 13.582 1.212 7.226.207 14.264-1.876 21.203ZM217.65 567.526a13.347 13.347 0 0 0-1.31 3.77c-.35 1.517-.476 3.088-.781 5.287-1.015-1.553-1.679-2.567-2.334-3.59a39.328 39.328 0 0 0-8.717-9.722c-1.948-1.535-4.048-2.819-6.696-2.693a4.886 4.886 0 0 0-3.66 1.41 4.89 4.89 0 0 0-1.448 3.644 13.164 13.164 0 0 0 2.908 8.411 25.763 25.763 0 0 0 9.579 8.276c4.246 2.011 8.671 3.591 13.025 5.386.355.07.721.07 1.077 0a966.913 966.913 0 0 0 4.318-6.337 16.938 16.938 0 0 0 2.756-7.846 7.731 7.731 0 0 0-2.209-6.777c-2.217-2.146-5.009-1.849-6.508.781Zm-1.885 16.786-1.364-.655a.612.612 0 0 0-.072-.072 29.414 29.414 0 0 1-16.975-11.041 11.01 11.01 0 0 1-2.361-6.526c0-2.227 1.149-3.331 3.366-3.106a6.07 6.07 0 0 1 2.523.799 29.05 29.05 0 0 1 4.039 2.971 40.873 40.873 0 0 1 9.363 13.25c-.898-.575-1.418-.898-1.885-1.203-2.747-2.119-5.476-4.264-8.241-6.356-.664-.503-1.346-1.221-2.432-.682-.162 1.266.799 1.795 1.517 2.388 2.836 2.361 5.736 4.659 8.572 7.029.898.745 1.679 1.642 2.514 2.477h.108v.045-.045l1.337.691-.009.036Zm5.871-4.488c-.162-2.478 1.544-4.345.592-6.742-2.405 1.715-1.93 4.722-3.752 7.182.153-4.695-1.203-9.076 2.199-12.702 2.236.44 2.972 1.795 3.196 3.59.341 2.846-.233 5.288-2.235 8.708v-.036Z" fill="#321639"/><path d="M221.924 245.926c-.072-2.918-.072-5.835-.144-8.744 0-.745-.171-1.481-.305-2.531-2.316.898-4.399 1.67-6.446 2.54a4.675 4.675 0 0 0-1.265 1.104c-4.085 3.95-8.905 6.553-14.587 6.832-7.873.377-15.548 1.885-23.277 3.222a131.892 131.892 0 0 1-22.711 2.352c-5.718 0-11.419-.134-17.128-.628a48.835 48.835 0 0 1-17.172-4.264c-3.196-1.544-6.401-3.07-9.776-4.686-.072.808-.179 1.454-.188 2.101a134.026 134.026 0 0 1-1.347 16.741 81.1 81.1 0 0 0-.844 8.69c-.278 8.079-.556 16.158-.547 24.237 0 5.386.323 10.772.808 16.158.996 10.772 2.378 21.607 3.258 32.433.844 10.269 1.49 20.566 1.796 30.862.484 15.126.601 30.269.897 45.404 0 1.006 0 2.02.108 3.025.835 9.264 1.616 18.528 2.567 27.774.665 6.455 1.607 12.882 2.37 19.327.763 6.445 1.661 12.666 2.128 19.031a161.326 161.326 0 0 0 2.244 17.549c.206 1.077.565 2.128.897 3.286a76.381 76.381 0 0 0 39.615-4.076c.188-4.165.287-8.079.583-11.975.234-3.124.781-6.229 1.086-9.344a840.683 840.683 0 0 0 1.5-16.401c.598-7.594 1.175-15.188 1.732-22.783.584-8.384 1.095-16.768 1.634-25.135.592-9.282 1.328-18.554 1.795-27.827.467-9.273.521-18.852.898-28.241.143-4.255.404-8.51.817-12.747.897-8.699 1.705-17.388 1.795-26.149.054-5.485.467-10.97.503-16.464.054-6.499 1.795-12.567 3.806-18.689.323-1.006.52-2.164 1.903-2.882.099.539.132 1.087.099 1.634-.548 2.738-1.194 5.467-1.724 8.214a72.73 72.73 0 0 0-1.598 9.246c-.422 6.481-.458 12.989-.736 19.488-.269 6.158-.565 12.307-.987 18.456-.476 6.805-1.104 13.6-1.634 19.983 1.535 2.755 2.855 5.089 4.147 7.45 2.855 5.18 2.182 10.153-1.023 14.893-1.068 1.562-2.406 2.935-3.734 4.533-.297 5.646-.575 11.463-.898 17.28-.251 4.129-.593 8.268-.898 12.397-.538 6.921-1.149 13.842-1.625 20.772-.493 7.181-.897 14.309-1.301 21.463-.117 2.11-.144 4.21-.216 6.284a9.203 9.203 0 0 0 1.374-.835c6.284-5.386 12.657-10.772 18.788-16.328a124.867 124.867 0 0 0 9.668-10.135c11.544-13.241 20.036-28.349 26.804-44.489a73.445 73.445 0 0 0 5.755-27.118c.188-9.794-1.087-19.453-2.334-29.121-.799-6.221-1.697-12.433-2.271-18.672-.683-7.36-1.042-14.757-1.562-22.127-.234-3.241-.53-6.481-.808-9.713-.548-6.364-1.293-12.711-1.616-19.084-.431-7.837-.485-15.692-.673-23.573Zm-76.778 15.26a48.155 48.155 0 0 1-12.729 18.268c-2.586 2.289-5.386 4.371-8.079 6.472-.902.66-1.897 1.18-2.954 1.544-.493.171-1.167-.135-1.732-.224 0-1.392 1.005-1.589 1.678-2.11 3.43-2.693 6.984-5.215 10.234-8.079a41.876 41.876 0 0 0 9.955-13.366 41.577 41.577 0 0 1 2.217-4.13 7.453 7.453 0 0 1 1.625-1.418c.889 1.311.18 2.217-.215 3.088v-.045Z" fill="#91B658"/><path d="M112.856 240.603c4.901 2.19 9.641 4.838 14.955 5.933 3.16.647 6.409.898 9.632 1.257a133.278 133.278 0 0 0 35.153-1.194c7.406-1.167 14.695-3.061 22.244-3.241 1.903 0 3.806-.233 5.7-.377a6.352 6.352 0 0 0 2.298-.314c2.595-1.328 5.135-2.756 7.657-4.21a3.319 3.319 0 0 0 1.616-3.716c-.475-3.438-.808-6.894-1.221-10.332-.08-.62-.287-1.221-.466-1.975-2.227.826-4.192 1.598-6.203 2.253-.476.152-1.095-.135-2.11-.278 2.487-2.469 5.575-2.092 8.079-3.501V217.2c-2.235.727-4.228 1.428-6.283 2.011-.377.108-.898-.242-1.652-.476 2.352-2.405 5.521-1.795 7.881-3.276a83.077 83.077 0 0 0-.673-11.67 5.06 5.06 0 0 0-1.266-.188 111.19 111.19 0 0 1-18.429 1.193 79.487 79.487 0 0 0-19.596 2.532c-5.548 1.337-11.131 2.504-16.706 3.734a11.74 11.74 0 0 0-5.054 2.55c-1.292 1.068-2.477 2.262-3.734 3.375-.411.327-.842.627-1.292.897-.126-.457-.297-.745-.225-.852 1.212-1.715 2.451-3.402 3.681-5.09l-2.02-.817 3.285-1.598c-.152-1.795-.305-3.591-.44-5.386-.493-6.023-.682-12.091-1.517-18.07a199.295 199.295 0 0 0-10.96-43.914 23.665 23.665 0 0 1-1.059-3.187c-.099-.395.215-.898.359-1.409 1.66.763 1.965 2.172 2.423 3.384 1.499 3.977 2.873 8.007 4.318 12.011.225.637.548 1.239.826 1.858a11.99 11.99 0 0 0 .799-4.416 75.788 75.788 0 0 0-2.909-19.552c-1.615-5.942-3.357-11.849-5.116-17.756-.952-3.186-2.047-6.337-3.124-9.641-1.58.323-3.016.53-4.399.898-7.702 2.145-14.3 6.284-20.503 11.212-4.703 3.698-7.37 8.618-8.734 14.363-1.795 7.513-1.544 15.143-1.095 22.747.43 7.181 1.113 14.3 1.85 21.427.681 6.571 1.534 13.124 2.414 19.668 1.275 9.444 2.693 18.851 3.025 28.393a27.728 27.728 0 0 0 3.941 13.744c1.185 1.894 2.54 3.743 4.65 4.704Zm96.131-27.541a9.154 9.154 0 0 1-6.283 2.011c1.651-2.146 3.878-2.361 6.283-2.011Zm1.652 13.537a10.771 10.771 0 0 1-7.648 2.271c1.041-1.966 3.429-2.693 7.648-2.271Zm-11.58-19.183c.673 1.167 1.167 1.642 1.23 2.181.314 2.442.574 4.892.736 7.343.305 4.695.53 9.39.817 14.084 0 .647.197 1.293.341 2.164 2.496-.341 4.488-2.02 7.37-1.903-1.849 2.495-4.488 2.63-7.244 3.752v6.068c-.853-.942-1.472-1.31-1.544-1.795-.467-2.864-.979-5.736-1.167-8.627-.44-6.813-.727-13.635-1.033-20.458a17.05 17.05 0 0 1 .494-2.809Z" fill="#F8F3DD"/><path d="M318.216 487.741c-.251-1.158 0-2.505-1.257-3.591a8.571 8.571 0 0 0-1.795.117c-3.591.942-7.181 1.849-10.673 2.944a17.95 17.95 0 0 0-11.975 10.961 19.973 19.973 0 0 1-1.544 2.54c-.458-.898-.943-1.347-.898-1.733.191-1.102.519-2.175.979-3.195a18.996 18.996 0 0 1 10.143-9.812 71.934 71.934 0 0 1 14.489-4.174c.322-.122.625-.292.897-.503a5.664 5.664 0 0 0-.098-1.319 6.599 6.599 0 0 0-.736-1.23c-1.796.332-3.591.619-5.315.96l-46.768 9.22c-3.403.673-6.787 1.4-10.18 2.118-.144 0-.242.332-.404.584l.575 1.256a32.427 32.427 0 0 0 3.653-.359 27.817 27.817 0 0 1 11.024.135 32.225 32.225 0 0 1 12.19 4.488 23.856 23.856 0 0 1 3.501 3.097c.278.287.188.898.368 2.02-3.447-1.957-6.284-3.806-9.363-5.251a31.955 31.955 0 0 0-10.054-2.55 34.122 34.122 0 0 0-10.574.799 7.878 7.878 0 0 0-.099 1.652c.96 5 .637 10.045.574 15.081a23.204 23.204 0 0 0 .18 4.03 158.459 158.459 0 0 0 6.661 27.379c2.046 5.826 4.353 11.535 7.899 16.652 4.076 5.88 8.977 10.898 15.386 14.255a21.411 21.411 0 0 0 10.315 2.514 9.308 9.308 0 0 0 6.463-2.29c3.923-3.536 7.684-7.181 10.332-11.867 7.361-12.935 11.67-26.661 10.557-41.715a238.884 238.884 0 0 0-4.453-33.213Zm-24.192 66.194c-1.338-.772-1.347-1.957-1.508-3.025l-5.386-36.886c-.216-1.571-.727-3.258.287-4.874 1.427.26 1.535 1.329 1.697 2.28.466 2.765.897 5.521 1.31 8.295 1.538 10.401 3.061 20.808 4.569 31.221.198 1.086.575 2.262-.969 2.989Z" fill="#E1E1E1"/><path d="M196.708 108.914a6.158 6.158 0 0 0 .251 4.067c2.693.062 5.512-1.356 8.689-.09-2.737 2.298-5.951 1.212-8.761 2.441.072 1.464.09 2.909.234 4.336.296 2.783.7 5.557.978 8.349.35 3.447.628 6.912.898 10.377a6.293 6.293 0 0 1-.661 3.768 6.292 6.292 0 0 1-2.724 2.686 78.935 78.935 0 0 1-8.079 4.156 67.719 67.719 0 0 1-18.851 4.605c-3.86.413-7.791 1.05-11.759-.269-1.652-2.532-2.343-5.494-3.16-8.384-1.993-7.029-2.98-14.255-4.129-21.446-.189-1.194-.207-2.441-1.311-3.51l-8.402 2.245c.359 1.382.673 2.459.898 3.536 1.113 4.803 2.387 9.579 3.267 14.417 1.05 5.754 1.499 11.58.054 17.361a14.37 14.37 0 0 0 0 6.625c1.346 6.355 2.621 12.729 3.689 19.138a145.199 145.199 0 0 1 2.011 23.762c.039.644.12 1.286.243 1.921a24.351 24.351 0 0 0 10.098-1.993c-2.63-4.435-3.483-9.381-3.725-14.426s-.422-10.269.566-15.592c2.262-.674 4.353-1.473 6.517-1.921a4568.417 4568.417 0 0 1 39.156-7.963 23.11 23.11 0 0 1 4.192 0c.357 1.073.656 2.164.898 3.268.422 2.693.691 5.332 1.113 7.989a74.541 74.541 0 0 1 .898 15.413 40.99 40.99 0 0 1-.943 5.961c-.108.511-.628.897-1.185 1.741-1.283-3.115.171-5.718 0-8.339-.17-2.622 0-5.386-.224-8.079a66.193 66.193 0 0 0-1.015-7.999c-.511-2.576.279-5.386-1.391-7.944-1.041.135-2.038.206-3.016.404-2.747.539-5.476 1.14-8.223 1.697-10.099 2.028-20.206 4.039-30.296 6.095-1.616.323-3.187.835-4.964 1.301.143 5.952-.35 11.67.431 17.343a29.08 29.08 0 0 0 2.109 8.079c.521 1.149 1.086 2.227 2.603 2.514.332-.072.763-.189 1.194-.278 4.937-1.006 9.875-2.191 14.803-2.972a85.492 85.492 0 0 1 16.454-.691c4.623.171 9.147-.637 13.726-.951.323 0 .637-.081 1.005-.135l1.355 1.625c2.945 0 5.952.314 9.076-.763a26.177 26.177 0 0 0-1.652-8.456 34.672 34.672 0 0 1-1.984-8.474 134.302 134.302 0 0 1-.287-23.187 23.16 23.16 0 0 0-.682-8.007c-1.275-4.641-2.639-9.264-3.95-13.896a165.007 165.007 0 0 1-6.104-31.634 6.476 6.476 0 0 0-.584-1.482c-3.061.772-6.346.431-9.344 1.661Z" fill="#91B658"/><path d="M152.488 61.616c.386 3.141-.772 5.484-2.172 7.639a6.852 6.852 0 0 0-.898 5.08c.494 3.77.898 7.568 1.024 11.356a45.395 45.395 0 0 1-.395 7.72 9.229 9.229 0 0 0 1.346 6.41c1.4 2.163 2.747 4.371 4.3 6.418a13.628 13.628 0 0 0 3.205 2.926c6.176 4.148 12.567 3.995 19.174.961a13.536 13.536 0 0 0 6.966-6.93c.978-2.244 1.643-4.623 2.28-6.481-.835-2.693-1.463-4.803-2.172-6.921-.71-2.119-.18-4.489-1.58-6.5-.961.117-1.841.279-2.693.315-5.144.215-9.938-.96-13.465-4.803-3.34-3.59-6.284-7.64-9.264-11.526-.288-.377-.108-1.113-.171-1.912 2.074.628 3.043 2.074 4.093 3.321 1.939 2.325 3.744 4.758 5.584 7.182a13.664 13.664 0 0 0 10.404 5.449c4.944.318 9.89-.58 14.408-2.613a18.586 18.586 0 0 0 3.114-1.975 9.349 9.349 0 0 0 3.959-7.45c.241-4.253.1-8.52-.422-12.747-.709-5.548-1.158-11.131-1.696-16.706-.252-2.54-.449-5.08-.683-7.729-2.809 0-4.308-2.047-6.104-3.33-4.362.61-4.219 1.22-8.276-2.316-.476-.422-1.015-.781-1.634-1.239-.682 1.023-1.185 1.894-1.795 2.693-1.625 2.02-3.411 2.28-5.602.898-.718-.467-1.391-.988-1.795-1.293-1.795 1.14-3.196 2.352-4.821 2.971-1.624.62-3.465.656-5.386.97-.161 1.454-.359 2.765-.457 4.075-.261 3.69-.413 7.388-.755 11.069a9.12 9.12 0 0 1-1.104 3.393c-1.427 2.567-3.842 2.693-5.682.449-.682-.835-1.041-2.02-2.424-2.2-1.921 1.553-2.253 3.708-2.307 6.015a8.344 8.344 0 0 0 3.896 7.36Zm21.32-12.415a2.693 2.693 0 0 1-2.558-2.559 2.043 2.043 0 0 1 .546-1.534 2.05 2.05 0 0 1 1.491-.656 2.615 2.615 0 0 1 2.63 2.496 2.533 2.533 0 0 1-2.109 2.253Zm17.325-3.115a2.033 2.033 0 0 1-1.989-1.243 2.023 2.023 0 0 1-.156-.813 2.17 2.17 0 0 1 2.001-2.235 2.369 2.369 0 0 1 1.984 2.334 1.863 1.863 0 0 1-1.112 1.799 1.87 1.87 0 0 1-.728.158Zm2.621-10.934c2.011.781 2.532 1.571 2.092 3.456a38.65 38.65 0 0 0-4.3-1.624 34.895 34.895 0 0 0-4.291-.566c1.275-2.208 3.277-2.532 6.499-1.266Zm-12.863 2.514c.044-.162.296-.278.646-.593.323.377.781.7.898 1.131.43 1.257.682 2.577 1.086 3.851a13.467 13.467 0 0 0 5.628 7.648c.557.35 1.05.8 1.571 1.194.164.396.242.821.23 1.249a3.036 3.036 0 0 1-1.071 2.24 3.05 3.05 0 0 1-1.116.605c-1.607.637-3.393 1.858-5.476-.162l5.602-2.289c-2.415-2.226-4.866-3.869-6.068-6.58a34.079 34.079 0 0 1-1.464-3.725 19.965 19.965 0 0 1-.646-3.268 3.406 3.406 0 0 1 .18-1.301Zm-2.2 20.368c4.06.866 8.265.786 12.289-.233.18-.045.413.116.629.188 1.203 3.905-.673 9.093-4.013 11.095a6.993 6.993 0 0 1-8.617-1.176c-2.038-2.163-2.631-4.901-2.693-7.747a1.94 1.94 0 0 1 2.405-2.127Zm-13.222-15.458c1.086-3.59 6.346-6.634 10.062-5.907.09 0 .162.135.53.45-1.257 2.136-3.77 1.409-5.233 2.692-1.464 1.284-2.999 2.586-4.704 4.058-.26-.467-.754-.97-.655-1.293Z" fill="#7C6B58"/><path d="M211.743 127.164c1.975 8.276 4.202 16.49 6.509 24.677a39.596 39.596 0 0 1 1.517 11.257c-.045 6.283 0 12.567.063 18.851.08 3.249.566 6.476 1.445 9.605 1.131 4.327 3.743 7.549 7.226 10.341 1.535-.242 3.097-.368 4.596-.745 6.939-1.742 13.869-3.591 20.79-5.386.09 0 .207-.126.216-.207.009-.08-.063-.206-.153-.484-.826-.296-1.795-.656-2.693-.961a3.468 3.468 0 0 0-.898-.063c-1.373.521-1.319 2.819-3.447 2.424a5.16 5.16 0 0 1 .826-3.187c1.876-3.869 4.928-6.607 8.519-8.824.7-.431 1.356-.942 2.145-1.49l-8.554-5.7c-5.117-.153-9.578 2.065-13.555 5.323-1.894 1.562-3.501 3.465-5.261 5.189-.592.583-1.265 1.095-2.36 2.037 0-1.149-.18-1.795 0-2.127a12.395 12.395 0 0 1 1.795-2.415l5.386-5.386a29.473 29.473 0 0 1-3.07.898c-.377.081-.898-.287-1.67-.602a12.25 12.25 0 0 1 7.909-3.294c3.267-.153 6.283-1.454 9.282-1.975.082-.314.13-.636.143-.961-1.032-6.75-2.235-13.465-3.088-20.242a174.868 174.868 0 0 0-4.964-25.341 69.322 69.322 0 0 0-10.072-21.868 40.012 40.012 0 0 0-17.648-14.04c-1.391-.565-2.855-1.31-4.219-.565v8.914a119.402 119.402 0 0 0 3.285 26.347Z" fill="#F8F3DD"/><path d="m235.945 179.83-.081.081h.117l-.036-.081Z" fill="#fff"/><path d="M162.398 506.412c-.661.105-1.31.274-1.939.503-8.321 3.052-17.002 3.959-25.763 4.03a41.597 41.597 0 0 1-12.935-1.651 4.319 4.319 0 0 0-3.376.206c0 1.472-.107 2.909 0 4.327.18 1.795.548 3.537.853 5.305 1.736 10.036 3.474 20.072 5.216 30.108.395 2.298.808 4.587 1.194 6.787 2.567.475 4.982-2.137 7.531.341-3.357 1.265-6.535 2.235-9.515 3.59a16.058 16.058 0 0 0-7.182 7.289c-1.588 2.936-3.034 5.934-2.899 9.345 8.151 2.433 31.643 3.474 44.677-.476-.332-2.908-.709-5.664-.898-8.438a7.17 7.17 0 0 0-3.177-5.287c-1.257-.952-2.613-1.795-3.833-2.693a10.63 10.63 0 0 1-1.491-1.921c2.586-.512 3.941 1.634 5.907 1.795.13-.355.241-.718.332-1.086 1.419-8.384 2.774-16.786 4.282-25.135 1.302-7.271 2.774-14.515 4.165-21.768a8.675 8.675 0 0 0-.071-4.946 3.047 3.047 0 0 0-1.078-.225ZM264.176 210.504a19.733 19.733 0 0 1-1.041-2.639c-.126-.503.18-1.105.368-2.083.529.463 1.007.981 1.428 1.544a17.576 17.576 0 0 0 10.242 8.214 11.999 11.999 0 0 1 8.609 10.152c.064.557.2 1.103.404 1.625.386.898.395 1.993 1.66 2.505 1.311-1.796 1.131-3.798 1.051-5.763-.081-1.966-.467-4.004-.53-6.015s-1.795-3.591-1.418-6.284a12.539 12.539 0 0 1 1.571 1.733 15.865 15.865 0 0 1 2.091 8.079c-.09 4.811 1.921 9.165 2.765 13.761.099.53.664.97 1.472 2.083 1.481-9.875-1.795-18.268-4.309-27.002a2.841 2.841 0 0 1 2.262 2.154 584.667 584.667 0 0 1 5.18 15.261c.61 1.885.898 3.869 2.298 6.068a36.065 36.065 0 0 0-.898-10.386c-.817-4.049-2.136-7.989-3.258-11.975-.198-.7-.673-1.409.242-2.083 1.311.638 1.643 1.903 2.002 3.017.898 2.755 1.679 5.565 2.496 8.357a11.666 11.666 0 0 0 3.222 5.969c-.287-2.585-.26-4.488-.745-6.283-1.212-4.426-2.603-8.797-4.013-13.16a24.307 24.307 0 0 0-4.299-7.945 17.375 17.375 0 0 0-8.313-6.023 6.358 6.358 0 0 0-2.271-.413c-2.693.243-5.332.593-7.989.898a171.717 171.717 0 0 0-22.298 4.784c-12.667 3.438-25.36 6.607-38.6 6.724-.597.1-1.18.275-1.733.521.476 9.694.673 19.282 2.361 29.147.979-.296 1.409-.386 1.795-.548 9.812-4.12 19.597-8.276 28.888-13.527 6.131-3.465 12.154-7.182 18.752-9.776.197-.099.296-.359.556-.691Z" fill="#7C6B58"/><path d="m96.375 484.877-25.135 38.6c4.3 4.12 6.885 9.47 9.21 14.946 2.011 4.74 3.824 9.56 5.7 14.363a90.416 90.416 0 0 1 5.333 22.146c.17 1.382.493 2.737.754 4.174.485-.234.736-.279.897-.431.431-.514.822-1.06 1.167-1.634a40.057 40.057 0 0 0 4.641-30.395c-.637-2.693-1.499-5.386-2.163-8.079-.01-.614.1-1.224.323-1.796 1.894.458 1.508 2.37 2.89 3.304l17.595-15.682c-.673-5.539-1.337-10.97-2.038-16.76a56.489 56.489 0 0 1-19.174-22.756Z" fill="#7C6B58"/><path d="M152.722 129.049a113.5 113.5 0 0 0 3.986 18.007c.493 1.58 1.095 3.124 1.589 4.489 7.89 1.418 29.273-2.568 38.51-10.198 0-1.472.098-2.926 0-4.372-.27-3.339-.656-6.678-.97-10.018-.592-6.355-1.221-12.702-1.714-19.066-.306-3.905-.377-7.828-.593-11.742a8.838 8.838 0 0 0-.431-1.598c-.6-.007-1.2.032-1.795.117-.502.15-.991.34-1.463.566-.341 1.57-.593 2.998-.961 4.398-1.921 7.361-6.481 12.11-13.914 14.004-.969.264-1.956.462-2.953.592-7.846.898-14.363-1.4-19.075-7.926-1.562-2.173-2.81-4.578-4.229-6.85-.161-.26-.493-.403-.834-.664l-1.338.844c.126.611.189 1.05.296 1.481a259.09 259.09 0 0 1 5.889 27.936Zm29.103-16.068c3.931-2.891 6.651-6.571 7.558-11.464.197-1.05.305-2.208 1.616-2.693 1.795 5.458-3.591 13.573-10.772 15.674.79-.745 1.158-1.185 1.607-1.517h-.009Zm-15.306 3.59c.302-.149.627-.246.961-.287l11.185-1.598c-2.226 2.639-5.243 3.187-8.367 3.357-2.854.153-2.854.108-4.183-.969.144-.189.243-.413.413-.512l-.009.009Zm-15.772-9.371c2.639 2.172 4.489 3.931 6.58 5.386 2.092 1.454 4.228 2.36 6.76 3.743-.853.323-1.356.7-1.796.628-4.991-.897-8.734-3.671-11.544-7.81-.152-.296.009-.798.009-1.956l-.009.009Z" fill="#F8F3DD"/><path d="M283.019 408.18c.242 9.632.494 19.264.7 28.905.311 14.363.611 28.705.898 43.025.067.792.174 1.58.323 2.361l4.058-.897v-3.672c-.369-9.407-.781-18.806-1.123-28.214-.484-13.204-.897-26.418-1.364-39.632-.215-6.499-.437-12.995-.664-19.488-.461-13.549-.916-27.098-1.365-40.647-.215-6.385-.434-12.768-.655-19.147-.449-13.549-.901-27.098-1.356-40.647-.224-6.607-.466-13.214-.655-19.82-.293-10.306-.574-20.611-.844-30.916 0-.692-.098-1.365-.143-2.047-.898 3.761-2.047 7.388-1.894 11.23.323 8.285.529 16.58.754 24.865.233 8.522.452 17.035.655 25.539l.7 28.573.647 25.871.7 28.905.628 25.853Z" fill="#fff"/><path d="M249.67 489.868a2.322 2.322 0 0 0-.251-.969 11.676 11.676 0 0 0-4.488-5.386c-2.065-1.248-4.219-1.131-5.808.646a20.078 20.078 0 0 0-3.106 4.74 23.738 23.738 0 0 0-2.038 9.129 76.475 76.475 0 0 0 1.795 20.709c1.921 8.636 3.968 17.245 5.97 25.871.117.512.323 1.006.494 1.517.565-4.748.843-9.434.942-14.129a189.244 189.244 0 0 0-1.158-27.541c-.395-3.222-.745-6.454-1.104-9.677-.117-1.086-.431-2.226.673-3.159 1.49.96 1.455 2.585 1.625 3.905.835 6.553 1.795 13.115 2.119 19.703.359 7.379.152 14.794.08 22.2 0 2.881-.341 5.772-.565 9.3.467-.97.7-1.338.835-1.742a127.213 127.213 0 0 0 5.547-21.454c.629-3.986 1.347-7.989.7-12.038-1.149-7.145-2.54-14.3-2.262-21.625ZM228.477 528.118a45.875 45.875 0 0 0-7.379-13.106 16.427 16.427 0 0 0-5.333-4.542 5.158 5.158 0 0 0-6.876 1.553 10.45 10.45 0 0 0-1.66 3.258 18.172 18.172 0 0 0-.324 9.605 38.347 38.347 0 0 0 6.149 13.34c2.927 4.228 6.078 8.312 9.282 12.334 3.591 4.56 7.361 8.976 10.342 14.048.17.279.296.575.439.898l.53-.26c.054-.494.126-.997.144-1.499.218-5.03.05-10.069-.503-15.072a84.622 84.622 0 0 0-4.811-20.557Zm1.795 29.372c-.503-.377-1.05-.602-1.284-1.015-.501-.87-.91-1.791-1.221-2.746-3.07-9.731-7.109-19.094-10.879-28.555a30.412 30.412 0 0 1-.988-3.187c-.045-.162.162-.386.359-.826.447.192.859.456 1.221.781.395.555.717 1.159.961 1.795 4.237 9.516 8.366 19.067 11.427 29.049.727 2.433.727 2.433.377 4.704h.027Z" fill="#91B658"/><path d="M280.289 228.251c.288.897.584 1.849.898 2.791.314.943.503 1.706.799 2.541 0 .134.35.179.7.341.314-.817.629-1.616.781-2.02-.745-2.54-1.472-4.668-1.966-6.831a9.458 9.458 0 0 0-6.283-7.271 27.569 27.569 0 0 1-9.354-5.386l-5.602 2.567a56.145 56.145 0 0 1-2.962 5.512 21.796 21.796 0 0 0-3.465 8.312c-.476 2.37-.898 4.749-1.454 7.424a5.439 5.439 0 0 0 3.923-3.339c.897-1.796 1.624-3.69 2.495-5.512.368-.763.62-1.796 1.876-1.67.961 1.347.898 2.944.898 4.488.072 3.474 0 6.957.18 10.431.161 2.11.445 4.208.852 6.284.257.72.597 1.407 1.015 2.047a18.378 18.378 0 0 0 1.23-6.643c.179-4.03.439-8.079.7-12.083.045-.745 0-1.624 1.095-1.795.996.898.969 2.208 1.068 3.411.287 3.681.542 7.37.763 11.068a15.89 15.89 0 0 0 1.329 6.132 22.99 22.99 0 0 0 1.795-8.214c.224-3.016.386-6.041.655-9.049.163-.795.41-1.572.736-2.316 1.329 1.508 1.302 2.981 1.428 4.39.278 3.007.458 6.032.763 9.04.143 1.4.484 2.773.745 4.156a24.022 24.022 0 0 0 2.397-8.663c.206-2.792.439-5.592.709-8.375.018-.718-.072-1.625 1.256-1.768Z" fill="#7C6B58"/><path d="m120.324 506.538-.484-3.133c-.557-3.645-1.365-7.271-1.625-10.934-.611-8.976-1.49-17.836-2.873-26.679a24.59 24.59 0 0 0-.808-2.495 17.17 17.17 0 0 1-.996 1.724c-3.492 4.228-7.011 8.438-10.503 12.657a166.985 166.985 0 0 0-3.366 4.183 3.276 3.276 0 0 0-.332 3.779c.628 1.185 1.194 2.397 1.885 3.591 4.004 6.75 9.515 12.109 15.637 16.921 1.006.754 1.984.835 3.465.386Z" fill="#91B658"/><path d="M75.522 533.118a39.624 39.624 0 0 0-3.393-5.386 6.457 6.457 0 0 0-2.531-2.576l-1.078.978c2.694 3.232 4.112 6.885 5.629 10.494a299.564 299.564 0 0 1 4.354 10.907c1.373 3.662 2.746 7.334 3.895 11.077 1.15 3.743 2.101 7.531 2.999 11.373.897 3.842 1.4 7.604 2.154 11.751l2.765-1.23c-.987-5.494-1.688-10.826-2.935-16.032-2.666-10.943-6.93-21.284-11.859-31.356ZM113.691 579.258a2.695 2.695 0 0 0 .233 3.313c4.821 1.544 9.875 1.948 14.857 2.145 4.246.162 8.51.117 12.765-.063a65.024 65.024 0 0 0 13.599-1.795c2.361-.601 2.568-.969 2.361-4.057-14.587 3.303-29.228 2.666-43.815.457Z" fill="#fff"/><path d="m196.707 106.374 9.219-1.033c.665-3.07.422-11.544-.439-14.2-1.239 0-2.577-.1-3.887 0-1.858.179-3.708.51-5.665.798a28.434 28.434 0 0 0-.134 7.128c.009 2.405-.431 4.901.906 7.307ZM146.842 112.514c-.152-4.964-2.011-11.347-3.806-13.313-3.246-.088-6.455.7-9.291 2.28.898 4.991 2.693 9.444 4.237 14.13l8.86-3.097Z" fill="#91B658"/><path d="m74.57 544.635-6.023 3.806c.538 2.074.996 3.878 1.526 5.925l7.531-2.451c-.843-2.684-1.49-5.081-3.034-7.28Z" fill="#fff"/><path d="m258.862 194.597 14.956-3.016a23.474 23.474 0 0 0-7.128-3.905c-4.668 2.684-6.49 4.282-7.828 6.921Z" fill="#7C6B58"/><path d="m80.01 559.123-6.858 2.972c0 2.055.826 3.59 1.85 5.386a29.137 29.137 0 0 0 6.678-1.975c.045-2.343-.772-4.273-1.67-6.383ZM74.418 543.055l-2.253-5.197-4.66 2.612c.27 1.903-.179 3.815 1.347 5.467l5.566-2.882ZM77.846 553.648l-7.181 2.854 1.418 3.591 7.182-2.899c-.153-1.437-.234-2.657-1.419-3.546ZM81.976 567.499c-1.921.898-4.147 1.086-6.131 2.567.565 1.14 1.086 2.208 1.67 3.375l6.283-1.113c-.889-1.615-.43-3.312-1.822-4.829Z" fill="#fff"/><path d="m147.013 114.74-8.591 2.819c.404.897.7 1.571 1.104 2.495l8.582-2.379c.26-1.364.054-2.253-1.095-2.935Z" fill="#91B658"/><path d="M67.443 528.567a36.802 36.802 0 0 0-.207 9.793l4.138-2.253a22.943 22.943 0 0 0-3.931-7.54ZM83.52 573.926l-4.704 1.688c1.796 2.478 3.223 4.569 6.078 5.889-.27-2.379-.467-4.345-.745-6.284a4.752 4.752 0 0 0-.629-1.293ZM258.647 190.584l-3.591-2.468-1.194 1.104 3.833 2.693.952-1.329ZM262.75 187.712l1.552-1.248c-1.472-1.014-2.504-2.406-4.614-1.382.844 1.319 2.02 1.84 3.062 2.63ZM256.223 193.179a8.72 8.72 0 0 0-4.964-2.263c1.66 1.921 3.097 2.586 4.964 2.263ZM260.442 188.708c-.987-.897-1.885-2.055-3.59-1.741 1.176.736 1.956 1.957 3.59 1.741ZM225.783 202.128l-2.298-1.58c.216 1.562.611 2.227 2.298 1.58Z" fill="#fff"/><path d="M60.81 454.455c-4.624-4.901-10.396-5.305-15.477-1.894a37.013 37.013 0 0 0-6.283 5.521 46.381 46.381 0 0 0-6.993 10.655c-5.727 11.266-8.528 23.339-9.255 35.844-.45 7.846.188 15.682.763 23.501.493 6.697 1.194 13.384 1.84 20.072.305 3.205.691 6.409 1.041 9.623l.71.099c1.876-3.034 3.76-6.069 5.619-9.121 7.505-12.343 15.09-24.659 22.442-37.073a99.431 99.431 0 0 0 9.82-22.442c2.083-6.939 3.088-13.977 1.796-21.221-.8-5.045-2.415-9.731-6.024-13.564Zm-8.08 11.768c-.897 11.975-2.289 23.887-6.283 35.288-2.424 6.975-5.27 13.815-7.999 20.646-2.729 6.832-5.718 13.878-7.316 21.257-.395 1.858-.7 3.735-1.086 5.602-.144.543-.32 1.076-.53 1.598a2.112 2.112 0 0 1-1.48-2.505c.16-1.553.43-3.106.735-4.641a88.978 88.978 0 0 1 4.767-15.386c2.397-6.032 4.803-12.065 7.289-18.07a123.657 123.657 0 0 0 8.663-34.731c.35-3.456.79-6.894 1.238-10.341.2-.879.46-1.743.781-2.586a4.302 4.302 0 0 1 1.24 3.869h-.019ZM13.583 527.481a54.585 54.585 0 0 0-15.71-23.484 22.675 22.675 0 0 0-7.118-4.38c-6.715-2.415-11.67.081-14.686 5.7a15.347 15.347 0 0 0-1.167 3.142c-1.32 4.874-.467 9.56 1.481 14.084a32.211 32.211 0 0 0 9.641 12.343c4.872 3.95 9.725 7.93 14.56 11.939a72.64 72.64 0 0 1 17.388 20.324c.333.475.692.93 1.077 1.364v-9.749a92.852 92.852 0 0 0-5.466-31.283Zm1.23 27.244c-.629-.144-1.383-.081-1.67-.413a11.505 11.505 0 0 1-1.535-2.585c-1.14-2.433-2.226-4.893-3.313-7.352a98.508 98.508 0 0 0-11.768-19.579c-1.795-2.307-3.842-4.362-5.781-6.526-.566-.628-1.4-1.131-.835-2.845a28.53 28.53 0 0 1 3.025 2.091 40.702 40.702 0 0 1 4.004 4.058c7.9 9.623 13.6 20.494 17.89 32.127a3.97 3.97 0 0 1-.018 1.024ZM211.815 581.108c-2.837-2.37-5.736-4.668-8.573-7.029-.718-.593-1.678-1.122-1.517-2.388 1.086-.539 1.796.18 2.433.682 2.765 2.092 5.494 4.237 8.241 6.356.466.35.978.628 1.885 1.203a40.888 40.888 0 0 0-9.363-13.25 29 29 0 0 0-4.04-2.971 6.07 6.07 0 0 0-2.522-.799c-2.217-.225-3.393.898-3.366 3.106.062 2.373.89 4.662 2.361 6.526a29.414 29.414 0 0 0 16.975 11.041c-.835-.835-1.616-1.732-2.514-2.477Z" fill="#91B658"/><path d="M214.329 583.585c.026.022.05.046.072.072v-.045l-.072-.027Z" fill="#fff"/><path d="M220.676 567.589c-3.402 3.59-2.047 8.007-2.199 12.702 1.795-2.451 1.346-5.458 3.752-7.182.951 2.397-.754 4.264-.593 6.742 2.002-3.42 2.577-5.862 2.236-8.663-.234-1.804-.961-3.159-3.196-3.599Z" fill="#91B658"/><path d="m214.4 583.657 1.365.655-1.338-.691-.027.036Z" fill="#fff"/><path d="M143.691 259.588a41.48 41.48 0 0 0-2.217 4.13 41.891 41.891 0 0 1-9.955 13.366c-3.25 2.882-6.805 5.386-10.234 8.079-.673.521-1.687.718-1.678 2.11.565.089 1.238.395 1.732.224a11.14 11.14 0 0 0 2.953-1.544c2.756-2.1 5.539-4.183 8.079-6.472a48.144 48.144 0 0 0 12.729-18.268c.35-.897 1.105-1.795.171-3.061a7.44 7.44 0 0 0-1.58 1.436ZM200.765 239.346c.072.449.691.817 1.544 1.795v-6.068c2.693-1.122 5.386-1.257 7.244-3.752-2.837-.117-4.874 1.561-7.37 1.903-.144-.898-.305-1.517-.341-2.164-.287-4.695-.512-9.389-.817-14.084a119.273 119.273 0 0 0-.736-7.343c-.063-.539-.557-1.015-1.23-2.182a17.05 17.05 0 0 0-.494 2.846c.306 6.822.593 13.645 1.033 20.458.188 2.855.7 5.727 1.167 8.591Z" fill="#321639"/><path d="M210.639 226.599c-4.219-.431-6.606.305-7.648 2.253a10.768 10.768 0 0 0 7.648-2.253ZM202.74 215.073a9.155 9.155 0 0 0 6.284-2.011c-2.442-.35-4.668-.135-6.284 2.011ZM290.469 519.716c-.404-2.774-.844-5.53-1.31-8.295-.162-.951-.27-2.02-1.697-2.28-1.014 1.616-.503 3.304-.287 4.875 1.741 12.298 3.59 24.587 5.386 36.885.161 1.068.17 2.253 1.508 3.025 1.544-.727 1.167-1.894 1.014-2.989-1.55-10.395-3.088-20.802-4.614-31.221ZM187.596 69.084c3.339-2.001 5.215-7.181 4.012-11.095-.215-.072-.448-.233-.628-.188a27.057 27.057 0 0 1-12.289.233 1.94 1.94 0 0 0-2.397 2.127c.054 2.846.646 5.584 2.693 7.747a6.994 6.994 0 0 0 8.609 1.176Zm-8.842-8.869a24.13 24.13 0 0 0 10.772 0c.628 3.142-1.652 6.948-4.435 7.595a4.756 4.756 0 0 1-5.17-2.316 8.73 8.73 0 0 1-1.167-5.279ZM181.384 42.235c.415 1.27.903 2.513 1.463 3.725 1.203 2.694 3.654 4.354 6.069 6.58l-5.602 2.29c2.083 2.02 3.869.798 5.476.161a3.048 3.048 0 0 0 2.187-2.845 3.052 3.052 0 0 0-.23-1.248c-.521-.395-1.014-.844-1.571-1.194a13.462 13.462 0 0 1-5.628-7.648c-.404-1.275-.656-2.595-1.087-3.851-.143-.431-.601-.755-.897-1.131-.35.314-.602.43-.647.592-.134.42-.186.862-.152 1.302.115 1.104.322 2.197.619 3.267ZM170.828 39.847c1.463-1.32 3.977-.592 5.233-2.693-.368-.314-.439-.43-.529-.449-3.717-.727-8.977 2.325-10.063 5.907-.099.323.395.826.655 1.328 1.706-1.508 3.232-2.773 4.704-4.093ZM195.809 38.608c.44-1.885-.08-2.692-2.091-3.455-3.223-1.266-5.225-.943-6.499 1.265 1.44.1 2.873.289 4.291.566 1.464.455 2.9.998 4.299 1.624ZM173.288 44.434a2.053 2.053 0 0 0-1.929 1.38 2.05 2.05 0 0 0-.109.829 2.69 2.69 0 0 0 2.558 2.576 2.53 2.53 0 0 0 2.11-2.271 2.614 2.614 0 0 0-2.63-2.514ZM190.989 41.795a2.173 2.173 0 0 0-2.002 2.235 2.04 2.04 0 0 0 .625 1.496 2.042 2.042 0 0 0 1.521.56 1.862 1.862 0 0 0 1.686-1.231c.084-.232.121-.48.109-.726a2.365 2.365 0 0 0-1.939-2.334ZM191.007 98.851c-1.31.458-1.418 1.616-1.616 2.693-.897 4.892-3.59 8.573-7.558 11.463-.449.332-.817.772-1.634 1.544 7.182-2.127 12.586-10.242 10.808-15.7ZM162.318 116.921c.422.072.898-.305 1.795-.628-2.531-1.383-4.766-2.388-6.759-3.743-1.993-1.356-3.941-3.187-6.58-5.386 0 1.158-.162 1.66 0 1.921 2.846 4.165 6.553 6.957 11.544 7.836ZM170.307 118.034c3.124-.17 6.14-.718 8.366-3.357l-11.185 1.598a2.992 2.992 0 0 0-.96.287c-.171.09-.269.323-.404.503 1.329 1.077 1.329 1.122 4.183.969ZM218.414 523.701a8.077 8.077 0 0 0-.961-1.795 4.49 4.49 0 0 0-1.221-.781c-.197.44-.403.664-.359.826.271 1.08.601 2.143.988 3.187 3.77 9.461 7.81 18.851 10.88 28.555.31.955.719 1.876 1.22 2.747.234.413.781.637 1.284 1.014.35-2.271.35-2.271-.404-4.74-3.061-9.946-7.19-19.533-11.427-29.013ZM50.728 464.958c-.449 3.447-.898 6.885-1.239 10.341a123.653 123.653 0 0 1-8.617 34.767c-2.487 6.005-4.893 12.038-7.29 18.07a88.973 88.973 0 0 0-4.74 15.368c-.304 1.535-.574 3.088-.735 4.641a2.112 2.112 0 0 0 1.481 2.505c.209-.522.386-1.055.53-1.598.386-1.867.69-3.744 1.086-5.602 1.598-7.379 4.551-14.282 7.316-21.257 2.765-6.974 5.574-13.707 7.998-20.646 3.968-11.4 5.386-23.339 6.284-35.288a4.3 4.3 0 0 0-1.239-3.868 19.172 19.172 0 0 0-.835 2.567ZM-3.087 521.574a40.715 40.715 0 0 0-3.977-4.058 28.491 28.491 0 0 0-2.98-2.091c-.566 1.714.27 2.217.835 2.846 1.939 2.163 4.03 4.219 5.78 6.526A98.491 98.491 0 0 1 8.323 544.33c1.086 2.46 2.173 4.919 3.313 7.352.396.925.912 1.794 1.535 2.585.287.332 1.041.269 1.67.413.04-.325.04-.653 0-.978-4.327-11.634-10.028-22.505-17.927-32.128Z" fill="#321639"/><path d="M185.038 67.855c2.783-.647 5.063-4.489 4.434-7.595a24.13 24.13 0 0 1-10.772 0 8.734 8.734 0 0 0 1.221 5.234 4.758 4.758 0 0 0 5.117 2.36Z" fill="#fff"/></svg>