<svg viewBox="0 0 249 218" fill="none" xmlns="http://www.w3.org/2000/svg"><path d="M102.223 69.899c-.045-2.017-.131-3.879-.109-5.741.02-1.78.123-3.561.243-5.335.126-1.862.303-3.721.487-5.58.171-1.771.36-3.543.578-5.31.217-1.768.073-3.65 1.056-5.373.893.758.735 1.68.715 2.477-.056 2.12-.205 4.24-.38 6.348-.274 3.726-.682 7.435-.88 11.16-.134 2.367.018 4.724.044 7.373 5.534.968 10.29-.153 14.755-2.737a13.451 13.451 0 0 0 4.353-3.858c3.877-5.52 5.515-11.427 2.947-18.014-.216-.553-.38-1.126-.588-1.68-3.746-9.94-8.134-19.594-12.828-29.111a45.74 45.74 0 0 0-2.569-4.379c-.794-1.234-1.85-2.23-3.309-2.643a18.925 18.925 0 0 0-7.297-.72 6.552 6.552 0 0 0-4.186 2.164c-1.714 1.819-2.436 4.1-2.986 6.398-2.445 10.315-4.856 20.637-7.099 31.002-.567 2.626-.596 5.395-.624 8.1-.057 5.429 2.18 9.802 6.342 13.294 2.875 2.408 6.105 3.183 9.716 2.75.561-.098 1.081-.395 1.619-.585ZM61.944 95.246c1.53-1.03 2.1-2.636 1.6-4.643-1.94.597-3.854 1.264-5.822 1.765-2.044.527-4.124.927-6.203 1.313-.41.077-.88-.17-1.703-.355.59-.493.842-.861 1.17-.954 3.09-.872 6.166-1.816 9.297-2.508 5.396-1.19 9.07-5.843 8.565-11.794-.238-2.864-.62-5.72-1.053-8.556-.63-4.185-1.292-8.366-2.074-12.526a192.785 192.785 0 0 0-2.333-10.655 20.57 20.57 0 0 0-1.614-3.998c-.342-.717-.774-1.551-1.872-1.45-.768.643-.625 1.547-.57 2.34.156 1.853.405 3.693.668 5.54.79 5.442 1.681 10.872 2.381 16.328.221 2.017.25 4.051.084 6.074-.12 1.82-1.15 3.02-2.448 3.145-1.592.153-2.579-.863-3.14-2.135a22.446 22.446 0 0 1-1.483-4.56c-.91-4.48-1.694-8.983-2.524-13.478-.462-2.496-.866-5.007-1.393-7.49a18.114 18.114 0 0 0-1.13-3.355c-.15-.366-.688-.58-1.089-.894-1.078.972-1.001 2.129-.906 3.18.26 2.947.588 5.886.982 8.817.706 5.206 1.538 10.385 2.202 15.585.148 1.514.126 3.04-.065 4.549-.14 1.546-.953 2.745-2.556 3.132-1.603.387-2.85-.35-3.713-1.62a13.167 13.167 0 0 1-1.778-3.34 66.28 66.28 0 0 1-2.056-7.845c-1.041-5.744-1.888-11.526-2.82-17.284-.202-1.234-.31-2.512-1.38-3.711-.43.489-.992.852-1.1 1.31a14.215 14.215 0 0 0-.378 3.269c.012 1.347.108 2.692.287 4.027a208.464 208.464 0 0 1 1.494 23.033c.037 1.86.172 3.719.386 5.567a16.293 16.293 0 0 0 2.674 7.332c1.544 2.287 3.574 3.805 6.383 4.127.591.035 1.18.112 1.76.232.329.084.598.397.948.649-1.12 1.228-2.59.154-3.69.827.527 2.303 2.163 3.07 4.14 3.174 3.674.177 7.253-.495 10.747-1.596.4-.135.779-.327 1.125-.568Z" fill="#E3E3E3"/><path d="M71.71 135.987c-1.054-3.703-2.26-7.372-3.087-11.124-1.862-8.438-3.527-16.921-5.275-25.382-.117-.566-.259-1.132-.358-1.552l-12.327 2.045c.745 3.121 1.565 6.169 2.19 9.281 1.6 7.969 3.09 15.962 4.669 23.937.56 2.848 1.224 5.686 1.917 8.51a12.011 12.011 0 0 0 2.621 5.22c2.923 3.291 7.563 2.77 9.526-1.157.495-1.085.804-2.247.912-3.434.264-2.171-.2-4.273-.788-6.344ZM111.748 124.528c-.076-5.167-.436-10.334-.6-15.5-.288-9.153-.392-18.3.676-27.414.027-.516.022-1.032-.017-1.548-3.895.876-7.61.399-11.601-.412.112.949.188 1.529.245 2.112.067.675.155 1.35.172 2.027.29 11.644-.057 23.19-2.663 34.601-.863 3.773-1.198 7.686-1.613 11.545a17.462 17.462 0 0 0 .564 6.556 7.216 7.216 0 0 0 1.291 2.624 7.294 7.294 0 0 0 2.231 1.906c3.787 2.093 7.058.942 8.961-1.928a10.928 10.928 0 0 0 1.884-5.197c.247-3.114.521-6.257.47-9.372Z" fill="#7C6B58"/><path d="M75.514 135.96a119.542 119.542 0 0 0-1.684-6.116c-3.212-10.455-4.821-21.269-7.174-31.915-.056-.25-.072-.508-.115-.756-.189-1.03-.15-1.986.507-2.894.766-1.063.98-2.318.977-3.614-.003-.585.046-1.169.071-1.748.451-.45.876-.87 1.288-1.292 2.572-2.626 3.627-5.834 3.583-9.452a16.19 16.19 0 0 0-.11-1.773c-.345-2.768-.635-5.548-1.067-8.29-.954-5.932-1.87-11.864-3.018-17.754-.513-2.637-1.454-5.206-2.381-7.738a8.99 8.99 0 0 0-1.913-2.935c-1.546-1.631-3.433-1.066-3.945 1.124a8.752 8.752 0 0 0-.172 2.762c.175 1.934.474 3.857.748 5.782.7 4.938 1.468 9.87 2.103 14.814.234 1.837.203 3.71.239 5.569.015 1.049-.215 2-1.694 2.747-.564-.998-1.153-1.827-1.49-2.741a23.049 23.049 0 0 1-.969-3.674c-.823-4.404-1.57-8.829-2.392-13.229-.525-2.743-1.067-5.48-1.682-8.192-.258-.98-.64-1.923-1.135-2.806-.496-.962-1.29-1.586-2.475-1.339a2.392 2.392 0 0 0-1.961 2.062c-.2.905-.294 1.83-.277 2.757.191 2.692.41 5.392.786 8.058.592 4.268 1.357 8.516 1.958 12.786.273 1.92.37 3.87.469 5.804a6.45 6.45 0 0 1-.277 2.245c-.543 1.645-1.96 1.982-3.066.652a9.474 9.474 0 0 1-1.756-3.032 57.417 57.417 0 0 1-1.932-7.33c-1.05-5.828-1.905-11.686-2.885-17.52a19.943 19.943 0 0 0-.93-3.41 2.136 2.136 0 0 0-1.857-1.525c-1.09-.097-1.703.581-2.209 1.414a7.289 7.289 0 0 0-.924 4.153c.113 2.448.225 4.902.523 7.333A160.036 160.036 0 0 1 38.34 72.66c.02 1.437.08 2.874.131 4.31.03.76.055 1.522.132 2.278.612 5.924 2.581 11.031 8.326 13.763.48 3.205.63 3.428 3.802 5.574.742 3.028 1.632 6.205 2.289 9.429 1.575 7.708 3.011 15.444 4.567 23.151.667 3.314 1.444 6.61 2.282 9.891a12.344 12.344 0 0 0 3.33 5.888c2.842 2.775 6.833 2.907 9.851.321a7.956 7.956 0 0 0 2.61-4.524 14.814 14.814 0 0 0-.145-6.781ZM48.45 93.733c1.099-.672 2.56.396 3.681-.83-.348-.247-.617-.559-.947-.647a11.956 11.956 0 0 0-1.754-.227c-2.805-.323-4.832-1.84-6.367-4.12a16.237 16.237 0 0 1-2.669-7.317c-.21-1.849-.357-3.708-.384-5.561a208.698 208.698 0 0 0-1.477-23.003 32.09 32.09 0 0 1-.289-4.045c-.002-1.1.124-2.196.378-3.265.112-.464.67-.821 1.1-1.31 1.063 1.199 1.174 2.474 1.372 3.705.934 5.758 1.778 11.529 2.806 17.261a65.731 65.731 0 0 0 2.066 7.841 13.19 13.19 0 0 0 1.768 3.337c.863 1.264 2.122 1.99 3.71 1.614 1.587-.377 2.399-1.582 2.552-3.13.192-1.507.215-3.031.067-4.543-.66-5.194-1.495-10.37-2.202-15.561-.399-2.927-.725-5.863-.978-8.807-.092-1.05-.17-2.201.91-3.176.399.314.927.523 1.085.893.482 1.078.859 2.2 1.126 3.35.525 2.48.928 4.987 1.387 7.48.826 4.489 1.605 8.987 2.513 13.46.33 1.57.828 3.098 1.484 4.56.563 1.27 1.542 2.281 3.132 2.131 1.3-.126 2.33-1.324 2.45-3.143a31.986 31.986 0 0 0-.083-6.057c-.7-5.448-1.582-10.872-2.368-16.307-.266-1.837-.51-3.682-.664-5.532-.066-.795-.209-1.698.57-2.338 1.096-.102 1.531.723 1.882 1.44a20.685 20.685 0 0 1 1.608 3.993 203.96 203.96 0 0 1 2.331 10.628c.779 4.154 1.437 8.33 2.063 12.509.428 2.84.805 5.695 1.047 8.545.49 5.938-3.169 10.593-8.555 11.784-3.126.693-6.197 1.638-9.28 2.51-.328.093-.579.46-1.168.953.82.184 1.29.43 1.7.354 2.075-.387 4.15-.787 6.19-1.314 1.953-.506 3.868-1.174 5.81-1.764.501 2.006-.068 3.61-1.594 4.636a4.407 4.407 0 0 1-1.123.576c-3.491 1.1-7.061 1.774-10.727 1.599-2.001-.097-3.64-.865-4.16-3.162Zm15.477 51.557a11.878 11.878 0 0 1-2.606-5.156c-.685-2.799-1.349-5.586-1.915-8.401-1.58-7.873-3.07-15.764-4.672-23.631-.62-3.055-1.45-6.068-2.187-9.162l12.189-1.967c.097.416.24.973.356 1.535 1.75 8.354 3.414 16.726 5.274 25.056.825 3.708 2.022 7.339 3.079 10.984.584 2.051 1.05 4.121.787 6.241a10.325 10.325 0 0 1-.895 3.387c-1.924 3.866-6.514 4.367-9.41 1.114ZM113.549 136.613c1.063-2.829 1.369-5.791 1.39-8.755.035-5.088.008-10.185-.248-15.263a255.884 255.884 0 0 1-.125-23.157c.207-4.891.413-9.813 1.836-14.576.258-.857.122-1.843.1-2.76-.011-.25-.322-.488-.481-.71-.217.106-.344.127-.359.182-.252.8-.516 1.598-.719 2.398-.676 2.487-1.707 3.376-4.273 3.611-3.172.288-6.27-.193-9.296-1.084-2.261-.67-2.983-2.052-2.676-4.475 2.123-.325 4.189-.66 6.264-.949.42-.04.844-.009 1.253.093 3.768.794 7.393.166 11.041-.867 10.69-3.019 16.104-15.168 13.353-23.93-.33-1.052-.609-2.126-1.015-3.147-1.615-4.1-3.158-8.254-4.967-12.277-2.959-6.575-6.144-13.052-9.17-19.59-2.21-4.79-6.01-6.923-11.147-6.939-.595 0-1.189-.036-1.783-.02-3.535.095-6.201 1.701-7.787 4.846a23.908 23.908 0 0 0-1.977 5.202c-2.356 9.899-4.641 19.81-6.857 29.734a37.66 37.66 0 0 0-.8 11.14c.396 5.258 2.65 9.606 6.754 12.923 1.502 1.216 3.18 2.215 4.9 3.395.171 2.48.603 4.991 3.522 6.371.164 1.423.413 2.683.441 3.945.157 7.896.117 15.796-.9 23.634-.596 4.618-1.628 9.18-2.454 13.767-.726 4.015-1.4 8.043-1.132 12.135.089 1.86.44 3.699 1.042 5.461 1.26 3.468 4.956 5.767 8.589 5.691 3.327-.04 6.328-2.427 7.681-6.029ZM93.135 67.18c-4.166-3.493-6.405-7.867-6.351-13.294.025-2.707.057-5.476.622-8.1 2.235-10.36 4.634-20.684 7.093-31 .538-2.284 1.262-4.564 2.979-6.385a6.552 6.552 0 0 1 4.186-2.163 18.994 18.994 0 0 1 7.298.721c1.462.414 2.519 1.41 3.314 2.646a45.95 45.95 0 0 1 2.564 4.393c4.704 9.51 9.093 19.172 12.841 29.11.211.558.375 1.13.592 1.683 2.571 6.588.933 12.496-2.943 18.014a13.538 13.538 0 0 1-4.355 3.86c-4.465 2.58-9.232 3.716-14.759 2.73-.029-2.646-.175-5.017-.05-7.374.2-3.724.596-7.44.88-11.16.161-2.114.323-4.228.377-6.345.021-.8.177-1.719-.716-2.477-.985 1.725-.838 3.591-1.055 5.372-.218 1.78-.406 3.54-.578 5.313a185.546 185.546 0 0 0-.484 5.578c-.122 1.777-.224 3.557-.246 5.336-.017 1.861.075 3.726.115 5.74-.54.192-1.052.476-1.606.553-3.622.43-6.854-.356-9.718-2.751Zm17.726 70.756c-1.908 2.884-5.17 4.046-8.919 1.973a7.166 7.166 0 0 1-3.48-4.513 17.547 17.547 0 0 1-.53-6.557c.434-3.869.783-7.78 1.659-11.556 2.644-11.421 3.03-22.994 2.812-34.63-.012-.678-.096-1.354-.16-2.03-.055-.58-.127-1.162-.235-2.109 3.967.787 7.657 1.25 11.533.357.036.515.04 1.032.013 1.547-1.101 9.12-1.047 18.27-.808 27.432.137 5.17.471 10.336.521 15.505.03 3.127-.252 6.264-.508 9.385a11.072 11.072 0 0 1-1.898 5.196Z" fill="#321639"/><path d="M106.934 25.358c-.078-1.9-.484-3.785-.786-5.67-.058-.365-.11-.91-.964-.723.124 5.873.245 11.751.362 17.637.005.304.236.601.421 1.038 1.195-.412 1.062-1.22 1.064-1.857.018-3.47.052-6.954-.097-10.425Z" fill="#321639"/><path d="M198.709 93.89c-.438-1.784-1.501-2.212-3.04-1.157a14.024 14.024 0 0 0-2.625 2.394c-1.906 2.227-3.696 4.55-5.585 6.786a12.147 12.147 0 0 1-2.372 2.258c-1.333.901-2.644.199-2.633-1.424.009-1.189.227-2.367.644-3.48a88.178 88.178 0 0 1 3.103-7.035c2.795-5.675 5.746-11.273 8.48-16.977a50.741 50.741 0 0 0 2.661-7.204 6.861 6.861 0 0 0-.222-4.855c-.55-1.222-1.483-1.688-2.684-1.154a7.848 7.848 0 0 0-2.478 1.668 39.222 39.222 0 0 0-3.712 4.405c-2.224 3.14-4.293 6.388-6.477 9.557a222.173 222.173 0 0 1-5.285 7.372c-.805 1.067-1.642 2.264-3.369 2.013-1.036-.816-1.284-1.973-1.209-3.187.088-1.461.253-2.92.481-4.366.834-5.436 1.813-10.846 2.562-16.29.424-3.08.584-6.205.712-9.316a12.971 12.971 0 0 0-.465-4.083c-.669-2.33-2.515-2.691-4.098-.906a7.138 7.138 0 0 0-1.077 1.589c-1.039 2.141-2.115 4.274-3.022 6.47-2.142 5.18-3.412 10.636-4.959 16.005-1.034 3.605-2.236 7.165-3.433 10.72a6.516 6.516 0 0 1-1.237 2.112c-.879 1.023-2.143.868-2.638-.376a9.648 9.648 0 0 1-.703-3.182c-.072-2.197.06-4.398.086-6.608.056-5.773.141-11.547.117-17.321a25.886 25.886 0 0 0-.567-4.633c-.22-1.17-.667-2.29-1.703-2.97-1.629-.289-2.444.713-3.16 1.815-1.565 2.414-2.46 5.107-3.139 7.88-1.708 6.96-2.618 14.047-3.33 21.167-.218 2.187-.49 4.372-.846 6.547s-1.051 4.11-3.795 4.766c.701 1.059 1.216 1.898 1.792 2.693 1.408 1.938 2.874 3.813 4.245 5.773 2.538 3.649 3.21 7.746 2.737 12.078-.085.767-.125 1.684-1.603 1.665-.002-.884-.049-1.672.003-2.45.301-4.39-.795-8.358-3.62-11.806-.698-.85-1.304-1.773-1.986-2.64a35.943 35.943 0 0 1-6.675-13.468 44.735 44.735 0 0 0-1.452-4.736 11.74 11.74 0 0 0-1.698-3.12c-.867-1.083-2.055-1.953-3.566-1.664-1.585.303-2.178 1.673-2.43 3.033a32.21 32.21 0 0 0-.554 5.454c-.049 4.25.809 8.391 1.792 12.502 1.004 4.196 2.073 8.374 3.022 12.575a31.205 31.205 0 0 1-.168 14.99c-.859 3.276-1.887 6.506-2.864 9.746-.285.949-.71 1.864-.582 3.093 11.648 6.744 23.722 11.922 37.576 11.325l1.536-2.84c-.851-.086-1.473-.156-2.098-.207a61.784 61.784 0 0 1-15.008-3.294c-.366-.128-.605-.621-1.104-1.164 2.466-.305 4.343.597 6.292.969 2.97.555 5.927 1.198 8.919 1.671 1.332.216 2.727.362 4.142-.173 1.381-3.753 3.647-6.996 6.383-9.856 3.028-3.178 6.317-6.113 9.534-9.112 4.761-4.429 9.364-9.049 13.282-14.264a29.831 29.831 0 0 0 5.025-10.328c.51-1.772.56-3.646.145-5.445Zm-66.547 43.002c-4.666-2.485-4.666-2.485-5.462-4.075.729.073 1.398-.035 1.881.212 3.825 1.964 7.612 3.991 11.405 6.014.125.068.165.286.247.432-2.065.284-3.718-.26-8.071-2.583Z" fill="#1D622C"/><path d="M198.974 92.17c-.775-2.584-2.792-3.455-5.088-2.076a16.217 16.217 0 0 0-3.508 3.006c-1.476 1.61-2.732 3.42-4.163 5.068-.93 1.079-1.621 2.413-3.198 3.345.183-.982.225-1.702.481-2.33 1.017-2.44 2.024-4.886 3.188-7.257 2.698-5.483 5.546-10.896 8.206-16.4a58.854 58.854 0 0 0 2.832-7.394 9.188 9.188 0 0 0-.01-5.93c-.933-2.683-3.087-3.597-5.641-2.382a7.842 7.842 0 0 0-2.014 1.385 21.161 21.161 0 0 0-2.783 2.994c-2.906 4.089-5.674 8.269-8.56 12.365-1.823 2.586-3.382 5.379-5.955 8.036-.415-2.541.115-4.492.42-6.457.928-5.942 1.963-11.872 2.783-17.827.372-2.699.395-5.454.458-8.184a8.89 8.89 0 0 0-1.081-4.742c-1.283-2.214-3.582-2.742-5.541-1.17a7.994 7.994 0 0 0-1.945 2.259 55.241 55.241 0 0 0-2.909 5.881c-1.947 4.73-3.326 9.644-4.66 14.578-1.143 4.22-2.458 8.399-3.742 12.58-.215.706-.372 1.541-1.321 1.934-.575-1.59-.484-3.05-.445-4.496.121-4.556.345-9.112.403-13.667.039-3.283-.057-6.562-.195-9.84-.074-1.831-.466-3.636-1.444-5.22-1.368-2.212-3.539-2.612-5.536-.904a9.453 9.453 0 0 0-1.84 2.34c-2.005 3.342-2.844 7.092-3.645 10.84-1.259 5.893-2.012 11.86-2.59 17.856-.23 2.353-.598 4.698-.952 7.041-.166 1.092-.492 2.138-1.557 2.643-1.596.071-2.127-1.021-2.501-2.168-.763-2.34-1.388-4.724-2.18-7.051a41.4 41.4 0 0 0-1.957-4.785c-.701-1.442-1.936-2.382-3.411-3.002-1.698-.716-3.298-.508-4.51.834a7.318 7.318 0 0 0-1.678 3.045 29.76 29.76 0 0 0-.705 5.68c-.137 3.665.461 7.275 1.261 10.837.897 4.002 1.823 8.002 2.886 11.961 2.089 7.752 1.433 15.339-1.142 22.862-.629 1.807-1.157 3.651-1.802 5.452-.43 1.207-.173 2.145.844 2.879 3.102 2.239 6.239 4.399 9.901 5.683a217 217 0 0 1 8.671 3.242c5.85 2.342 11.967 2.987 18.194 2.891.854-.06 1.703-.176 2.543-.347 1.01-1.868 2.115-3.474 2.784-5.238 1.526-4.016 3.966-7.397 6.892-10.43 2.846-2.949 5.846-5.753 8.85-8.544a120.083 120.083 0 0 0 11.846-12.486c2.771-3.434 5.011-7.171 6.353-11.412.817-2.559 1.202-5.153.413-7.779Zm-6.755 16.466c-3.893 5.193-8.463 9.782-13.198 14.206-3.193 2.988-6.462 5.915-9.471 9.077-2.704 2.841-4.955 6.071-6.348 9.81-1.407.532-2.787.392-4.107.18-2.955-.472-5.892-1.095-8.84-1.644-1.943-.353-3.792-1.263-6.239-.955.497.54.732 1.03 1.095 1.156a61.052 61.052 0 0 0 14.874 3.26c.617.048 1.233.116 2.078.2l-1.519 2.807c-13.732.624-25.713-4.497-37.232-11.183-.128-1.223.295-2.134.58-3.078.975-3.222 2-6.435 2.859-9.693a31.07 31.07 0 0 0 .196-14.902c-.938-4.177-1.99-8.329-2.972-12.495-.969-4.086-1.817-8.204-1.754-12.425.038-1.824.231-3.64.578-5.431.252-1.352.843-2.716 2.415-3.02 1.498-.29 2.678.574 3.533 1.646.713.942 1.28 1.988 1.679 3.1a44.294 44.294 0 0 1 1.428 4.704 35.622 35.622 0 0 0 6.594 13.378c.672.858 1.274 1.776 1.964 2.62 2.795 3.421 3.877 7.352 3.564 11.728-.055.775-.007 1.561-.007 2.435 1.455.014 1.501-.899 1.592-1.659.477-4.307-.178-8.377-2.687-11.999-1.348-1.942-2.806-3.807-4.198-5.731-.567-.788-1.073-1.626-1.772-2.673 2.725-.656 3.425-2.612 3.775-4.744.351-2.132.626-4.332.852-6.51.705-7.053 1.626-14.107 3.33-21.03.684-2.768 1.569-5.426 3.131-7.84.712-1.096 1.522-2.093 3.134-1.81 1.026.673 1.467 1.786 1.682 2.948.323 1.514.508 3.055.554 4.604.021 5.744-.08 11.482-.147 17.22-.025 2.186-.162 4.374-.099 6.57a9.59 9.59 0 0 0 .691 3.161c.493 1.229 1.745 1.38 2.615.369a6.594 6.594 0 0 0 1.231-2.102c1.191-3.538 2.387-7.073 3.425-10.663 1.541-5.342 2.814-10.767 4.948-15.92.904-2.185 1.98-4.304 3.009-6.438a7.121 7.121 0 0 1 1.071-1.582c1.573-1.777 3.4-1.423 4.062.893.358 1.317.506 2.683.438 4.047-.133 3.092-.298 6.199-.722 9.263-.755 5.412-1.726 10.798-2.575 16.198a48.04 48.04 0 0 0-.483 4.342c-.076 1.207.165 2.355 1.19 3.164 1.712.253 2.547-.944 3.347-2.006a213.632 213.632 0 0 0 5.252-7.34c2.172-3.154 4.23-6.388 6.441-9.513a39.172 39.172 0 0 1 3.689-4.386 7.898 7.898 0 0 1 2.46-1.664c1.195-.532 2.122-.069 2.659 1.142a6.844 6.844 0 0 1 .214 4.828 50.801 50.801 0 0 1-2.653 7.166c-2.722 5.676-5.656 11.249-8.441 16.894a93.419 93.419 0 0 0-3.091 7 10.052 10.052 0 0 0-.648 3.458c-.015 1.623 1.283 2.318 2.611 1.412a12.01 12.01 0 0 0 2.353-2.251c1.896-2.22 3.659-4.542 5.554-6.755a13.835 13.835 0 0 1 2.605-2.386c1.538-1.064 2.573-.634 3.012 1.144.403 1.79.344 3.654-.174 5.416a29.79 29.79 0 0 1-4.987 10.282Z" fill="#321639"/><path d="M127.407 132.211c-.501-.27-1.2-.153-1.954-.231.837 1.64.837 1.64 5.695 4.227 4.539 2.419 6.261 2.978 8.398 2.717-.084-.15-.13-.375-.257-.444-3.954-2.11-7.901-4.223-11.882-6.269Z" fill="#321639"/><path d="M232.84 148.295a14.863 14.863 0 0 0-4.612.096c-3.665.737-7.285 1.689-10.917 2.579-3.898.955-7.783 1.977-11.687 2.897-1.386.326-2.845.745-4.151-.215a2.55 2.55 0 0 1 .554-3.088c1.289-1.28 2.605-2.539 3.994-3.708 4.108-3.467 8.313-6.822 12.366-10.349a73.877 73.877 0 0 0 6.396-6.34 16.053 16.053 0 0 0 2.581-4.128c.581-1.287-.185-2.381-1.592-2.553a5.524 5.524 0 0 0-2.156.167c-1.225.357-2.423.8-3.586 1.326a87.29 87.29 0 0 0-12.167 6.794c-2.893 1.916-5.737 3.859-8.678 5.722-2.153 1.362-4.378 2.624-6.619 3.852-1.109.611-2.301 1.126-3.623.589-1.115-1.422-.494-2.68.358-3.772 1.23-1.577 2.592-3.05 3.933-4.536 3.478-3.851 7.02-7.645 10.456-11.534a50.953 50.953 0 0 0 3.98-5.203c.645-.99 1.122-2.08 1.412-3.225.371-1.394-.439-2.413-1.902-2.289-1.331.119-2.759.398-3.908 1.019-2.558 1.401-5.138 2.829-7.395 4.641-4.824 3.88-9.45 8.002-14.145 12.038-1.727 1.482-3.389 3.041-5.137 4.498-1.615 1.333-3.426 2.024-5.539 1.209-.232 1.138-.529 2.269-.673 3.413-.295 2.531-.401 5.088-.766 7.609-.605 4.171-2.913 7.392-6.026 10.098-.573.498-1.193.838-1.908-.131.431-.563.895-1.1 1.389-1.608 3.377-3.152 5.076-7.037 5.221-11.64.048-1.548.21-3.092.337-4.636a33.553 33.553 0 0 1 3.456-12.267 51.38 51.38 0 0 0 2.384-5.513 9.56 9.56 0 0 0 .59-3.464c-.115-3.014-2.346-4.218-4.912-2.608a19.361 19.361 0 0 0-3.72 3.181c-2.766 2.939-4.873 6.346-6.752 9.904-2.474 4.67-4.956 9.336-7.478 13.981-1.71 3.161-4.09 5.769-6.823 8.1-3.427 2.904-7.276 5.157-11.14 7.404-.692.402-1.367.831-2.084 1.272.732 3.163 1.58 6.163 2.986 8.925 2.413 4.706 4.903 9.387 7.627 13.917 2.559 4.263 6.38 7.443 10.187 10.842.919-.376 1.815-.741 2.798-1.139-2.142-2.551-4.212-4.84-6.083-7.283-3.582-4.68-4.295-6.065-4.506-8.146.552.372 1.061.574 1.351.94 1.069 1.365 2.022 2.817 3.093 4.179 1.917 2.429 3.84 4.862 5.862 7.226.685.798 1.657 1.349 2.372 1.917.36-.071.714-.164 1.062-.279 4.731-2.148 9.743-2.995 14.896-3.181 2.823-.097 5.654-.171 8.494-.22a116 116 0 0 0 17.433-1.589 43.303 43.303 0 0 0 5.052-1.219 26.228 26.228 0 0 0 7.819-3.851c1.865-1.344 3.463-2.931 3.772-5.354-.556-.997-1.382-1.315-2.336-1.319a21.549 21.549 0 0 0-3.272.159c-2.619.391-5.218.893-7.832 1.307a30.126 30.126 0 0 1-3.258.326c-.842.042-1.667-.111-2.024-1.056-.358-.946.094-1.659.712-2.195a14.485 14.485 0 0 1 2.877-2.054 115.939 115.939 0 0 1 7.202-3.31c6.317-2.648 12.648-5.211 18.942-7.888a26.327 26.327 0 0 0 4.277-2.411c1.292-.861 2.421-1.96 3.051-3.429.729-1.812.067-3.169-1.865-3.397Zm-91.79 21.935c-2.261-3.562-3.662-7.519-4.945-11.503-.121-.375.186-.891.366-1.637.488.522.822.731.945 1.027 1.691 4.124 3.363 8.257 5.016 12.397.075.19-.061.461-.152 1.011-.538-.555-.961-.875-1.23-1.295Z" fill="#1D622C"/><path d="M234.843 145.145a10.192 10.192 0 0 0-4.05-.269 91.12 91.12 0 0 0-8.606 1.727c-5.066 1.261-10.095 2.672-15.145 3.98-.923.239-1.872.643-3.14.233.279-.415.592-.806.934-1.171 2.151-1.85 4.298-3.7 6.475-5.508 5.59-4.593 11.271-9.092 16.036-14.579a15.671 15.671 0 0 0 2.726-4.396c1.178-2.965-.709-5.424-3.903-5.149a13.025 13.025 0 0 0-4.479 1.169c-3.623 1.754-7.231 3.569-10.678 5.643-4.075 2.454-7.958 5.231-11.957 7.814-1.844 1.194-3.75 2.298-5.658 3.384-.591.335-1.284.485-2.493.923.701-1.101 1.008-1.747 1.464-2.267 1.447-1.667 2.947-3.257 4.399-4.901 3.847-4.294 7.732-8.556 11.524-12.904 1.556-1.797 2.946-3.759 3.553-6.129.735-2.865-.883-5.027-3.834-4.814a10.8 10.8 0 0 0-4.433 1.26 86.081 86.081 0 0 0-8.545 5.456c-5.036 3.675-9.596 7.929-14.126 12.207-1.449 1.386-3.002 2.685-4.56 3.957-.841.689-1.763 1.353-2.988.998-.878-.664-.971-1.533-.609-2.461.595-1.533 1.25-3.041 1.865-4.567.982-2.462 2.048-4.892 2.921-7.392a6.433 6.433 0 0 0-.158-4.583c-.973-2.409-3.073-3.492-5.526-2.712a8.41 8.41 0 0 0-2.65 1.395 31.612 31.612 0 0 0-3.608 3.362c-2.926 3.199-5.11 6.908-7.131 10.722a1304.439 1304.439 0 0 1-6.871 12.847c-1.72 3.179-4.092 5.82-6.855 8.148-3.174 2.669-6.686 4.806-10.244 6.897-1.018.59-1.984 1.257-3.207 2.052.227 1.274.357 2.262.585 3.229a44.029 44.029 0 0 0 3.966 10.51c1.201 2.267 2.497 4.48 3.69 6.756a44.834 44.834 0 0 0 10.361 13.031c3.975 3.487 3.496 3.589 8.324 1.205a38.448 38.448 0 0 1 15.302-4.01c3.621-.198 7.286-.316 10.941-.44 5.771-.211 11.514-.679 17.197-1.767a35.066 35.066 0 0 0 12.005-4.561c1.976-1.223 3.669-2.73 4.764-4.826 1.565-3.004.394-5.254-3.022-5.597a15.808 15.808 0 0 0-3.82.125c-2.99.435-5.959 1.006-8.943 1.485-.571.094-1.168.027-2.17.038a11.633 11.633 0 0 1 3.922-2.657c3.014-1.331 6.063-2.591 9.089-3.874 5.318-2.237 10.669-4.398 15.942-6.74a23.186 23.186 0 0 0 5.123-3.149 10.84 10.84 0 0 0 2.874-3.594c1.246-2.536.163-4.802-2.573-5.536Zm-2.158 8.368a26.818 26.818 0 0 1-4.295 2.427c-6.315 2.696-12.68 5.277-19.004 7.951a117.25 117.25 0 0 0-7.229 3.34 14.382 14.382 0 0 0-2.876 2.053c-.638.533-1.051 1.297-.719 2.208.333.911 1.183 1.098 2.026 1.057a29.578 29.578 0 0 0 3.268-.332c2.623-.423 5.231-.931 7.856-1.324a21.829 21.829 0 0 1 3.283-.167c.949.002 1.79.317 2.339 1.324-.312 2.432-1.916 4.029-3.788 5.382a26.378 26.378 0 0 1-7.836 3.887 43.032 43.032 0 0 1-5.067 1.229 115.816 115.816 0 0 1-17.484 1.625 819.29 819.29 0 0 0-8.519.234c-5.166.192-10.195 1.053-14.943 3.218a8.331 8.331 0 0 1-1.064.281c-.717-.569-1.69-1.124-2.375-1.925-2.016-2.357-3.943-4.799-5.87-7.249-1.069-1.365-2.025-2.824-3.092-4.195-.292-.372-.804-.568-1.356-.944.207 2.093.915 3.481 4.506 8.181 1.873 2.452 3.948 4.75 6.089 7.308l-2.805 1.146c-3.81-3.404-7.625-6.591-10.202-10.876-2.726-4.547-5.216-9.247-7.625-13.973-1.41-2.765-2.259-5.773-2.981-8.963.722-.443 1.398-.879 2.093-1.284 3.876-2.261 7.74-4.529 11.185-7.454 2.751-2.338 5.133-4.966 6.853-8.146 2.528-4.674 5.034-9.36 7.519-14.057 1.892-3.576 4.012-7.005 6.785-9.961a19.631 19.631 0 0 1 3.736-3.202c2.578-1.619 4.825-.407 4.922 2.613a9.626 9.626 0 0 1-.595 3.48 51.288 51.288 0 0 1-2.383 5.564 33.793 33.793 0 0 0-3.479 12.347c-.137 1.547-.281 3.107-.346 4.654-.153 4.629-1.862 8.531-5.252 11.703a18.424 18.424 0 0 0-1.384 1.635c.717.969 1.338.629 1.915.126 3.125-2.72 5.443-5.961 6.058-10.154.368-2.531.478-5.1.771-7.634.138-1.153.448-2.288.68-3.429-.016-.007-.031-.016-.046-.025l.007-.109.05.094-.014.027c2.112.813 3.934.115 5.556-1.223 1.761-1.459 3.43-3.045 5.159-4.529 4.715-4.062 9.363-8.209 14.205-12.112 2.263-1.824 4.858-3.274 7.422-4.673a10.233 10.233 0 0 1 3.924-1.028c1.468-.13 2.272.879 1.904 2.297a10.853 10.853 0 0 1-1.408 3.25 52.113 52.113 0 0 1-4.015 5.207c-3.452 3.912-7.008 7.733-10.5 11.605-1.35 1.493-2.72 2.978-3.955 4.564-.855 1.095-1.475 2.353-.36 3.789 1.32.539 2.517.02 3.631-.599 2.24-1.238 4.473-2.509 6.644-3.879 2.935-1.865 5.802-3.842 8.709-5.76a88.154 88.154 0 0 1 12.211-6.847 27.443 27.443 0 0 1 3.598-1.334 5.493 5.493 0 0 1 2.164-.173c1.408.17 2.176 1.271 1.593 2.562a16.332 16.332 0 0 1-2.594 4.152 74.857 74.857 0 0 1-6.427 6.381c-4.067 3.551-8.29 6.924-12.415 10.412-1.393 1.179-2.721 2.445-4.01 3.736a2.577 2.577 0 0 0-.813 1.455 2.575 2.575 0 0 0 .251 1.647c1.308.963 2.775.539 4.162.211 3.922-.928 7.816-1.962 11.725-2.931 3.636-.904 7.275-1.859 10.951-2.605a14.993 14.993 0 0 1 4.627-.105c1.936.228 2.6 1.592 1.832 3.382-.656 1.465-1.78 2.572-3.076 3.443l-.007.014Z" fill="#321639"/><path d="M138.665 156.512c-.118-.296-.449-.507-.936-1.027-.185.752-.496 1.271-.376 1.653 1.26 4.01 2.633 7.99 4.871 11.567.266.422.695.728 1.22 1.294.091-.554.23-.83.155-1.019a1301.051 1301.051 0 0 0-4.934-12.468Z" fill="#321639"/></svg>